<mxfile host="app.diagrams.net" modified="2023-09-20T02:00:47.956Z" agent="5.0 (Windows NT 10.0; Win64; x64) AppleWebKit/537.36 (KHTML, like Gecko) Chrome/117.0.0.0 Safari/537.36" etag="DyzSxgyZ2Y_ymhp9bDYG" version="21.0.8" type="github">
  <diagram id="yPxyJZ8AM_hMuL3Unpa9" name="gitflow">
    <mxGraphModel dx="794" dy="424" grid="1" gridSize="10" guides="1" tooltips="1" connect="1" arrows="1" fold="1" page="1" pageScale="1" pageWidth="850" pageHeight="1100" math="0" shadow="0">
      <root>
        <mxCell id="0" />
        <mxCell id="1" parent="0" />
        <mxCell id="7" value="Master" style="text;html=1;strokeColor=#6c8ebf;fillColor=#dae8fc;align=center;verticalAlign=middle;whiteSpace=wrap;rounded=0;" parent="1" vertex="1">
          <mxGeometry x="320" y="70" width="90" height="20" as="geometry" />
        </mxCell>
        <mxCell id="OL0GkuOh2Btfa5_G7vJa-180" style="edgeStyle=orthogonalEdgeStyle;rounded=0;orthogonalLoop=1;jettySize=auto;html=1;exitX=1;exitY=0.5;exitDx=0;exitDy=0;" edge="1" parent="1" source="OL0GkuOh2Btfa5_G7vJa-177">
          <mxGeometry relative="1" as="geometry">
            <mxPoint x="310" y="162" as="targetPoint" />
          </mxGeometry>
        </mxCell>
        <mxCell id="OL0GkuOh2Btfa5_G7vJa-177" value="" style="shape=image;verticalLabelPosition=bottom;labelBackgroundColor=default;verticalAlign=top;aspect=fixed;imageAspect=0;image=data:image/png,iVBORw0KGgoAAAANSUhEUgAAAOAAAAJtCAYAAAAvnHzOAAAgAElEQVR4Aey92Y8lSb7ndUHcQTzMgOANmBGDNIPggf+A/4Fn4IUHNCMQ0iDmjrhDX3pu377d1V29VFVWVuW+Z8a+Zux7xImz7/u+7/u+nxMfZBYZlRGZWZVV3ZmVWRHu0tFxP+5uZv51+x4z+61/gbIpCCgIfDAE/uKD1axUrCCgIIBCQKUTKAh8QAQUAn5A8JWqFQQUAip9QEHgAyLwvQl4AigfBQOlD/xpfeDbOP69CNganhBqjXHUx9jqYxwN5aNgoPSB7+wD9THW+hh3Y0yyc8JI/HO9YXsrAeuDE45LQ37l7/NXri7/ytHl/3IqHwUDpQ98nz7w1+4eN6J9As0xvfHrDHwrAb2NMb/09finmw3+k+d1/uFyjX+0XFc+CgZKH3hLH/iHy3X+s9UG/8NRi+nUgHzv9WHwrQQ0VEb8n/Yu/9FyjX9vvso/Wqrxj1fr/Jerdf6L1Tr/+Ytvsa98FAyuah84zwPBD3H8Hy4IztT4Z1sNrkf6xDuvD4FvJaC2MuJ/s3b49xdq/Kcrdf5HXYsvIj3+GOry20CXT3xdfq18FAyUPiD7gODD7wM9fu7p8t/vNPjLhRr/ZL3B56E+0fafQEB9dcS/sHX4DxZr/HdbDa4Fe9+IgcYnp7uiWOWjYKD0gVM+iJVeeXDC/2Jqy2XbP15vcC38J46AgoD/0t7hHyzV+OdrDf76qIfNeoInfEKx9vqiUvlFQUBBAGqCgMY2//FynTMCxv6UKagkoKPDP1iu8V8/b/C/r3ZZ3x6hc47JVF5fVCrgKwgoCEClf8L//O4I2JUE/CdLdf7laofN/RG2wJhiQyGg0tkUBN6EQKl/wv/0zghoPyXgf7VU518fdHF5xuTLJ3QHCgHfBL7ym4KAIOC7GwEFAZdqCAL+m8MuXt+YYuWE3lABWkFAQeBNCLw3Ap6NgLmSGAHfVLXym4KAgsB7I+BfHXRxe8+moArQCgIKAm9C4L0R8P/e7+Jwj1FGwDfBrvymIHCKwLsn4PLpGvD/WO+wdzzCHR5TbipCGKXDKQi8CYF3S0DHqRT0ny7X+V/nOzydHbKuHRPOKQR8E/jKbwoC75aA9g5/uVjjv1lv8O/0PUKhE2KZEyothYBKV1MQeBMC75SAwhZUGJX+t5t1vvB3YThmPDphJIz/lE1BQEHgNQTeMQG7pyPgRpUv/E1A6B+U0e811JUfFAReIPAeCFjnn69X+aOnDqOuQkClqykIfAcC75aA9i5/uVTnn61X+YO7DoPOCwek72iBckpB4Aoj8N4IKEfAgRgBlQXgFe5fyqO/BQGFgG8BSDmtIPA+EVAI+D7RVcpWEHgLAgoB3wKQclpB4H0ioBDwfaKrlK0g8BYEFAK+BSDltILA+0RAIeD7RFcpW0HgLQgoBHwLQMppBYH3iYBCwPeJrlK2gsBbEFAI+BaAlNMKAu8TAYWA7xNdpWwFgbcgoBDwLQAppxUE3icCHy0BT07GDEd92r0WnX6H4XisODa9z56glP1BEPhoCTgc9qjVs4TSXmLFBI1+j/GJ4lv4QXqJUul7Q+CjJWC7WyWStHLs2sWZcNMeDpUR8L11A6XgD4XAR0vAZquAP2pA6z4ikAkxVAa/D9VHlHrfIwIfJQFPxgOqtTS+iBlvzEehVnmPEChFKwh8OAQ+SgJ2uxXCSSuH1hUcMS+lZuPDIaTUrCDwHhH4OAnYqxBJWVHZVnEqBHyPr18p+kMj8FEScDTskC+FsfuPccc9FOvKFPRDdxSl/veDwEdJQBFHptnME4pbcUUcZMq59/P0SqkKAh8YgY+UgNBqlwjGjRy79nAnvXRHI0UN8YE7i1L9u0fgoyVgp1sjmrajdu/iiDup9/qKIv7dv3+lxA+MwEdLwPF4RLfXoFjPUW6W6QwGnCiWMB+4uyjVv2sEPjoCCpKNRiNGwyGChMPRgOFoyGisxBd91y9fKe/DI/DREXA8HtPrden1epKIHx4ipQUKAu8PgY+KgGejX7vdRnwGyrTz/b15peSPAoGPloCtVuvPIuBwOKLZ7FGptqk1enQHP3AKe3LCYDCi2R7Q7Azo9ce8XIKe0B8MaHf61Js9itU2jXafwVvysI0HffqNOu1SkU6tRr/TZtjvMei0GQ9EJqnT7WQ8YjwanR0yHg4YtFuMBgPGoyGinEG3y/hFfSfDAcNOh0Gnw3g4ZNjrMuz1OBm/NKA9EeV98wAniOOzNbXYH/V78iPqHnba9Bo1es0m4+FIXjuSZfZftOvkRR2iDS/b+U2DT8aMRBtFe17UK5+h25XP8M11nCDqG/X79Oo1WuUC7VqFfq+LmAldhe2jJeCfOwLW6x18/hxaUwyrL0+m2qU3GDEaCT/D05crOuBweHos9uXxaCylrb3ugGy2hsaa4tieJZxp0h8KUg4plZsk0xXC8RKOQJZ9YwRnpEil1Zcd52Q8fq0DibK7lRI5l52Qap+Y3UYxEaOWSZJx2ijFYrQqZdqVPMVomHIyybDfZ9BuUE/HyHmd1As56vk0xZCHtNNOJZWh02xRz8QphgKUohHa1RKFoJeM20ElnZVl1rNpCsEg7XqTXrtFs5AhHwhSz+bpdzo0cynyfg9Zr4d6PkfR6ySpPSKqPqYQClNJJCj4XWQ9HsqJOM1SnpzXQc7vpVYoMByKP4aR/KMQz96tlSlH/CStJkrxuCyzEguRcTkpJZISQ/FcjVyGUixCM58h57ER1u4RsRkpZzPyz1ch4EsE/uLl7pv39NUR/+JcdqQ/JTmL6KRCAPMupqCCPNt7Xu5NGZnf8eNK1MiXWvKTLbXpDYY0ml1yhQa5Uotmu0+r3SdbaFCudcnl61htcX53V8tvHprZMmeptfpkcjXUxhj7mggHujArBx4+e6plRRshWmjSEh280ZDPcB4p0THrsQie1QUObnyObmmBkElP0qJD//gejo11ojYLcasa8+I0ru0tmuUKpaiP4OEGlrlJkk4bMaMK68x91Hdv4drZI+nxEjzYwL3xnMDxIaVYAPfaLPon93DvHxKzGPHtb6GffEY6kqCcSRHXH6B7MkHgSEc1lSKu28E4+QDN44eEtBq8i9MYvvwd+5/+Csv8PK6NNSxTD9A+foB9fYWwQYXh2V1McxMETSYalTKtUpFGNk2nXiXvt+FameLwyz9gW13Bf3yEa20O3eMHuPf2qeQKlCIeAgfbWBcXyLqs+HbmUT/8DPX8JDG3m26ndx6+S7t/aUfAWr2Dx5dBY45h8+VI5Ory+FAfZUsTxR8poDZGWNh0s3IUwuBMobcnmFt3sXIYwuTKEo+X2DgIsKqKYA2WiceL7Bz5uf7MyPSWH4MzjTecY98QwROrkC3XiUaC2O02QpHohbxQcgQsFeVo5z/aI2y3kY+G5D+/8el9LEsL+HVa4nY91pV5XNsblFNxAqpNTLNPMS0ukgv6iBoO0T78koPbNzAtLuDa28IwcR/byhJxu4NOvUzOY8a3u4Z9cwu/+gjX1hr6mWckghGK6RQJswb94yk8Wwdy1PPtr6B+8BX7X1/DurpOwmwhadLjfD6La2cT2+oS2vtfcXDna3Qzz3BsLqOfeIBhZgL33i4pt4uo/hj/3gYRi4mQ7gDrwlO2//gbtFMTWFaXMc08wTDxGMf6GhGLmYhZi2NzFfPyMqV4mHzATli/T8hipJTOMOi/nJJfWvYBl5aAYv1Wb3QoVcQasEOl0kRnCPNg1sLnT01sqYM83/UwsWxjdtPN830viztuni7ZmFp3c2xJksnX8QayuIMFgskaTleS51subk2bWdwL4o+VabV7FMotmp0hzVabeCyE0+kkEotfIKDoRKNej06tSr2Qp1mt0m3WqcaD2BeeYVmax6/TU4hFCGmPCWqOKES8ONamUT+6hWF2lrjdQuBoC/WD6xzcvYl2egLz0jTH965jnJkkbDLTaTSo5xKkXGb8Gg1Jl5OoWYdze5VkJE61VKEcC+Ne3SOwpyZhNmJdesrBrc/Yu3Ed8+om2XCcSiZN2KAmZjXi3dvg+M4X7N2+jm5uEvfeuhwxdU8eYl5cJKg5xjY/gfr2Fxhmp3DurGBZmmDrj59IAto21rAtTmF4eh/Ds0eYF2awLE6jffIA/eQk+WiUVrVMq1KkWSnT63QurF8VAsJPbgp68aWd0Kg22D3w8untY/6fzw94tuZkUx3kQB/mSB9kYcvFzKaTPX2YXW0YvT1FOFnFG8jhCebxRsvozVH2jgNsq4Ic6KKksvUL1QjdZa1aJp/PU63VX8o8Llx17mA8oplN4lmfxfp8kaDRQqNSI+12EjNqyPqsONen0Ty6gfrRPZyb69hXFtA8vMnhvVtoJp9gnJ9A++hrNI/uyNGlEE+QC/tIum0kfH6apQLlWJCAapdUOE6j3qZXrRFVmYgc6YioD9E9us7u9U85uH8P16GadCBINhQkaDScjrq6Q47vfM7u7a8xr68QM+uwTtxFfedrNBOTePd30D/4mq2//3/Zu/4ZluczWJan2frsEwyL8/jUR/j3VtHe+5qD63/k6M51jr76A7u//XsOr10jbnPTbYlcki+3s+WIWLOL/cu6XdoR8PwLG/aHJBNFphZM/O2X+/zN9SOmNl2sHPhY2fOytu9lacfN/LaLxT0PS/t+Dgwx7N4Mz3f9LO8HUdlSHGiCzK/ZeTBvYWHXTzhZO1+NlN5lknF8Ph+JVPqttqujXptqLIh7dQ7byjI+tYa0x4lzcRrr1GPCOhWenRU5BdU8uod5YRbD9DOO799C/eg+2smnGOYmMUw/xjD5BPPiPN6jfcwzTzHPTRG1uShHQ8TUO2jvXsd9pCYbDFHyOjDde4Tl6TTerU1Mk3c4vHUN1aOHBLR6OdLGHTYiDg9Zv4eQaovjO9c4vHsD+/oaCZtFttk8P4lpeRHnyjxH1z5l9f/7N+x++SmG2UcY559wcOMzjAuz+FT7RLW7mGeeoJ96gm1lAeuTWxz85m/Z/tXfE9KYadVaL7E8GdGqVwgHfPhDUbLF6luxfHnzT2vvahBwMCSbqbCy5eLGhJEbM1Y2VX5m1pw8mLexehhkRxNkadfNrVkLi4diTZjB4U7xaNHBg2U3e+YUBkuM1R03jxZt7OhjpAvnOg3Q7bSJyzWgnXA09toU9NWu0avmydoNOOan8R4cEXc6SRhVmO5fR3f7OgGVioj+GO/2GuaZafwqFb79baxzE5hmp3Hv7RDSa3CtL2FffY57Z5vQ8T6Gu1+hufklvkMVaZsJ/9o8qs9+jX1lhZjJSEp7gOaLP2C4/wD//iGBvXUsc1NYFhdJef1kfB4yAS+FZJZaNkXKosE8eR/TzBSBo0MyLgferVV8h/tEbVZi2gNMT+5wcO33mBfEs2zg3lo+FQTtbhExaYhqtnFtrRLQasiFg2RtBvzry9jn58j5I/TaL0fAk2GPTDzI+vN5ljf2sHijnNOovArjT/r4ShBQzAXb7S5uX5ZjU5wjcwKbK8H8hot78w409hxWT4YdTYCbszaO7Fni2YYUuizvBVg4CGMOFIklStjcKQ6McYKpKs3uRUGBsODJpBIEggFSmcxb/7U7xTQZqxbv5gYZX5B6sUjBbcC7+Azn/DQJu5NiOEDGaSWkPqaayVJJREmajgkeq8hHTtdOKauOmNlE2uOjEvYTXFvEMfWE4NEhaZuZ2NEOjslHBA/2SNksZMxanNOP8K6vkXJ5KYWDJM1GYkYj9WKFeqFAo1igJ/V2XerpKBHVLhGdnpzXRyUaJqJRk/H5adUbtHIJ+cfh29si7fdTioXJum34d7fJeD0UIn5SlmPiVgvlTE7iIqTCcj2cz9HvdBHHZ9uw2yToMnPv1pfcn5hDY/MrBDwD59u+PzY1xKvtFOuI/mBErz+UCvRCsYo3XMATKVNvD6T6wR8t4ouVqDZ7jMdCRzii9UIR3x2M5HG/P6TTGzIYnuoLz9cj1y3DodRhDd+koD5/MXAibFy7HfqtFqP+qS5NKLz7zQb9ZpNBvy8V10JJfqp4F7q2U0W7OBZrTtFxzxTvUlE/GDBoNaXCv99uM+x2pWJdGAAMxLFQqIs65XGLoahXKPJ7PfkRyn2p0ztT1J+cnNbZ7cjzsg5hGNDpSD2lUPaL5xj2hCFA+9RYYDiUSn1Rn1Cyi3sGL+4/r7gXbRfHr67xOvUKPpuZ2clJVFoz6eLFqf4rMP6kD6/GCPiGV9Tr9Wm0etLKRZzu9obSqqXdGwj7jDfcofz0YyEgLIQKmQx+j59cviQNKH6sun/seq4sAYVgTQrXXuHaK4c/9vtQ6hMzA2GVdFkXfa+84StLwFdwUA4VBD4IApeXgC9sO8VaTnw+hCpJ1HlWvwir/9bRVY7K4t9/fPp5ww3SWFq4a4k12DkD7g/Se84qlSPWizaLketDgH3Wlp/Y96UlYK83oFQSRtM1ssUWze4PC20vpkBiXdjtD6XwRiiEf2huCiHEyZWaxDI1UoUm7f53x7UZ9/u0ywWq6TiVdJJmuSQ9J1q5LI1Mml6jTq9Zp1kuUE6nadd/eLxUIXDpN2o0cxnapRKD3us2l8IR+lQ48j1688mYQbNKPZuglIhK6akQECnb90Pg0hKwWGyg1YaZW3WyqYkSyrUZ/oB1RbPZlfainkiJaLpGudqWApvvX8YJzVaHPX2Ip2sOllRBkqXOd4bY71ZLJI1H2FYmMa/OEtRriOyt4555guXRfRJm4V0QoRQNELfZqWZ+eLS4TilP2niMc/YZwf09KuncRSnkyYh2tUgtn6Xd6sgR/Lu60njQoxp24N6cRT/7EJ/miFoh/123KOfOIXBpCVgoNNDowsytudjWRvEn6yRSFYLREv5YhWqtTTxZxu7J4AwWSecbZPN17J4s7kABkyPJ+oGHhV0v+4YovnD+lJChgjRLyxRbpLI1fKE8JleGYLxKrtgkm60SipflqFesNCUBJzecLKtCJItNSpUyyUSMfKFIp3tx9OnWBAEPsD6fwLw6R9CgIbC+gPnedVTXPiOkUks9Xlx/RMxiOXUNKmRJWY0krCZyoaB0P6rEQ+QDHspvMGquRoN4l6fR3f4Sz8Y6hXCUYsgnlespp4NiJIBvYx7j49vYV9bIBsPUcsJ9yUXCaibj9VLP5+m2WvTbLVqFLBmHDsf6DPqFJ3jVh9TyP/yP4VyfvFK7l5aAjUaXYLiA2ZHCEy6SytWxOxKs7vmY3fJJM7MjXYh5QY79AGpLHLU5yvyGm6UdPwvbbp4tm7g7Z2Ru243OFsdojbJ1FGBu28eBKc6eNsjChoNb0yYWd/2ojDEOjgPMbnjYUEcIp6q4gllMnjS2QIFKvU06lcBhMxOORGk0LlrSDDpNylEfMauOqN1ELhomaVDheT6LaXqKpMNN2mYlvL9B1GQk5/eQsunQ3L2O6u5NLM+XiBh1uFdnsc48wXNwSDVfPGeRc0Ip4MI2cQ/V9T/gWn1OyukksLuKZXYK8/w8QfUB+nufs/PJ36C6fZeQ8NCw6XGszmCamcC5sUHcbiMbCpGPhMkFvKTddmJWPVGrnnTAR7t+efV27/rf4dISUIiyxRpMKN9HwxHtRhuTKcy9KRO/uatlYccjDbCnV+0s7XiY3XQxteZges11+ll3ML1u48mymfktJ/u6EAZzmIUNJ58/1nFzxszdWQNfPT3mF1/t8/kjDXemjFx/qOHvvlbx1YwNsy9Po92TUzypuB8NKOYz+Hwekqk0rXbn4vs8GUvPeKkUH5x6n7cKGUm0hNNDs9qimogT0+xLD4SoUYt/+zlrv/i3PP/Fz9m5/iXqB3fY/e2/Y/OXP0N1/wEJjx+xHj7byiE3jukHqISv3vwsEZ0a+/wEmgf30DybwL2/i3XxGabpR9LfMGbR4Veto3lyG8PMlPRb9B7t4dzbwaM6JGqzUU6LEVF44w+kYOiqeLOfYfrnfF9aAp4HRYRVKGSrrGw6+PVNFT/7UsXEhosdbYhjUxiVLsjitov5HS9qa4ItVYCFLSfTmw6m1qxMrVqZXrWxsGHn5qSBv7uh4ncPdTxYMDGzZuHhnJHbUzo+e3jM314/4Oc3Ndxd8eKMlun2z4VsOBnTajUoFPLU6nUZ1uJ8O1/fP6GRTZByWAgbzTQrTZqlElmPRRpqR3TH0qlVdetLjm7f4Pj+HXY//5S1v/nXbP7dzzBOT5MNRhDWO6fbmHLEh2d1Dvv8NCFhqua0yzK8e7v4jjWEjEa8qm18mj3iXi9Zv4Oo8QjH7jrpUFgKfzIeO+blWcxrK0Scbjrn7DhFPYKAg0GfTqcjn/GHCq9ex+Hy/nIlCDgcDEkni0wuWvjFV4f8/Iaa2W33qTfEvo/t4wCrBz4Wd70sHwRY2vWxcuhjSxtkQ+VjcdvJsyULjxfMfPZQyy9uqPhiwsjstpM9jY/1fQ/zm3buzRn53T01v7pv5PFmEH+qQe9cLJqTkyHlcp5wOEgml6PdeYu08GRMIxMnZTcTMZqoS1++IKG9ZayzT3GtP8d/tI9tcRb78iLWxXnU92+y/eu/Ye/Tv8O+uEgpnmI0OtNnnFCJBvCszGF+9gjv1gYph5241UTS6ZSG2Cmfn6hVR0C7Jz3ZY2atnF5G7BZa3T6jkxNpG2pdmsK0skTEE5AzjfMU6XeaZJIRLGYz4ViCeuuVkf78xVd8/0oQUNhMFvIV6clwY9IkDa631QEezlv4430909t+drRhFrfd/OauhvvLLg7MCXzRPA5/Fo0lzqYqwNK2mwfzVr6eMjO76+PQHMXkPF07aixRDg0hnu+4uTPnYHYvQizXpj98aWQ8HvWJRgIcqw5xCsPp2kV/wtf64skJnVKOUiRINhCkWS2Ttqgw3vqUg9//CtPkMzkVDR0fENYcy3AS/uMDzJN30d//CtfaupSUvmwB1BMR/CszqL/4FNPEEyImM1m/j0IoRCESo5hKk/XZCeyuoH9wB/f2JjGHlWw0SFfYdY4GNDIRnGtz2Dc3SQTirxGwXkxhVG1x48bXbO6rSObKrz2a8sMpAleCgEIxLIIpFUtCclknnq4SimRlTJdNdYRopiElnBprjHVNBH+iKg20O70BrU6fWrNHudamWG5JYY64P19uUal3qDW6VGun32K/VGkRTVWlN4XQPZ6ffp2cjGm3WpRLJRqNpmzT2zqijIDW6dBrC8V7n7YgZMBFzuOiHI/TLJdpVyu0q1U6tTqdRp16JkklFpbxXvqvrDOHnRbNTIKC10kpEpZxZ4QxuDCulp9ej0G7SbsoiB+ils3SFtPlbocTxrTLWZJmFdbn8wT0RhrV1muqinTUz/baIl/fvI1KZ6FUa7/tMa/s+atBwFdf78mYeq1JNFmWOr7B8IRKrU0sXSGWq//Zxr9Cif+nKO5fbeabjmXIQhGFTHhCfEcYROlpIEIKvkn3KYU9fVmGsNT5tk3UJcp5uY1pF9KkrFqCOg35WJzXm3BCJhnFoFWzvXtIJJ6WgrCXZSh75xG4mgQEGfOz0x1IaxfRSfuDIe1eX36fH7XOg3Xl909G9BtVaum41PWJUfm1TawRa1Vy2RzC5UvMPJTt2xG4sgQU5orS6v7FAHC6/2FsRr/99Xx8Z05H1uEb/fjOWiukoDK/x+vD49klyvcLBK4sAZUeoCDwMSBwaQl45okw+oDeEOIFi9FAROIWn+/jJCBGYtFm2e7v4UEhR+4z4+kL67U/o3udTg9eFnDO2+E7H0Jcd3bv2ffLUi7syZFURNMWnh/fB5gLd1+eg0tLQGEBI4LzFkotSrUu7Qu5Hd7+Ak+J8FIAIdaFP9StSQhJapUWmWwNYTt6Xif4phYIwU2r1aNYblOotKUk9ruMv09ORgx7bVrlIo18gU71YijEb+vcQhorFOVCPfP6diJzT4hQFqO+mGoOGXbbdMpFurWqDHHxJsLIHA+9rgydIfJdnIbROBff80W+iNMwGiO6tQqNfJ5mqYyIWndVOXhpCViutLDaEmweBlBZU8SlJ8K3S/wudMTxiQxbn87XqLV6VJtd8qWGDFkhRqbvuwkLnFy2QjBSJJyq0+m/JPSbyuh2+gRFronjENuaCI5IhWb3nCXNKzeNBx0a2SiBwx1cm9uEdSZq2TS5gIe010W9UGT0ihBEqBgqsSARrYqk00WjUj+nRhDxX/pUIgEZGTthtVOOR8l77ATXF/EK21GbjW67/XLUEiqebpNSWOSCMJKXuSRiFPxuqZssxhI0CnlKYTcxo04GaRI5LhIWHZ7NdTy7h1QLVb5HCJ1Xnv5yHF5aAuZyNfaP/Dydt/L8IIg3VZP6KKnPq7QRElAxQuaKDanTq4v4MK0e+WKTZObUy8HiShJKVgglyrj8GenlILwmyvUu7e6QjsiOJAys8w1KtQ6NVl+WKUawihh1W118gSxmEcI+XpOZlhrNngwAVayK60WdXTKFBuI4l29gs0aZe25nctWN2p0nX27QaTWp1xtSQnt+pBj3WlSjHqwiOO+TZ9jXRBQyB86NRSxLc6S8ARlx7GVXPZGJWMKqbdS3r2OYmSbm9NL7Jg/DCaNeh5RJjW32GcaZaSImAzHtIbaHX3P0xR9wrK5SL5W+ST4zGvapJkP4hEH3/Axxq52cx0lEtYP24W18xyriDgv+vefoHt/FurxIzGbFu7OG4ekTDJNzFJIFhCroKm6XloCNRodAKI/ZmcITKpDI1jBZoyxte5nZ8uP0Z2WU6ycLVqY2fajMcY6NER4vWHmy7GRZeDcYIhgcSUzOFAZrnCNdWN4/u+nD7M3h9qVRaXzcmTbz/CiE3pHmUBNEhDI8NCdJZSrsHodYO45gjlTIFesYLFFpgbOwH0RjTaAxhrk5aZLWOEZPjkSyjMubwe7LE8+3SMRjuGwWtDoj2WKNc5ZtnAz7dMo5UiL0oNFC2u2lnAji2lzCNDdFzOak2zpTgp9wMujIrEUijujRzS/Yv3kdy+oqtYIg1CkBTkYD8l4bztVZNM8eE7baKcZjMo1q5h0AACAASURBVI6nbXEOz8HB6fUvJJy9Zo2Y4RDz3ATmxSXy0ZTM+JSyqDE8u41tYxnX4S72tTmO715H/eAujo0tEg4HSZudhMVOs9aQa16FgA2uhfvEOq/PlH5yoellfsBWT1qqiPwNtWoTo0nkhjDzx0cG1o78rB14pUeEyAuxvOeRuSHmtz0sbntZOwiwrwuzpfJzqAuhMUWZX3fy5WMDv7tvYH7XjzBn29h3M7HiZEcblSZrK9tO5re9qG1pypUmTk8KnT2BLVQiFCmgE+Vsulne9bK652Vx08WdWTMzWx70rgyFalfmMxTZmjr9EbVykWQsQjAYptpsX3ToFeuq/mm+iXa1RrfRpN9ukHZaCR4fkvJ4pQXNWcc+6TfJOY0Ynt6ViVN2RBj5lWVqxeK5cBljKlEP3q151I/uErY7qRRKVOMhAho1UadbjuxnZXbrZfzbSxzfvMbR7VvSOqYo4oK6jJin7mBenMK0OIv60W12rv2Ow7s3ce7sUs0X5J9Dt17/lrXoWQ2X+/vSjoAXX9sJtXKd/SMvn9/X8PPrRzI3xMaxIFmQQ+2p98PMpotdfYQ9bZgDXYQjQ4S5NTsru26OTVEml6z89raGv72h5emaWxps72iDHFuT+CMlfMEcW/tu5jbdHJkS5EtNItEcVncSnSON1ZlCZ46zfRxiQ5B+y8XClpvVI2GLGsTizVBsDs/570FPrNlKxVMH3l7/rQFqT0Z9Cj6nzPkgvOaFeZqQOIqYnYNWBTEyae59yeYfPuHgzk1ce7vU8qd5AkVSTSHYqScDhA5W0T17SMhip5AU+QW9RB0O8okUQxEjVcQR7fdoFnPSJUp9+xoHX1/DIoL9ekUuQQuOxaeI8PXaiUccfP0Z21/+nuOnD/HrdHRfcUYeDocyLbkIFzl6V9Lci53gozy6EgQc9AbEY3kezxj42We7/Nsvj5jedLN+5Gfj0MfmkY/n+x4Wdz0sH/hZU4Wkc63FkeDZgompVTsqc4Lnm6cj4CcPTKweRziyxNC7kgTTNTrdIc1aC70hhJjWzmx4cAbyGK0xto6DLB4GUZtj7GtDLG55WNpys3HgkyS3eNOYXAmcgSz5ep/+Oe+FRq1MKhEnEolRb3b45tQbutPJeEi3miO4tYDp8W3cWztUhd+hIHDAS72YJeUwYZ56wMHNL9HNzhIwWyglYpTiUcqpBL1Om1oiSEy9i+35AkGDkajdQUh3TMzpkGQd97pU4uKeOKVEgrjxGMfKLPqZp9i2VuWaL+O04Nlcwrq6iGHmGWrh1f/wFubnS8QdTvoXCDimXMwTCgYJRxMyy9QbHu9S/nQlCCgccvP5Kusi98O0iVvzNjl9nHhu5+aUWeYH3NOF5RT0i2dG5vZC2ANFGV7iQBtiXx/FEy3j9qRY3vZyc9bBrjmJLZAjmCyRqYh89iPqlSZHmqBMbybWfb5IgbUDPw+WHDxc96J3pSXhZlZdUjBkcKQIx4uEkmUCsQLRVIVqe8iZA4VQF5RyKfxuB1abAxHi4uzcm3qjkGA2UgGcU7c5/uI32OaXyAdDlGMR4iYdlXyeSipOVLOD/sldnFubZCJxKskYGa+LtM9Nq1YhbVLjXp7Gsb5B1h+glIiTcjkoJlMy/dmgVSPtsJF0eSgkUpQjHvwiiczMMwJakfJMS+RwC8vsJCGTgbjTgm97EcPkQ1w72zI8vXgn32wnI5w2MzNTUyysbJFIZb85ddl3rgQBhd6q0+7JNZjFk8XsyeLypWRmpIk1D2ZfUbod7etDPFpxoXbmyFe69Ht9kpkq8UydcqNHvdaSKgWtLS09JjKlJtVGR+aIkDq8ZlemMzN78vjiFQrlJiZXmh19nEN7hli2TihWwmhP4QgVSReaUvIqvCqEdFZ4Uwhd4ZmmQxCwUS2RikdlCIu3jYDj0YB2MUVCvYt/Y5m40Uwtk6WRz1IIizwOpymqG5kYcZH+zH+a26FdKVFJJ+QI2G01KPqdxPXHpNweWpUKvVZTqhK6TRF6vs+w25KkFummRTq1Xr0kp70xk16OiJVokJzTTESroSL8HhtVKjEfCZOOrM8vpa7f6BKFGqPTRL2/w60bN5hcWCOWVAj46h/PT04I8+oDnD8WL79SrhGIFggmqjLPQ7HcJBgrEs7UZO6H89e/ti/sSM+JLV47f+4HIVv8YAL2D1rx96tcKPAbxRz6o0OW5hcx2jxU6s1zCF7u3SsxAr7pFfZ7g29yQwhCiqQtQi/X7g4u+PC96V7lt3eHgMS+1SSfSpOIxanWW/IP8d3V8HGXdGUJKF68MC8T33I8u3D8cb+0y9Y6mfGpLwI6vck07rI97cXnubIEvAjD9z8SfD0l7fe/R7lSQeDbEFAI+G3IvOH34XAscws2Wl0GwrvhDdf82T+9l0Jfb9WPVM3rFSu/XEDg0hJQ2GmKKNXCEDqWqVPr/LDcEBdQenEg4mvmCnWiqTLNztuV4sIbXJjAeaMlQukqjbfkpxDJORu5FIWwl3w0SKNUoluvSS+EVqUqp2ivEmfc79HIpaml07QqtddCUIjQ8Z1KkUoiRrvWoNts0CikyQU9FGNxmZtdJOVUtg+DwKUlYKnYwGCIsLTpZkcXI5RrIbLcik2u/0QG3JFwyxnJRf+p3+BYxi8RrkwykK4MVXG6L0a/Wq0tQ9Sb3Wkqja68RpQhBDjiW5QhrETE/SIWZ73R4tAYYXrbzao2RKrcpi+uExlk35AZVph1pSwq7GtT2LeWSXjc5PwuUnYLUYuNRrXxjYpCPsdoSLuYIXy0jWdrk6jFTk+kez7rS0L9UskhUlg7VxZJON3kI0GSdi22pUnce3tko5lzcUPPblS+fywELi0BC4U6Kk2Q2RWHVHpbAiUyxaZ0MxI+d5Vqm1iyjDuQwx0pUai0KJYaMge8yZMlkKhSLrdw+nK4ggWS+SbhWBGtLcWBNU2t3afe6BCKFlBbhNdElUKpSTCQw+TM4JR6vho7Wj/P1uwsHPpJFBsUyyUSsQi5fJ7OK1mEutUicf0u5oXHmFZmCVlN+A/XMS9MoptbJJ/McV5/3WuUybnNmKcecnT7a0yLCxTTWfknIDrQsN8h77fjXJlFdecrzMuL+NVHhPWHMvK1Y2OTdDBJ75Vc9z9W51PqgUtLQEGyWOKUYE5/DnewgMufwxcuEIwWcXnT7KoCzK67mNv1S0NqvTnK3IqduS0vu/ooVmeSpW0PO7ookXRN5po4FrachoR0P4olihxogkyvu9nVRtCYYqysOXm65GRFFSYQL+OP5nGFcniiJaqtNum0yA1hIRyN0mhezA0hQgZWk2HSbhtpv4tyJknaacC9s4ppdZVcPMtg8M34JhOjRDX7qO9/xebv/56je7eJe4L0un3Zt4WCO25SY5i4y86133Bw+yucu9tkwyFpySKsZBqluozgppDhwyBwaQkouulZWId2p0cqVUYQ7FAXlm5GRxo/D2eMfHLrmM+emZhcc7K86eLZgpWlPT97+igqYRkzb2ZpzyctXwShjfYke7ooyWwVhzvJ2o6b2Q2X9HAQo+3jaSN3ZyzSW8IVKtLunOZlkG0ZDchlU7icDqLx5Os2j0IVMhoxGg1PQzWMR7TyCRI2Pa6jA/KJLL2uENWfkrCWjOHfWePw5h/Z/P0vUd2/Q9jmod0ULkgn9BoVQqptNA+us33tE/ZuXMNzpKLZ6Ml8GchEoKeqmLEIVXje2fDD9McrV+ulJeD5Nym8ARq1FmZLmI19D2v7XtS6ADee6vmr3x/w60dmHq+42DkOSefZfKVNrdmVngxLG3bmN10Y3DmSuTqeYB61MYo/nMPiTHCsD2G0J9g88rO45WJHHURjiWFxi6xMBanYP2vLaWDeBsVCgZp0sH2ZNOXsmovfJ7SyUWKGI+ybG2QjSZlkZtBp0Ws2KAXceNfm2P3sE/Zvfol1fY2kP0ijXKbXqtPMp/FvLKC6+Tk7X32BYW6GmMNFuy28Hk5JLL573Q6NRkOOyOKPQtl+PASuBAEFnL1uD5crzo7Kx7Y6hC+Ylb54v7un5et5N8sHQfTWBF5Bmv6QwXBINJJjZtnK02U7+6YEZleG53t+7s7ZOTQnUJuibO57mVl3ybwSu7owRkcCpy+DO5gjECtdMGsbjwdkM0mcDjtREapBjlTf/rKFw23ersX69Bb7n/2OkN5IKZWkkoyQ8XnJ+90kTCpUt77g8PYN7JtbFBMJ8uEAWb+HQjhMQn+IdeYBu1/+EfPyMulAmOE5lwox2ubScQwGPWq9iXytc8Hp99tbp5x5FwhcGQIKqWMiUcDmSWP352UkbKc3LfMFrhzHMDqzhGMlEpmajIwtVQjxIqu7wlUpgMGdxWBPMrPp5asZB4eWDBZXBpU2zDMxehpieCJFIokS0WSFWKoqja2FRPRsE7khkokoJpOBQDBMvfHdNo/jfpes6Rjrwxsc/fG3hHU6ivEoxVhAJlMpJ+PUMzE8G0vYni8R0hloVcsUwj5SLjuFWEKuKRPCY336KQG1lkq2cNYc+S1GP6dFy8TEUx5PLxARkcFfNvnCtcrBu0fgyhBQTLU6vb6092y1BzIKl0jiGUtW8UQqpAstWu0+vd5InhPeDfV6h0iiIr0hqs2e9G7wRctY/EWShdO4LyL4UzhZo1DpyNFO+AXKeDHdIb3+6MK6SkyF260m5XKJRvPtuSFORkNa2RQFl52M2Sh1fSL3g/BYaFVrMgLZaNA7zQWRStEsVxH3iDzyrWpFesMP+106lQLlaIim0CV+k6rstDO16xVUWyvcuX2bx9OLZKotFP69e6J9W4lXhoACgFdDC4o4KEKH1+oOpe7ufNhBQVih++v2hnJEFGujwXB06njbGUi3IZH2SxBVEE1M607N1F7UI+1MX4VdhDYcIby/36QHfPVqUeCo32fQbtFvNuW+ENKIMsT36TruRLoIjQYD+ZsoQ3gYCPtKGZZQpFQRoQV7vRf3nK/lRJLZ57Ci0+qxu/10XyHo+auV/XePwJUi4LuH7ydeoviT6feoVspUKzXa7Ys563/iT/eTaL5CwJ/Ea1IaeVkRUAh4Wd+s8lw/CQQuLQGFx7pY04k1mvgW6i0hkRQBeYWg5MdQd4k1mrAJlXX2ht8r9uVZbkHZbrGOfEs3Gg8HtGtl6uUizXqNQa9Lq1qkXsrTabW+WRe+pRjl9AdC4NISUKgRhBRT5IaoNHq0eyPKlbbMkJvKNemd04W9K+wF4YSw5sygRHgZlMsNGVcmVRDG4K97HYh7ToUpyD+LVrMnM/kWym1pb/pduSGEtUu3WSVi1+IxHhPxuWlW8kQcWlzaHeLhIN3uG3L4vasHVsr5sxG4tAQsFZvSG2J508O+IUE41yKdqxGOl6ThdPcNodAFccYvpJlnyMoRSYykZ0ORuOZs/8VFZyOdzLKbqVJq9OgPRZ6Fs9wQBcKpmgy0K2954X0vJLDiTyJfaEg/w6YI6uRKsbnrY2U/iDlYotZ+YS0j63y14hH1YhrL3gLG/TVCXhedRgW/YRf1ygR2vZZG/S156M8eVPn+IAhcWgIKb4hjTZCZFQcb6giuaAWbO4PRmcYeKspoZslMBacvizdckvkdRF6IUKREJCX0eu3T3A6hAiZ3Dme4QrbQJCmMsmMVyo0+1XqHbK4m74+lqzLltcmdJJZv0uiO6bR62F0pNNYknnhV6iBLpSaBSJFEriH/DHTmmFTk75tTeGNl7LY4K5tuFrd9GHxFsvmyjJmZSWdpdXoXyC90foKA1qMVnIYjsqkEQi8Y95gx761g12uo1WofpGMplX4/BC4tAYWrkDA3M9gTOPx5wokKh9qw9GzQe3Mk0iV2jrzcfKbnwaKDQ2MckyPJyrZXmqVp7Wki0QIzz+18PWnm6YafY2NMZlua2fBKZbxwZdIYI9I6RmNL4g7lUJmiBDMN6QAswhjuaUKsHoexx6qUyg3sjiTz626OrWmOTTEml238q9/ucW3OhcadJxYv4XClsLizRLJN0skEAbcDs8UmE7Wcn8WKPA6Ncg6vVU0s6KHZbMi3Xs4kCNqN+OxWmdTl+3UF5aoPgcClJaBQQgsBSLc/OM3/3u7h9mcwOpJYPBm8vjQzz6388qt9fnNfy8KOFxGEd2bVwc1pC89WnBzpQjyYMXFr0sjkmovJ53a+emrgdw8MzO8E2NOE2VX5ZSh6gzOFL1pAa48TKzQRU9xhr4/bm0Rri2OLlImnyqj1ISae29C6MjgCeTTmOA+WnBxa0+RrvW+cecX0VCj+65USyXiUUChCrdHhvPP6GQF9lmNiARfNxuloV0rHCNgM+GwWaWT9ITqWUuf3Q+DSEvDVxxcmWP5gVnoqHJlimKxxFjecfPVUx1dTRiZW7HI0+uyBhl/eUvPVpJGVHSefP9Bwa8rM2lGAJ/NmPrl5zM+/1jK7dxpq/lgXYPK5jR1tGL0zxZ4+LMmWq/Xodnr4/SlptH3syMgpqt4cYWrZwpomIjMsOXxZVvb8WH156p3Xo4K16lVy6RSJhHBf6n47AYMvCHgCgoBiBPQ7rHIK2pMCqTqdbk967r+KjXL84RC4MgQULjgi18Pyno/ZbR8qQ4wDMT3c87K062Fu3cndKSO/+OqQX97RcHPWzNKGjV/fUHF9wsyuPsbihoPPH+r51T0jW8akjKZttIR5vGBh5cDPgXDIPfCxqo1j9JfIFuoYLVGeizpUEUKJElZHnLkVm0xHpndl8YeLrO/50NhSJEvtl8Ie2SdOaFRKpGJRwuHvGAGtauJBN83GqcCllI4TcpgIuOxUyiVyuSx2m5VQPC2TjX647qbU/CoCV4KAwghapArbOPRzfdLCtSk7e/qYnI6KNaLampBOumv7Ph4s2JhYd/F8z8PatoNPb6n49J6e2e0AKn1EjlZP17xohGDGn0VnDDOx6uLYksTuz8lw97cXnEzuBLF6szIRy80ZG3dWvFj9OfTWGPMbLtY0MQLxCplslbUdL/O7AbTeAr1zc0zhP1jMJHE7rJjMlm9ZA2bxWlRyCtqo16SvbjEVJeQwEnQ7KOWzOOwmHj+6y/M9LcFU6dU+oBx/QASuBgFPTqSdoz9SRGPPoHHkiKZqMn1YodwiV2qRKzRIpKt4wkWC8RIub4qNHSd/d+2An18/5tm6D0+4RDghrimRLIj7mqTSVdyhoow3U6l1ZHh7MbJJj4lcHVeggN6ZxeQvkhbZd7Mi+26RaKZBvdWXWXaFG5Q7XCKaE8lXXqoahHqj3axTyGVJZzK0Ov2LI+R4SL2QxLQ9i2FvlbDX/UINsYdufQanSU8yEkJ9uMf1a1+wpTKSKipqiQ/It9eqvhIEFOYkwhpGREDr9k8/IorZmcL8PCqnivQxlUoDoznC7UkTN6atbOsTMnmmiJbW74vIZ+PTSGijsfSaOCtDWLAIjwLxEUKU3mAkvSXk9WeR2IYX65ZtG45llLXX2vQiELAYxV9S86y2Mc1yFtv+IrrtZbxWE41SFo96Hd3aFD6HjXQ0gtVoYGFuAW8wSqv3Ni/8s7KV7x8DgatBwD8BSUGkRrNLIl0jmW1QbYrEka9T4E8o+p3eMhz0qBXSlDJJqqUi/U6LWl4cx2nWq3TbLZr1BuVShX5/8AYSv9PmKIX9QAQUAn4HYGIKKHwCxecj5J5suWjjaCjyKgxkvFExUopjkUZM+A3KkVOYx32sD/Ad+F+FUwoBL9lbFoRUtp8OAleagKKz/jkd9ux+0ec/XLc/9Xjvd9vSu12kmBbTzn6v98Y17k+na16Nll5aAorAvNFYCbsnizdaodjsXyCJCF4rwgaqbWmC6SatVyIRiSldtdam3hY521/3YhDdI5erSftSgzdPstii0x/S7onwFkNphdPqDEToze+9CWOBbKaK25/DGSiQyL/Zg+J8gSL6dSHmJWDV4LVoyUb9+C0a/DYj5XKN4flQ2udvVPY/CgQuLQGLxQZafVjaXW7r4oTzLRmjU/jmVepdSpUWWluCpf0AaleRYv00VqYQ9Xe6fSkFDUdyMtJZqniaNFIIZoSJmChjPByTSJQ40oVZPg5jCeRJ5utE0zXyxTr5Qo1YqkKp1pVBmoQ0VJjHCTcpUYcgp/hNEESUJ3wVa7UOHldK6gWX9wKYAiWZg0Ks6Xq9HqM3SEJ77TpRuwaragunUU0uHsSl2cF8uEUinqDXO42S/VH0NqURryFwaQmYz9dRqU+9ITbVEfzJutTz2b05aQgdTFZw+DOozTGOHTnSxZYc8dyBPN5wEU8gi7ByWdn3obKmyJbaVKqt03wSwQLFaod8vobHn2ZHF0ZrT2D1pKVtp9OTwu1NYbAmcPhy+CIl6Y4k9ITpXBV3IIs7UpSEzZca+EIFYhkhba3hFgbhm27mhTeE/4U3RCEn9YDNTu+iHlDoCWtlgmY1fruZTDqFmIomgw7cpiPCfi+dtoiSrWwfKwKXloDd7mkqMaFGSOXqxNMV9tV+vnyi51d3deyakvijRcLxApbAab4IqyPB4wWrtGx5vu9jfd/Nl4913Jm3cWBJ4PQkWdlx89WkSeaHiKUrFIsVTK4Udl8OhyfLkTaExhTFZE9gtsfZ3PPwbNnOg2UXx+YEW4d+HswYebbuYlsT4kAd5M60mQ1NhEimTqPeIZ2tkcjWKTd60sXI47BhMAlLmPqFoLnDXodSMoJlfwOvzUJZhCU8GZOP+XDrdnHoj6mUFMuXj5V8ol2XloBCQCKmjCIUocgHn06VWFyz8ptbKn770IBYt2UKdbKFKq5IEac/gzCUXtx0M7fpYmHbzeKOm6k1B/PbHrY1QfaP/dyfNvL3N495uuUnmCjJOJ/uYJZQvCyTtxwde1nf93Ggj+Bwp1jZcPDlIy2f3NdJG9TlHS+za0529FH0tjhHmoC0QX1+GCSYrkl1h2y79Kw/oVEtkYy98IZodi6MgP12nUzQiWZlHpfJSLV66o4k1oQO1TqGvQ3y2Sw/YBn6MffVS9m2S0vA829r2B+QTBSYWTJz/YmeiU0fiUJDGkt7Q3npGqR3JDE7EpgdKTTGMNsqHyuHPrlOtDiTaAwhnm87uTmh59P7Wp5s+HCF8xSKFTS2BIF4CZEtSXXsYWbNwfpREI8/y/NNlxxFf/NQx8SGl0NTAl+kSKPTo1Zr4vOn5Ki6rQnjjVUYvsKW4aAvp5GtZkta8pzXMvTbDTIhF5rVeVxGA5WKcEc6IR/14FBtYDzYIpfNSC8IoYxXvCHO94qPY/9KEFAErU3G8tx5ouVvPj/g0ycWTJ4M26ogNyfNfDHtYOUwyO5xgHvTJh4vO1ja9cnp4p1pE48WbWyqAsytWvn01hF//fkBT0WoC32Y1X0vv7ilZeEwgiOUR633M7XmZPUoiD+U5e6EgZ99tscv7mqZ2fWjtacIxysykG+r2cZii/LFAw135mxonVkG5xTmp8bYCdx2KwajhVypzrlI9zLgUqNcxG/SEvF6qFaFnecJhWSYkMNA1O+hUSkSjwTY3tpAb/OSLp2Okh9H91NacSUI2O/2iYSy3HuqkwT85V29XHNtHYdZ2PYztxfBKLwbfFk2DgPsG+NYvTn8wRzrBwG2NRGcwTx2V1JmQZrZ8mL0ZKQ70qEhyr0lNwfWDNFsg0i8iNmdwRUqUCjXZTq02U0PK0JS6s9LKWmxcioYEaqQUCTP8q6PXZHFN1m7MMUUU9FqMUc44MPl9lKutV4bITv1KkGzBo/FIKeq3XadmMeCx6giGYtQLaQx6464eeM6K/taItmK0us/IgSuBAFFR4+Gc8wuW/njfS2fT5hZ18ZwhUuICGmpvEhH1qfZ7p9GUat3aXUHSEFOsXUaH0bo93oD6o0uxUpLqhLqzS5ZEUcmWSdX7kpdolAttMW9fRGGcIy4plRtS9WHKFOEsRcG3WITKghhbypizQjViDDYfnUb9Hu0mg0ZWkKoKl5V+IuoaCGLCpt6F4/NSCkbx6s/wH68SyqZoJCOoT3c4ebXX7GrMZMuKyPgqxh/yOMrQUCRR6FabnCsDTG16mZuL0QoU5dK8zOBhxDWiP3TGKKnoQW/OX4RalBavLy4Rpw7Oy/yQoj7Ts+LHPSnH/Fiz645Lf/FuXNv/ML5c7+f7Z7VI7/Pfjz3PRr2KKdDhJ16fDYd6WiAgM1IxOOk2WpRKWTxOe0cq7SkcwUG32JUcK5IZfdHROBKEFCsi4QCvFBsSj/AeLYh44T+iDi/t6rEOnHQbdGoFqiWcogQFjURpLdWk1LgfrdDvVqlJLwhBoor0nt7EX9iwVeEgH8iOsptCgLvGQGFgO8ZYKV4BYHvQuDKEPBV4cV3gfLuzp1Ofbu9U6GMWCf+GNto2KfXadJuNuS083XRzo/RCqWO74PApSVgrztAGGSLOC+ZgohU/cO9wcW6sVRpI/I0NNqD15xyv0mk8o3Lg7C+GX1jgSOcYWvVFpl8jWypJZN6fp+X8s01JyeIAMOpbI1IqipzXAy+iZH/zVUXd07G1EtpUiEPsYCfRqOpWMJcROijOrq0BCwUGqhFoN0VpwxNH8w26b1qZvIdr0KQL5etcKANywhq/mSN/iv3C5cnkddBBHYSHg293oBCUZCtiUhpPegPiccK2NxpnOESze7rcT9FE85LQs83SRgQeINplnZdPFiyYQvk5R/B+Wte3R8Pu8RcOgzbCxgOdqXw5dVrlOOPB4HLTUBdiDlh9KyNEkhWSaar0golGK9Kz4d4siz9BZ1BoQ9skM7VsXuzMjKaJ5BDpw/ydMnOymGIWKZBtdqSuSCEJYsYFa3OlAwx+HDFIz0mLO4Us6t2Hq262TYmSecaWFwpdI4U3mRN1plMlDHb09JHUeSfEDnmLc40WmcGu8xRUScQKxOKVyiWm7iDKVYOPDxatuMKFimVqxSLWaLxJOVK7aLT7cmYUa9B3GvBoT0k4PYgrG2U7eNF4NISUCi4Q5ECVk8Gf7REJl/H7kywuudndsuH1ZvmUBeSBHp+kpIE+QAAIABJREFUEOTYHOfYGGV2w83KQYBddYi9Qy/PluwIdyYRxlCEs9868DOx4kZtTSHiiN6cMPLJAxNLh0H2tCGuPdTwyQMDEztBwokyGnOMI2sCZ7xCMlVGow3zZM7KylFEWtsIg+0nC1buLztZOAqhtcZZO/Czo40Sy9ZJ5Su4Q1l09hS5YotyqUgk4sdsd5LM5C9Mi8fDPo1iAr9FjdOoJZcrSfXLx9v9lJZdWgKKaZ3whpCRzMZj2o0Wak2ALx/p+Nv/n733bI7kStI1P+1P2d+23/eO2b09O6KnexRnmt1siqKoIllaAFXQWicygcxEaq211lqLZ81PFkigSJTg9EyTxQwzGDLUiQiP8Dgn3P193891LO57eL7r4tGanee7bhZ3nDzZtHN/1c6TLTc7pyEu7EkOtEG0prhy5I09lyLq/d9/1HBvw8P6cYDVAx8PhajXIYIqKZ5u2Pl23cPuRYpMoY7JFuP4IoreK3ClDNv7Hr54cMHTLa+qL9088PDhHR2fPjHzbNfL9rGPuy8sLO56CWebCrQrj+nopZxau1kjHg/j9PrJFkvXKmOG/Q6ZoEUNP02aQ0rVpqo5nT/mP18LvLcOeNXkk9GIYr7KljjQbR2//VzL0203R4Yw59YYuosQq4celg+9nNkTHOrD6KwJ/PEydk+K4/MgC1tOPn9k5N/vnPPhQws7hhQmZwarM4XemVHEvOVqA4MlzIk5gTcuNIADksk8Nk+SC28Whz/LhS3ByXmEM0uMo7OA0on44M4Zz6RX9hcIR/McaHys7XsweQs02teT58NBj3q9SqFUptXuXBuCCj1FIe7CqtnCqjtR36PC6Daffr4W+FU4oPC7ZNIlnq/b+PcvtfzLnXOW9j0zzYYDL7u6IFsaPyuiEXHgY10TRGtN4Arl2dMGeL7j4umWi0erNj59ZOLPT+wc2/IEomU1LN3VRVSQJVNs4vEm2NOF0VrTZAoNDNaYanfhMMi5M4U7lMcXyuMJZjk9D3B/8YK//0TD3Q0vF948oXCOzX03T9YdaG1Zqs3rlBKddpN0KkEgHKVYrl5zwMl4QLOcJGDR4TLqyWVLipvm5/v4zc/sV+GAqgcs1Njad/PlUzNfLdk5Og+qod5/fqPn2X6AQ2OE5QMP//LVGQ+3fehsgg9McG/ZzsNND+fONHZXUmk9fL7gQOMskMjUCAWzSk9i4yyOM1whEMiytOPl2bYPgzPDkw03f3po5s+LTk7tKcKJMol0lUi8yLkxxL1nRv7fDw7497smlk5CCk0vzvdw3Y3JV6LZuR45rZYLOOxWTs4MhOOpaw7IdMKo1yDpt+M1GUiE4/S6vflT/jO2wK/CAeUpneX02koJV+georG8EmQ5MEiwo0UwXsJgT7BvjBNO15Vug8hHJ7ISCGl9p+NQKreJZxuUmn16/RHdTl9xueRE0709pNsZkC8KwqJFpdYjlW8qmFEk06TS7NHtS7piRKfTw+9L82LNyu8/O+XD+yZWTyMKFZ/MNxTKQnKPr7JxDwcDGo065UpVtXEVoCs1r+NBh5jLgPlwA4f+nHptrpD7M/a/95eS4nVGlwR6o95SPZE4mOT3RN89ka2SLDSVfoTa/6WmxPWH/GXe7kr4Q+XxFDri5VFlv0tkxWQ6+/0D7tAppUKdC3OUR6supY5kCRRp9EbXIps/dh0KGaEgFz9cO50MKSQCBCxnSiuiVqtdOdMfbj9f8te1wHvZA84S2xNFA3iTeUfDGb2g9GKyvajpCh2hog981eNuauS/uHw4GCJa9jZPnqDkJlvXv/d+avP9TpNaMUsxm6LT7rzRoX/qceb7/dct8N454MyZBopHczgcKuf6UTNdqg69LM9UHcrVXuxHd/rLLrx8UQjQVtSapNf8S0yzdseKskJ+z6efrwXeSwcUEttOp6OcUMhw59N/zQLKoWVI/d/4gpL3hNyq8ViG77M/9XsyAzH/167g57v3e+mAvV5POaD8/6kOKA+dJPJliCp/0ktJAEWxWveEbuKv1LO8/C4VWosfaBxOUcxpQq3R6g4Zj2eaiFKnKgGdn4qGF53DZruv/oRS402T2EYYxIWaQ4b0b7TVFJrNKdnchExhilTPtbtTUpnZfKP9piP+ctfPHfCGeyffiJVKU+k0eMJFJDIZSZSx+/PYgkIr+O7oihsO9U6LRWS0Vuuo0rh8pXOtwFxeGKVyC4snh8VXpNzoq3l/pMi5M0e+1mP8NkNStc33L5hWq0coWiQQLytG8DedcL3ZVVHlC3dmFlHuXC8meHX/6WiKxzNmZXvIumZMJD0lmZ6wuD5iaX+MPfhj4qSvtvLLnJ874A33rdftEwnnWNp0sbLvx+wvqELtI0NMoSuKta4ibWo2e+TLHVrd0az3aXUVCVO9PVBy0+32QKUU4rkm5YakIUaq55LeS0RcWoKoKLdVAEaisWOp2im3SeZalOp92p0B0kal3kNwhel0Be15iBf7fsVnWhDCJ0X61KfS6JEv1jk0RNnSRQmlG6SzVcXSvXTgJ5hp0BVlX4FZ1bqqykbQTeK4Qh5VKLcU4VQgVMDiyuCKVijUuqqgQBAdIs0tlPwCs6rUOpTrXYXwGI5GL8mqOkrzIpYuc6gP8s2SGY0lhWhr9Po9Wq0m3W73elRWeu3eFKd7zMbhiBPrhHx1SqU6Zf90xNLBCINnfI0t7oZb9otcPHfAG26bOGA0kmdly8XqQQBbqKQqX6QudEcbYvbgtwlHCopy3herqHyg25PizJrEFigqNrVgpMipKc66NsKFL08i36DW6FCpdyhXWwgiQ29N4ggWSRWalEt1jNYkO9qY0rIPxsr4QkUMjozqVYy2OC827Szs+dC70kRTZVUOJ+sdoTL5UpMzW5w9fQR3rKrQG25vmvUDL4FkTTlpLlfj3DY7Zr7apVhq4g7kMdhTeIJ51ve83Fmw8mgvhD1cxh8roTXHcUr75Q6NRhuTI6kKDfzxKqlsFZs7jdaUUCgPb7SA5iLEvWWLUp9K5RsUSwVCkTCZXP5aVFY62157ii84RmcZ4UtO6Qyg3wd3YMy+foTJK0GqG27UL3zx3AFvuIHSK7TbPVLZmkreS4/WbPWJxEvYPGlq7T65XJVzg2g7mFk69LF3FuTpCzNfPrHwdMfHhTPF9rGX289M/Mc9PY/2vJw5koRjBfzhAoFwHos9zsMlG892PBwaY5htMR4t2/jzvQu+XfEo9IZAqj5/YubFrocNTYBDU5xivUuz0SEYyPB01cbtBSurJxGy5TaJTAVfJE8wWaPZ7FIq1nB6kkipXDxVRacP8fnjCx5uutFak+hNUdYO/LzY86sCdEFn/PsdPR8/96D35LEHcmyeBNC784SSFULhDI9XbNxbsbMuvKkaP/eem/n04QWrmgjBVFVxmErFT705oN5oKgSHVq/H4w+qHvfS7MoBWxNC0TFmz4hYforAJgdDCCcnnFpH2AICcr7c4/36P3fAG+6nPBgSwJHgiwQ8JJDQ6fQV8a7Ll6XV6ROPF5X2w+9vnfLRUzPP9jxs7s+cZlcb5ugsyIMlC588MPDFgpkNbRCjM4nLl1FOLGIwh6d+Prxzxp8emXiw5Wbr0MOdZxfcenzBwpaHB0s2Pvxaz9/+WcutJ2YW9rxo7GlavSG1aguXK6kYvbc1AU7McfzJKuFkmVC8pL6/Wq0+lXIDr1/gTE08viyPX1j4249OlEiNOL4IxujtabyxKtl8nTNTVCE9ztwF8tWe2k9o+53BPN5wDpcnwYkhwsFZmH1hDN9y8mLbxdqRn93zKLGsgJfHynYSqxoOB9RqZZLpNMVy5Vq65TsHjIwxuUdEc1N6w5cOGJ9wahljC4j9b7hRv/DFcwd8yxsofC65Qp1za4IdbZh4pqZqQx+/MPO//3jEv9w18Hjfy5k5pkQ7zY4Ue8debj008NF9g+ptdJYYZ6YIO8c+dk6DynFWtp389pMT/vVbPbdXbCys27j10MjtRSt7uhCPl6188NUZv/n0jG9WHCwdeNnShvBEy2q4aDBHOdAF2dMF0ZhjWAMiv5bgxBTnwlcklWvgD+XZPQ3iDhUwWhPcXzDxf/6k4d++vZhBoI586KwpfMk69UaXQDCL3hLHHChRqPWUU+rNUTTmOOfWOCZrVDmgYCb3ToOs7HnQGCNYPGlVxJ7MN68Fe0YjeVlUSKUzlCrVHzhg97IHdI+IFab0R+K0EElM0Nkm2INjBv0BlXKRUrFIu9NVPKxveet+1pvNHfAtb48ETJy+DA/WHPzxoZljc5Kj8zAPnpv5x880fLJoYeM8jM2bJhgr4vZnOTjx8udvz/ngawN3N70KnLt94OGL+3puP7fxfMfN8y0H//zFKZ88M/Fkx8WzVQsf3jnn08dWRZG/c+JT2hSfLDg4sSQ41ofUkPPxjpedsxAn+qAaDt5dcbByEsLqzbKw7eaLRRsvNDHM7ix72iB/um9kTRtFa4mrF8PHD81KYEbrSHOkC7Cw5Wb5OEw8V8cfyCoc5KMdP0Z3DqM9pUDDd1ZcrJ6E1JD1wZKVu0t2Vo4DaE0xnP4M3nBeUfanSy2uctd0O20i4QDa8x8fgnZaE8LRMVbviETxeweMpSboneAMjmhUS5yfHHJyeEQ0nnpvOE7nDvi2DjgY4Y8UlIjLo50AJl8BT6iI9HSbmhA6e5pgsqIUl0TDIZ0pYzAE+ezbc/7h4xM+uHvB1llEIe9PDVF0tjSuYAFPIMe2NozWklAYwYVVK7//VMM/3dLxeMeHyZnG6EizpYspjGEsVVGyZweGOBZfnkiyjN4cR2tJYvULQqPK4XmU53sBjqwZnMFZkOjRlo9ja4ZAvEI8WUYgVMfWNN5kjViirAJBotyUKXdUUMYfKrCvj2P155XWxdZJiOWTKHpnTomU6i5inJoSOEIlxTZQLLfIlZpKdFS+l6/m/gb9HrmsiJb6SaQz19bNgjAT3N4R+2dDzMExtfaUVmuKwTZi+xz0zh7ZRICn9+5w/9597J4gvfdE+XfugG/pgJI2EE2IYKKKO1ohW+5Qa/YQ1Vvhk5HwvJKdHoxmmg+NNgF/iocvLHxw+4w/P7GidWSJZRsqzSDbS3JbvtEyhaZqO5Eqs3Po4Y/fnPMf3xhVjyTF4pIyEEoMEeyU5LYEVhKZBsWqHHNAodQiX26rNIcQRcWFPiNaIZ5vka+0FaLDHako1IdoYAh5VDJbJ1loUW6JJPdQtSEokWZ3pm8vGhjxTF0BjeX8hKMmkKir6+50BfHRJCeqwq2BSr8I2kTakWIF+WYWx7qchCmu02lRrVZpttrXoqCSkxj1p7g8Y9YOhhyYxmRKUwqlKVtHI1Y1oHc0SYRsPH92n+dLKwSjaZXCuWz/l/x/7oD/TXdPHrpKua405Jf3/ewZE6RLHZUbvOmQnXYPpzvF6oGf1ZOwcvTODUxqN7Xxi1w+gUh0wpFuxLFpQjIPmfyUnZMxJ2bwhhtkEx4sFiMuX4BGuz//Bnz1RhtrY/4fR4//a7XB/71d40/ehmRY4R1YKWflX/K27Ki/1xZTv3oCL+eljb9EKdoNzb/TYnHCVntArSFlXLOe4XUNSKBHFJnqzR71Vl/Boq72JK/b95e+TvJ+9eaUegtkdDkYQK0+RcrQev0xQsXR7Xbo9d8f55N7Nu8Bf+lP7vz8f9EWmDvgL/r2/c+cvPTCglRQfy+l1y7nfy099H+XpecO+FrLXqLZX0JxXrvtL2fldw51RcfwdWc/HEyp1SYUKlNqTRCamUJ5SrEypdWd6SK+bv/5upstMHfAG2wj6rVSaRIIF/BFSgjny/AdX/eT8YRud0j3rwlfeuX6VEF3vq4ktwPC8N3oX49KvrK9RCmL+Ql64wiNcYwvOqFcnaLVjzk6G+MOTxhc5416tYX5/GssMHfAG4zT6w6IRvNs7HlYOwyoouR6d6j4Y64hGl7i3i5R7UJtociaekNare5MHKbQUgEVCbKIYysdiZcoeJmfSVq/RMVPJvR6IyWXLRFQCenLfpd/sr1g7eQYlyh6mZcUSPvl9nIul1LY3x9zhmGUVIrJleTZrpPN8wjeVJ1Of8hoJGiOHzIITMcQjUxYWh3yYmeEzS+Qpylr2yMeLo04Mozp9G8w4nzxGy0wd8AbTNTtDgiFcrzYcLK068PiLxJP13AFCujtWTLFNrnCrMzrRKEAKkpbwuvPYLCnFSZP8IMXtiTuoBDsimTYgESygsGWxBOtkM43SGUqnJoTCj0hbdarLS5sktyPoLFmiGYbVCUq2ujOlJKyVaQW9cKVVXk8ySW6vFl2z+Psm9JEM3X84aJCN0QyDUU2lUpXMdhShFINIqkaF444jzasrGrDOONS/5knHo8SSyTpDq7r0I9HU1LpCaf6MXbfmFJNgMrgD4zRGcZc2AWofIMR54vfaIG5A95gotFwTKXSwhss4I+WyRRbJJMlTs7DiutTqkZE92Hv1M/DdSe7ujA6UxShr3+25WbtOIjBJnoTcbzhkkKo9zs9vL4MKzsuVo6CnBhjaAwhvn5uZflICrXTON1JVnbdCt1wb92tRFvCqSpSARNPl3H705zoQyxsezk2xhXb9q7Gx7fLNr5ZdXJ8EWNt38vitpvd8xhSRH1qCLO44505ealFrljHFcwpwZpctU06ncTtduL2+Wn1h9cSR+KAmewEvWU2/Ky3Z/RuicQEk3WMxTGmN3fAG56iNy+eO+ANNpoFKqZqmKcoFvpDwqEMzzfs/OfX59xfc7J26GPz2MvTTScvdt2s7LqQUrKnG06W970KKXBiiOGLlBUlRKPWwnAR5ouHej56YOLRupP1Qw9fv7DyfM+jCqo3D9x8/eyCTx4Yubvq4OgihtmTweJOY/Ok0BpDSoHpo/sX3FtxsnHs4+GKhVtPjHy5aGZ5380n9/X8++1zvllzs3caQPQn7i/blX5FoSpqSbPrEqSCDD1LxRzBYIBQJEpnMPpRBzRYx3gjE2qtqfD/Eo+PMVnGWJ3SA0rZiwRjpALmSgnMDbadL/7eAnMH/N4Wr/3V7fTQG0P8+Zsz/td/HvLJEwvburByDKMtwb7Wz+aRh0NdiDOT6E1E2DvxsX0SwuzKky22icULLG85+Ps/HvJ3n+m4u+ZWtaEX7hRWd4JTQ4BHS2Y+vK3j1mOTwgfq7Qm05hj7uhCnxjCrO04++eacv/tUy6dPLSxsu/jk/jm3npp5LL3eiYd//ULL3/zxlK/WfZzbBe8XUS+OHV2YcLp27TrFaTqdtioTq9brijfmqgtd9oAGyxhv+HsHjMUuHXBCpytlaG0ajQaDgQiZXm3h2uHmM69YYO6ArxjkplkJqJzoAvz57hl//9kp99acrB76WD0Q7T4n68d+djV+Hi/beLTmYvMkhMES48WWhycbXrZ0cc4tMZ6t2fjnz0744Fsjz/f9WBTVQwFfKIv+IsTD5yY++ErHZ08sHF7EFfphYcvBrScm1o99Cnv32V09H3yt55slO8+3XQpx8cljM092feiMYW4/NfOHeyYWT6LqBaEVeogFEy8OA/ji1WuXOB4NyWWSuFyXQ9Af9oBClmRyjAklJirtIA1k0mOcrilOz4Rmo43HZeP4+IRAPKvqU68dZD5zowXmDnijaa6v6Hb7qk5z/dDHkx0Pp+YYOxo/j9YcfL3i4vgiwbk5zjdPTTxY83BiSZNIVzg6i7Cw7WPpKMKFM43GEOH5tpu1kxBGV4ZYukK60CCTreJ0JXiyZOZfbp3ywTdGBS86NUXZ0QR4tO7mzDb77tw69LN2FGBfG2LrwKt6zH+9refrVTcXrjTH5xF2tBHOXHlCsRJWR1INiTXWlArcXL0yEa7JphLY7TYcbu+PfgNKEEajH2H2jMmVhcQYvJ4x50Yw28cUM1n2Npf56qs76O1Baq25HsVVG7/u99wBX2edK+tkqCY6EKVKe4Z+KNYVIPfgLILJX0JAqJFoka1DH1ZfgUpzoBD1hVKbUHyGJBBipVq9S77QVCgFKSqWFIJC3Q+GpFIlljds/P7TE/7hMy0Pt/wI50ql3lXETa3uQCEoypW2mk8IjEgf4sMvT/n/Pj7hkwUbtrCo/TbIFZok8i1q9Z5S4U1l6zPZ7Feg5bPa2a4aPjaaLUZS4nJlukxDLK8PWdofYQ9MKJenbO2OeL4BGsOARMDH+uIjvvjiDjZvhOY8L3HFgq//OXfA19vn2tpZsfgU4ckc9gcUy00F66m2hnS6Q2r1NtFURcGULmlDRZ9PionlT3g6JS83fsnpKb+//1ya0mp2VC8rwZ3V4xD2YFmlLy6PK9vOfs8oMrrtHol4ie3jAEsHATS2DKVGXzm0HFc4OSVXKPw2Qmcox/uxSdoU+g35+8EWkogvTDEYx2guZpHQUkUS8RM0BvCEBhTTcVxWE0ajhXKtoY75Y8eZL/uhBeYO+EObvN0SUVx6yXsiO8jDLfP9oZSF/OAxfqs2x1J9UxNSpRoJweZ1JKBx865CDyg8NYLtE8UmoUp8pYO7eed3WNPrQj43JZkVTOSUdmdKIj0llYVqfUy3VaderVCrNZQTv0PTv/pN5w74q38E5gb4a1pg7oB/TevPj/2jFpBe/3U9/4/u9AtdOHfAG26cfBcNByPFBdpo9VWJ1rs+FJPxVH0bSp5sOPrxsaRoFXbafUXiW6r3GAhV9Q2TbCtM2aVqV1FB9IfXAyaym3wnynD4r5mLk3pVocoQyo52b8joNdd0ean9/owNO52fUKzMhrqJ7IRac8r7LHM/d8DLJ+CV/4q+vdTA6cli9+VJFtv0hOtEPeTfO8llYOS7YMrLVRJoaTd7BCIl3KEy6WKHwUuH+X5vGPQGRMIFzmxpRSNY7/648Iu0L+ck34d6RwZ7qEqxLkiGqeJ4kSDLLOAzUpFSKfC+nC7P8XJe/ssL5rtzfjk/CwpdXz7b9obtLxWTZP8rjdeFMDhWxOCU+tMa9TdoQ8iupdIEh3uExjTCHRrjD485PBvhjU6oS/HOezrNHfCGGyuVL35fhkeLFh4uOzB4ClSEwKg/Ur2QlKdJ1FDSCE0ptFZRxomqBBHSo3q9o7Qlnq45+OKpleXjEKliW20nFIfSK0zGY6rlBifaAGvHIbTOPOVmT9FYCIxJoR3kOONZ5FSqTALRAlunQbYNyRnVfLWF0Z7EIcXi2SbJXBVvtEgsW1POKY4mktjC6i1OKr2oBHuaioxpNIvKTsZILy8kT0La1BtI9FSKrmfXKCOBdmdGCDVLU8x6YtGGKDf735HwKuWk6YR4usTmsZuPH5ypetRkscNwIkS9A4Qj9IfTlERyrHKNe+djQvEJidSEvZMRZ/YJieIP93hflswd8IY72e8NkDzbviaA5Pq80QqpjCARcujMScLCQB0vYXGl2NFFsPryhGMlRS0vRdZSFC0kvEJa+2TTxfKBH4ND6jkzWJ1ppQXhCeVVedkfvj7nyyUXh9Ys0WQZiyuN3pZC9CayxSbFSpt8SYRTWkSTJS6kwNqWRlSbhGX7kwcX3H7hYteQwBHIYHQn8cVK6gXRbXcJRYpojHHc4RLRZAWvUCGehpVug7BYJ1IlNMYYL/YDaKxpAskqhUpbaVdIqiWWLCvtB9Gf8McqFIoNzs0xNjRhtg0JfNEiDm+WC3saf7xCMFHE6Iir+ljJiWaKDbL5DB6/7we0hGL+yWhKODJzQINzPAP+1qYYLWNOzWP8CRlS33CjfuGL5w54ww2U3FmnM1C07IKhEzhQKJhhedvJxw8uWNeEFOHtiy0HHz80srjjUaVoT16Y+OLpBXeWrKwdeblwpbD7M+jMEZ7vulRJ2O3HJu5vuFk68PFg1c7ffHjMrSU3p44cDneSJ2t2bj02q9IxkyeLN1zAGcgpyvlUoUayUMMdKare0GCN84+fCsu1icWjECZPknNnAm+spIqjq6Uax7oAH901KL2KXV2ITaE+vKvn2zUnx+Y4J2cBPn9o5Lefaflm1aUIgL2RAsFoHncwi/YiogrAv3hmY+UwgNkR585TIx98fc7Hz2yqRO7+kpVPH1yweBhCgL61Zlexcrc6opzUJBz2oTk7U6xmoyveJMPgTnOmjnR8PsIXn9AdwLA/xe8fc6wfYfFMeAtZwhvu5M978dwBX3N/ZglqefWK0OWQYDDNEyHO/ULLl89tbGqDGOwzQt3dUz/rB27lhBpjmF2tj+dbdmz+LNF0Gas7xufP9Pz9J0f846en/OmJTZWaaS6iPNt2o3VkCKSqOJxx7i6a+bevzvjiuZ1jwQr6sphcaTyRAtFshUShhjNSIJmvky3UlVqTfBcKbCkYF3bqFIFkRV2ZOOD+iVcVaH/0yKS0JY6NEfbPguyfB9nTBljdsvPNgpk7z+3sakPo7Uls3gwuXxqTM6Go75+s2PjgjoGvFm3sagN8vWjm/qpd1cMubNj5j9s6/vbjU75YduGJV5Wc2CU573g8ot1uUa5UaLZa19EWY6krnbB3POTZxhB3fCbO0u9NcThGPF8fsXM6pt69/p35mtv2i1o1d8C3vF3C2XmmD/Dx3TN+89ExtxYsrJ8EEAfaPg2wceRT0KK1Aw9bGj/rh24WNqxKVehAajM1Pu4umfngtlaxXn+56uXEmsYXzqMzRwmnqyTzNQ6PPXx4W6uc9MvndvW9t3ni5/GmC40lgcmb4cyeYEUjlTJFcsUmGn1YSaQ5hGk7lGVHnMsQI5prYnclFMLiN3884oNv9coBDY4UNm+KC0eM/VMfDxaM/OlbPV8uOjDYk5waI2wcehS0SXrxpxsOPr17zu9unfH5Uwtr+x7+cOdMOePOWUTBnT66q+cfbp3xYC9EONe8ZlURZymXi0TjCfLF0rUIrVS+NeoTzPYRu6dDPLGJAvgOelO8XgnEjLlwzRR689kMuUyGZrP13iT85w547VG5YWY6VVJgJ1o/tx4Y+Lc7ehZEKuzEz/Keh3urTjY1QfZ1QR4tW3m04WJF5Mo0Xp6CT2YwAAAgAElEQVSsOXiw6lQin1KIvbTj5ounFp6fxHCEK0rwRRSHijVht26wd+hW6IY/3TMq0O7BWUghHkQZSeTLTs1xlvd9fLnk5MSWIZVrcm6MoNSYTEkcgawqvH646eHAkuboPMSjZQv/8qWO2y/s7OljeCJFwskS3lAWjT7I14/O+d2np/zhvhmdbaa29GzdzjfLVpYPPSxuu/j8gYFPHpl5tO5ibc/Fb/98rNi7lyR4ZIzwZN3JrQU7O6YMmUr3miF7vQ7JZBSz1U4oEr9GTa82nEyJJ8cYLCMc/oniB+22p7i9YyxeCKdHNGtFzjSHnBzNtSGuGfdy5n0n5h0OhsTjJYVwF6SBDNEOz4I8XnfwcMeHwZVRSrTfPjOxuB/A4M4RT5Q5Pouyq4thC5ap1TtEYyWOzqIcmTMEU/WZMm2pSbs3UJHGcLjA0XmUI0OcQKyKCHwabSmFbvBGSkqld/c0wrP9EEZvkUKlQyxWVEEbCaCEUxUlCLp6FGLHlEJ6Ras7rRSd9K6MSgsUqx1FVZHN17A6EtxfvOB3n2n4/VfnvDgMojHFFU7x8EKctYAvXEB7EVfL5Xtw98jNv97S8I+faflqyYnemVKqUQf6OHpPkUL9OkS+3++RFciTx0ssmb6mnKSen+mUaGyM5nyE1jwmW5iqtMTp+QiDWxywRz4Z4P7tW9z56jZWp4/uewLDn/eAl2+QN/yX70EhaqrWexQrHWo1YUzLK+EUb6JGtixqt2W0FzEC8apKlAvLtchNK1XZ9lCF/GVZqdJRIf/Wy1SDpCXGk1nRdLczoFztKD0IyeVJIEj0Jwoig90ZKNbsnNBj5FtUGoKmGCP8NaIfcakVUap2yBRaSsdBGLZFflqds9KWmKEvVM6wNyCVrrCx7+bj+wY+eWzh2JxSWhK1Rk8VBwgCQ5Lq1VpXJdYFNnVhjqiRwJ/uz4IukWydUq2jCgTUOb1SIDCZjOl1O9QbDSUtNr2WNZwZPpuZYDCN2D8f4QmPCUYn7GhG2EMo7YxE0MrS86esbWwTS+VVSuUNt+wXsXrugD/1Nk3GNBtd5SzyvA3HklvrKj14YTL7pUydTg+nJ6OGsDI8jWYaivntpvOXkYBw4+ydhlT6xRYs0fwL6Fc06lOlD2FxjwnGJ0od98IxIVWARqNFLhnA4bARCMXUC+GvWelzk21+yvK5A/4Uq31XOTLrteRhkD+J+knyXJLdP/KS/4lH+u/dTfXsPdGv6FFr9t9YNibbS6lZrdFVvbEk7a9W1PzUs5U2BEgipL+Xf+0uShteChZE4qzfl/N7v7Sq5w74U5+Y92k/Vfz8bvWjl2Vrf2kziCNe/Zu1L+Vx72cmfu6Af+kn6B3bk+dKek95wP5Sj5hq65Vaz3c8rfnm/0MWmDvgawx96RwzB3nNhq9ZJc5wiU541cFkndRnSp2l1JhelXW+2uS7OJQMf6UWVUQ0BYUvx37TpM7xsrD6zZurLkrAwOrvZXelKAll2XvaU73Jhj91/dwBb7CcKL6WS01cnhwOX0EVUr8OKvRjzfQ6fXzhMgZXDluoTKU9vNbLTcdjGvU2wXCBWKZOrS2FyrMH+/LDSoIkqUwNSUGUar0bnfS7449H5HJVAtEi8VxTFVZ/t079mDIV2PxLRxFSply2gsufw+kvqsjn64JI41GfdiVH2mkm43ZRTqZp5NLkAy6SDhOFWIReq3X9kPO5Gy0wd8AbTKO0ISJ5VrfdKoluC5Wotb9HQ0iwRYIRkgIQQU3Vg72cl3RBq92nWm6xrw0jDNcLJ1FixbbSb2i/bEfoJPL5GiZHWtVP5qsdstkK3lBBFT1L6iCgCrajbOuixLJNOtJTDkcKvSA8NEKD0esNVIpCjttpd1V6xOLOEk43aXeGiF6FwjT2RwqlkUyWcYdKMxqLcgO3K87mvpeVgyChRJV2p8d4JNLVvR8EPYa9NuWYF/vqExyb68QsdnJeO76jNUzLD/Gfa6kXCzdYdb74VQvMHfBVi7ycFwcMhWfaEC92vVgCBcU2Fo5XcPgL5ModpZMeiRW5cM7qMKUsLBzOq2S5L1pWPdfmkZevXti4uxvEl6gSTVSwu7ME4xVS2RrRRBmtNU0oXSedr3Gq8/PNCxv3N7yKtlDQGIubLhYPgkTSdZVAT2eq2H0FIskapXKLcKSA05/DEy6RytUwuzMYnTkEBlSqtBSawezKEk5WcPuz7Bz7+HzBwcppVBV1O2wx1nc8vNjxq/OqlCtUijmSqQytdkc4r7+z0rDbohR2Y31xH9vqEhGTlazHint/Gf3it3i0x9Tyue+2n/94vQXmDniDfQQN0Wr1SGfriuKvWu8Qi+TYPPDyxTMrO2dRDs9CLO84+fypWcGNDnQhni1Z+OqZmecHATzREq5AGpMnjd5bwOXPsrHrVszWT3Z8qnrE7kophIE4eCBRZnPXyQd39PzxoZWjiyR7mgCbx34OLhKq7jMUzrO172Fx14/WlMDmSPJ02cKdZ2ae7XoxuTNIfebOeQxvrIbDk2J936UQHCsHfrZPAjxetfNPX57z9YYPe6RKRWgOiy0lONOSXjkZx221ojfYyRer16BAk/GIfrtONRWnmk7TqlTpNmrUCxnKqRiNUoGh6E3Pp7eywNwBX2MmFZxQOb0pg/4AnzfJ/RdmfnvrlDtLDsWGva8LsLznVri/1V03S5sOVTu5rQth9WcJxQuEU2U8iVnvs3fs455oOAisx5kiGMoi5LuuSEmhGUymMAtbLlZOwoRSdUKRAiabIBLCXDhSaPQRNva9GJwZheuz2+IsrjtY3vcrfF80XVVOqLOlcIcFx5dUtPmPN1xsHgc40IbZPgnyeMvLiS1LrjZQwNtZwEk+DSc0q2VS8RjhSJJGs335ufjSUhKxnSCOKPk5RWUo8xOhXRTAr+QFX0Z15wGZ1zxds1VzB3yjiWYb9Lp9zNYIXz0x8nefavjsmVVpQ1g9aczOBIe6AFtHXtUrnlniSoNPBFUs7hRGd5pzTw5nMIfDm8ZkT2B2pwlGC0TjBS7scWwBcdQauVQBizOBzZ+n3h7QaLRxe1IsbTh5vu1hZd/HkT6iQK75fJWAL82ZOUE4Wafdk+/BvsIJCqTI5M5h8wikKInOmlA9roB9Xb48JmdaDWk7g6sDTLnWKcN+l1ajQb3RZCCagW9po8vNhO6+3W5SrpRptjtK4/By3fz/dQvMHfC6PW6Ym6EhjjRe/vi1Tjng/Q2XQh2IMtKtZzIE9bJ74uPuUxO3F20KyWBzpVnccvHJUwu3Vtyc2BI4A4Kzy+D0Z1XvJPJmf/jWwNfrXnTOHOlUka1jH4833JxaU4jwy+ahjzsLVnZOw+yfBlnZdqoeVGOKqSGm2ZUmU+oo4qhCvsLzLRd/EvWl3QCbmoBSbxIs4Lo2opRxQ5E8z8ShD4NYI1V6V2s3p2OKqQQuixWj0UHhlSHoDQa6trjXqhLxO9nd3cHq8FCsXocnXdv4Vz4zd8C3fAAk0ugLZBVgdenAj14pIgV5suHk/pYXrTWhxFjuLZh5tuNH78qpIMuJIcrCnp+l0xjOaIl0oU6+KNTxDRWAEbHOB+seVrWyXsht21hdaQ71US6kB3Nn0JriKgoaiFeICA2GPcmBIY7ZkyOZqarvVCHxFdKnUrHOoS7M0y0fW+dxtsQBt1x8u+ZWpE/FWodqtcmpMcqBMYErXqM7vFLeNR1TLWQJ+3y43QEq1ca1b8C3MVc5G0N3uMmtW59zoNGTLdbfZrdf5TZzB3zL2y7fNZLcFiRDutCkXGrg8mY4NsYwBUqKyVoionunQeyBIsV6j/5gqCr5g4kqkWyTaqtHbzBLHQwGY5WqEGSDL1pF1GzLjb5iNhP9iEyhSbbUVoGXVK4xy+kJ89lwlkpIZJsKiiRy14P+jElNSJTa7T7JTJ1gvEokVefCkVQwIqO3MNODVyzeY8UxI3oWhVqX4TU9iCn9bodGrUalUqfXH7zzEDQd83OwtcKXX95BZ7RRabzHtGZv+fzctNncAW+yzI8sl5iCClYIs9hgSLXaJltq0uqPVB5Q6PhSufp38lzy7SSVKDMGtR+Wm80CH9fXy2Evgz+qyPuKPvzlt9jV9a/GOb5bp9jUJkpMJl9u0eoNrwFhv2v71QZmJ/B9IOVH7PDaRdMJ+WwKl9OOxe6iVKm9swO/tv33bOXcAX/qDX2JChiMZprq8uDPBFFG1/JmP7X5v9R+Sr/i5Tn+pdp8fTtTup0OtXpdRVDfN/TC66/93dfOHfDdbTbfY26Bv5gF5g74FzPlvKG5Bd7dAnMHvMFm8u0mjNIicFlvzrQhJIBSropAZ4NOb/TO0cEbDvU/s/gd4EmiBlwqN5UQabv75jzgaDCk2eohAqSNzkDpzN98UcL0PaLfatCpSRVNg2GvR7/VpFsr023WVSWNDOl/DdPcAW+4y0LHns/XMdlSSB1lotCi2uwST1dxBwsI18ol76V6VgQRL6IknR7Nzoze/aZHSLa/+nypwMmrDnJ1Z7X9LIgj9PStdg9xjEvUguyv2nzlWmS5OFM2X8cfKZEqSDBG9AtfBnquHPP7c5pSr7WIxou4Q0Wqjd7sXOUcVFBJ6Pdn+hOqAH0o9Pp1vL4selsad7RCtTX47hhXr3O2cMKw0yTncxK7MJCwOqlmMuSDLmJmDXGXjWohj6A0fg3T3AFvuMszbYg0DxctPFpzYvTlSUmxdaKCK1Cg0RooXQhRK5KHVML/pXIDmyeBwZ0hkK4rHYhef/gSqTDTg5Betd7oKeVbpWA7GtNoynxfIR0kkCNoCdGbkLyeYPta7dkxWq0uyVRJMVPbAkWyFRF8ES6avnohCMmT1LAKQkOWCRlTJJJn98jHV88sqp5U9ClkGzmmvESkJ1faEe3+rKfvDykU6gQjBVzhkro2WT87xxlBVCpdRfKXQnWfr3SIhrPs7Hu4+8LO5nlcpWRGgz6ddkdpZVy+qGYOOKJbzePdXUV/7x4Xz1ZIOJ14j1fRP/4Ew9oiSZ+XvvBS/AqmuQPecJPlwU+nK5yeR9CZEvjiFaXrsH8eZUefoFzvEU+WOdYFebLt5cQU48QQ4eO75/z+jpEHu0GiqRpWZ4pjfZQjU4pIsqLm1/Y8rJ+GsQdET6LI9rGP44uEeqBTyRIavVAZRnGFi1hdSUWBv/CyeFv2FVLc/3hgZVufIBArcagLsXES4sSSJp6qcHYRZXXfq7QbNg+9LO+4WT4MKsRFtd4mkSwiZL8HxhiuUBGXJ83OSYClfT9WTxadKcb+eYQTZ5ZktkYolGV91836SQi5/u1jP7+7peXDh1a2L9KEYkWkqPz0Io49WCKTyZOJhbCYLcSSWYRZ7btpOmHQrpG2XhA4OiZ0ZqSUiJN2mQhotgkYzymmUgj5069hmjvgDXdZeol2u0c231BJ60pdcHYFTi5iHBjjlGsdPL4Mi+u2WSnakU8xZH/+yKho5xcPw3j8WZ5vOPjskYmvV1wcGWLq4X2wZPmOIv7cHGVp18upRRSOcmjPA3z11KxIcFeOA2xrfLzYcXFvxcnOaZDFTScf3zPwxZKHHX0cszOJOOXitoe14wAnxiiLmw7uL9lYPQoiCA1BbRwaooSSFWLSg9pjqnTu+CKO05/n5NTPwxU7D9ZdClplsCXQmGOcOjOEokWstphi15aqn5UDH8u7Hj64LYIybnSeGYi3Up0JyAgtYaNaIZsIY7fZSaRy3+VFZ6aeMhkOaJcK1NMZ6rkCvVaTdqVILZOkls/TbbVnxFY33Jv3afHcAd/2bk6hXm/jC+WUXkK+1MDtz7Bz4mNN9WAR9I4EOksUoyenvp/8niSfPzTw21taPn5iQ3qxrZOgKqa2e9MYLFGOdEFO7RlS+QbJZFFBi0QX4p9v67mzbGdD4+fIGOHIEEVriinaeGGidobKeIIFbI6EKiuTZUIULCIxz3c9avtgrEIiVVEF4FJzemyIqF762BDG6M4SS9fIZKocn4qjhzh3ZlXgJZ2t4A/nMDrTuP05rI4ksv/BeUhR8etMcQ7P5BxK1HuS97w+jYd92o0axWKRZquj8qPXt3jznPoungjK4v2muZg74JufBbWF9IixZIltTYBHG05EtcjuE0muBAZ7HLM7icWVQHcRYvM0xIE+itkS5c/fnPH3n2j5eMHF2klEaTi4AnnFA5NKFdGcBVjYCyiHcPqyPF4yK5Wi390x8kzwe9oga0c+hfWTXtJoi3OqDyo84okxrmjhl/bcPN91q15t9cjPoTGuEPWiXViptNSw98W2WxVgC5X+tmhXnATR21P4Qnl0xgg2f5Fsra++2YKRHFsaHw+3fWhEZu0iwvKOi+f7Xg4NMSWftnPkY18fxRWv0xlc50Htd5oUMkn8/gDZfFlVCb2lmWebTce0mzVikRCReEoVc7/q5O/U3s9447kDvuXNEfZqTyDLsy03nz2zcWSSIESRSKKkYEXhZFl9C4m82PpRkE1NGLsnw9K2S6kOPdgNobVnZqj1bEMdtd1s43AlWNj2cGQSbb88Z8Yw95Yd3Fl2sauPsXbo48Gak2/XPUqMJZooYXXEFRpiXx9TwZDVAy8v9rxs6cIKCyjBkVy5rY5RKjbQm2I83XCrczqzJLiwxdVQ8sAQwxkoqF4uWWjRHkyZjEbY3Ckebzj5ctnNtjakEPTfLpp5th/A6MkrncRTvXx3Bjmx5xTXzVUX7DZrpGNhbFY7cTUEfcfvufGAQjrKwc46Wwca7P74Lyvl85bPlGw2d8C3NJaE3oPRItu6CE/3QhhcBRK5pqKIEBFLUYuVPFg2V0dvTXFuz6gCatF2MLsy6Bw5FQQRxxASXAnPS2F1LldDaxTkQ1YRM1XKDZy+HOdWSX9kWD/08XDDzQtNTFHNC4+MRCE1pgRmr2gGVjA5UpzbUspBi9U2Qk0vUVphLSvk65jtoi0RxRevqXXCQ6MzxxWoN5yqq2/cRnuoYEkCPBYRUnmBCGWFDH23Dr3cfWFl35QiIVLb/SECadJZkpw5f+iA/XaTfDqJ1+snky/R7b+bA04GHaI+Ow+++YK7T5bQ2fxK7uwtb9UvarO5A77l7RK6v15vpEL14mgS8pc6S0nYC0HTZcG1DFWFLEnydIOR5MzGar7RHtATNMNYvmu+H1CJlrzoP4gOhKQU5JunJwUAjS4inmL3ZZRjpSoiBT3rZyRVoQiYXu4jehOCihCWajkPdS4vE3BCHCXnIw4paQ1VHC4BJqX5MDumnPMl9aIcX7aX4oNqs6+iqk5fBosnqxAeo5c5SXkhSQpGzkPkrL+/IpTjj4dCBiXrZgj5tzSz2qzTqOC2GHh09y6HpwYS+eq19t+lrZ/7tnMH/JneIQlCiEx2pd6m1urz15KbEAiW8OFUm71run7/nWbrd9vk0kmcdgfpbIHuYFY88N95zL9W23MH/GtZfn7cGy2gKntewrBu3Og9WTF3wPfkRs4v45dpgbkD/jLv2/ys3xMLzB3whhspw6DLAIYEJSRAcjXQcMNu1xZLG1IwLSKaEkC5EntR26n1w5GiprhaXH21ETUck6LplwslYCJBl2a7r4I1KqjyasNXG3iL3yqg0u7PAipvaEtFb6Ve9WWgSepZ37AL4xE0m1PS+SmF6lRpwFerU3L5KbnSlPf4E++N1p874A0mEvr3UqmBMJtJfWSy0GQgmgpvPU1VUjuZa+CLVwlnhbriuhOPh2Nq5RZub0ZxuJSbUjMprnbpbqiCb0EdDCT8CIhWRCJZVjnDeKamYEDCNSPI/J8yTcYTdZ3eYB5PuEizN+Z1VykvpVK1rWgVJXUSzjT4IbXh9TNpNafY7WMerY7YOR+TKU0xGMY8XxvxfHdMoXL1iq/v+77PzR3whjssPKDhcI7n60K068ESKCrSpFZnSKPZVz2bUjZq96nUuip0L/OdtqAQZn+Cjtg48vP5op17eyHC+RbCXiZaEpLGEARFMV/H5s4qAiXRe08kiljdWRyBIoVSW6UBoqkquUpXhfTr9Q7+cEGVgYUTJRLJElZfTpE+iVKtpBGUXsVLxIWkNKQHF8SGqCVJDyovl3qjqxAXgrqQvKLUhHoiFXpD6bUldTFQ56pSGqouVlIOQ5XDlOM+2bLzcNuF1pWl3JI0So9Op81wNPqBQlK9NsViG7F6KJrvE5odCIcm7B2PWN4dkS3CO73bbrhnv8TFcwe84a4JDWEsVmBjz8PGcVA98MlsHW+wiNGeIZZpkBBsoD+LxpxQFS7xVBWXO6VwcTZ/gWiyzOqem1sLVu5sBXCGZ/WbOkENBIpEk1Ui0SInpgSBZJVkroZG6+f2gpW7ax6s3ryiKHT48kQyTQTalMnXOLcmMfuKSgHJ402q+s9NXQxHuEyh1FBF4AZrEjmHVLZOJF7GaE8r7fpMoaF04fWWhMI5+mMVnN4s5/Y0tuCsbCyXr+PwZrnw5BQDnOAJZRtXqKyuO56usHLoYfnYz4W/QLHeJpVOEY6EqTZbPwDkivy00zvizD4mnJ4NxcUprY4xB9oxueJMHfeGW/FeL5474A23V3oKUThK5xoIdWC13iUazrG64+bj+ybWNSH2TgMsbtj50wMjC7sedk/9PFow8umDCx5v+5Q2RDiWxx8r4ohV8AfzrG+5+PDLUx5uetCa45jtcVXnafTm8MdKrGza+afPtPzrNyYOTUlM9pTCH0ZzLbq9gWK9Xj7wsWtI4g7mcXsSfPZAz8cPTTzb8XFmjvJ4xcKth0Y1L6zbR9oAXzwyKX7SIynI1vr57J6eb5cciC780VmIjdMwx9Y05VobnSHE7ccGPn5sUTWtGkOYh8sWFvYDiEpUpzcgK9ympbaStW406tgdVk50OpKFMj3Rmr4yNRtTvMExFt+YZGE2wO20pnh8E7TGMfkyXKUmvbLre/9z7oA33GIJNkiAQ4Io4oySFPf7UjxZsfIvX54pbYit0yDnFsEBit6Cj/UDj6Kn3z0NcGqOKXhRNFEklqniT9fwhQpozkI833SyrQ0jxdeJZAGrO0kgWSGereFyxhX5r8acIpOT3iyn6jVF6UiGg41mF28oh9mbxRfJEwzn2NWF2D0Nsa8NsX7kY2nPy54ujBR9uzwpNvbd/OHOOV8sWnlx4OHwPMjmSQCDM000XSMaK+IJ5nCHpc6zzPNNB//8mYZ//9bE2klY4QN3jwVfGMIeKqmKHhmmqgogNaQdUKmUyeULtHvfMwVcmrZZnzmg2TsmUZioL9x2a4rbN+H0pQOOv//svdztV/F/7oBveZsFIW+4CPHZ/XN+89GJ0oYQRIHUVB6dh9k58bNx4GHj0Ktwe6emGGZXinOBHF3E2LekFILC4kxhMMcw2pOquNsbSCsYkc6RwRurkE7k0VviqhY0laljcaQ41MdmQiqVLrliQ+lNbJ+FObMmZlCjs7By2t3TIBsnAQ6NMUQerd3q4fWkePjCwt9+dMyH94083XWjsUSxBnIUKm26nT6RcF452ZExitOf4eGSld99esq/3bWwqYsj+MD9Y68qRNfZM7S613u44bBPsVQklcnSEm3Ba0S/cOmAqgcsvuwB21O8/gm6iwmFypR6vUmpmKdQKtP7FakrzR3wrRxwSqPR4eDYy3/ePuU3fz7h/rqL1QOfUjK69dSCGhZq/NxdMPHlgo2lw6CC7SxuO/n0mVlpQ2jsMmzM4Q1kcQdEGyKlhrF/+FavtCG0zhypREH1pA/XXZxa0hydRXi87uLjZw70LuFdSfJk3cGfHlt4vi8SZTEerNj5ZsnO4r6fc3tSBWVSuSaMx3jdSb5+bOB//ecBnzw1s64NcuFNE0xVVKBl0Olzqgtx65GZT57aObOnEJWnWw8v+OiZU2EVLS4Rh7Fx64mZLV2MWmvwXVmaKCW1W3UcDjunZ3rShTL9V4eglz3gK0NQr3+K7mJKsTwm6PNycrjLkdZArlB+q7vyPmw0d8C3vItC0hRPlNFbkwoRb/dmVM8nEdKl4zAWbw6rM8mDF1ZWT8JKkrpQamKwpdg4jbBzkSKQqlKotBD0eKnSVtoRNm9WOeueKYU/VafZ6uIJ5hVWzxUu4wsXFdJh9TSqAkGuYAGNMc66NobRnScUL2OwJtDb07giZfKVlurZJFIrkAtBV9hdaXa1YaUlEU5VFZt3pdlT0dB+t4/Lk2VTE2FDFyeUaqigjdWd4dCSVsGhWGpGpSEID1k/fJkSEdNJnrLf65JMJgmEZkGYV8l4JeBic47ZPx/hikxU3q+QnaK/mLJ9MiGT62E8O+XB3Ts8WdpUNBZveVt+8ZvNHfAtb+HsQZulEEq1LtVqC08gh86axBWVh7pFIlXmWB/GEy1TbQ+RtISkEiRimiy2FWXfJRGTSlmI1kS1o2TCZL1IYMvwTciUipW24p2RlEW+3CaablCsdtX2mXxTQZ2KNUkl9JUzyzk1OkOG47EqGrhkTBPIk1AGSnuXMtUC1JX1krKQ9UK1KOcYz0maZKRQH3IO2XKbuiToJdVS7Si4lZA4vTqNxyPa7TaN5kzOTJAVVyeJglptY17sjNDaxohYktczZudwysrBmGSiilF7zOKTR+xpzskVK1d3f69/zx3wJ97eyXBEtdZRwNdOf0xvIFClDplC/Z3xbz/xFH4xu3U6UwKBMRtHI3S2MfnKLDF/oJ1yZBiTSRUJuuyYDQYSmcKvyn5zB/ypj/HLKKlESOWFLz2kRE0lMii/59P3FphOYDCAVmeKsA1K0U6/L2pT0OnNSv4G/T69Xk+V//2a7Dd3wO+fk/mvuQX+xy0wd8DXmfwKI/V/pVOb9ZCvO9DN66Q3kO9C6WnfVPR8tZX/2jFnPboc+62uW233Un7trXa4eqZXf3/fhtBpXOrNX93iu99vOo6ck9Ksn1wvNH15rt+185ofEuEVGv2JQvW/ZsMrq2Y2m13HlcU3/pw74A2mEUNKgELRLnSFL+XNVf8/1pQUL0s9pqC6ZYj6rlO/JwGQFkHwBxoAACAASURBVLlSU2nAv03CWhUOyDF7M+HOHz+maDRMZsGYKw+z/JQgjVBNSN3qDO3wmvOWh3TYZ9hpKX2HYa/LZPLuheHicONBn2G3w7Dbpt9s0C6XGHS7P+AIFccQyguRAvjRM5tOGPU7dMoluvUmo5dwi8loiJzfoNd/472Q8xl0WjQKWRrFgqqP/dFjXTGuEFoNWm36rZbSuxD7vmmfuQNeMeDVn0I8lHnJjH1ijBFI1Wi/hCRdeV6v7vKD34q8KFrE5JQ6y6J6oK9uJA+Q6DxISkIcXRV3t7oq4iicLAJhEp2GWKKEJ1Sk0pT829UWvv8ti8XBB70h4UgBoy2JyVtQhdLfb/X9r05LxERrRDO1a5QP8sLwRwocGiMcXMQIZhq0X6Ed/L4VmAx7NFJhooZjPIdbJJw22rWq2kReYm81TUY00jFSViMJm4180EvOY8V/uEU2GFLF5ZftiPONem3q6aQi9e13rrJuz443nQxp55NEjnaIGk2UUjkGvQ5Fv5O48Yy024sUVlxOP3ae0vu2y3myPje5YFC9RC+3n/2fOWirVKLbbDHodGkVcoSODvAe7hF3OWg3O2909LkDXrfqd3NygwL+DI9fWHi06sTozVOodxWqoFDuKE0FQRnM5KRb1Jo9ldiuVTsUKx2Vi8tkq+yd+FnY8rB/kVRphK7so9IHAyRPKKkMoXt3BkuIFLXXn0FjjGFwZhULmhDrOr0ZxWBWrPVUz1SutFR9qhA9SdK7UhPFpiaxdINovMS+xs+zTRfbhjixfEOds9Sz1kVvYiRoiT4eX1oR/h7bkoiCrjC1yZ+kKs6sMe6vWfl2w8FFsESx0aXdaqhUg4jDXJ3GvTZFnxnbygNO793CdbxPORWn36rTyOfotVoMuh3a1RL1fIZWpax6tU61TKtUpFkq0ipliZ0fYXl2H/vWFjGLgbjpBPPCt4TMZmqVBqNBj3a5SD2XoZZOkjDpiej1ZHwhxaQ96nXo1ao0CkW6jSrVeBD30mNcO+IMXqrZBJ7NRczP7hM409OsNZQUd6uYpVkUJ2qqHq+Zz9Iql2lVSlQifmKGM5IOB91uj570yqUijXyeTrVAwe8keLRHzGSmHE9QjoQw3f8G3d3bOI8P1HlL+eDrprkD3mAdAalms1X05hgGewqh74snSxitCbZPI7hDJdy+HJrzEI83pGolqegEjzUBVvb9bGiCitD26bqDlcOAUg0qV9oEQ3mOdCGMjrQq/1rYcPKbj7V8veZBeD4X12z8/gsdf3ho5dxVwOLMcG5JcuoQVrIOwWie9T2XYtk2uLNE01XFlv14w83Xyw7FD/p816tIc4OpqlI5Ohde0E0POnuWUKJCMJjj3qJ5Vht6GsLpTXMm2hbGONFMA6/0oM4EOnuSeL5JJlfA7bTi9vvIl6/n6IRmvpmNEbee4T87Ju13U4r5yTgucG2uErdZSXls+I5XMS89xXOwT9rtwn+4jWPlOfbVFQKnR9hWFzA+uYdfo6EQjVDNxEm4jGSiEUqZDOWIB8/WEvbVZYLaMzxbKxgffM3ZvbtK3KUQ8pM063FtrpN0uajmcxSDHtJeL0mvh6TDiOHJN1hWn5OLJ2jXSuTcFlxri+qYSZeDlMOMdeEBjq11QvpzkvoTQkf7pGxWeq0GKcs5ztUFLEvPCZ0dY3/2Lfv/+DecfPRHQqen1NJpYmdagjoNSa9blQK+UpX3g6dt7oA/MMlsgQznBHkujGAKv9fuEwvnWN5y8v+z9x4/kmRbml9zMQABEj1DEuSGGC4INMH/hQvuh+R6lgSIZnM4zRbsx+5+3f1ePVFaZWWlihShtZYerrXWWmut3X/EvZ6RFRHpkaoiq6IizQBDmF0zv2b2mX1xxTnnO7/9TsuzbR/bJwG2jjzMrNmlevXmkZf5NZtsfZb3vRzrQwjH7D11SOZcsDqTzK07+McvTvj0qZnZbQ/Lux4+mTGxfhqW0n/bBy6+fGLi/roXd6QiIyiMtgQn1gSxbEVmRno4b+DBqoMNVVBKxT9ZsfHHexp+e1fDwzU7uyK8KVGVcodeX3rSCm+4Jn6imqCMfni2bmdmw8HTHRdPVyx89K2af7mrZ9+cIpFvTIzvtbZUtS6XSwR8HoLhMKVK9SJiwpjfbdGulmiWS3RbTUoxP96tBfZ/8/+hfXgf6+YKlrXHGBZmsCzP4RT7i7MYnzxE//ge2tkZDEvPsK4v4NneIOW0y1Y0E3GRTUTJhALE9CfYFp9hfCrqmMe88ATdo+/RzTzAp1YRVB9iX5xh/zf/gHlpiZQvQDUZIRMKkw6FKcaDuHdXsW+sErbYSLttBFX7WFcWiZgtxCwm+U/h9LuvsKyuEDYaSBpPCR7vETUZqOUzBI62MT7+Hv3TGRzba1hmH6L+/PfoHz4iYXM8b9lLNEtF2o26nDi7CNbLewoBX8ZkaolIQum0R/lmRsf//fsDPn1sZnHPw4E2wPqRl6VdFwtbdinhvrzrZvs0gNoSQ/hRqo0RNg+8LO+4+MN3Gv78X/b45/tGFg8DaMwxVg982P15UiLuzhFl48jPgTEhg3BFhiabK8GRMYonnEOEFy1v29k6DbCl8rOw5eCrR3r+eE/LV0+NLO+7ObYmCYhI9WZX5o7YOhSJY/ws7TqZ33KwsO1m41i00h5m1m18fPeU/+u3+/zV5xo2dAk51jwPQrtZJ5WMk85mqTcnitvnj1/eLgTsmB59xcp/+N/Z/f1HaGcfY91ZxLG7hnVtHtPsQ6wrS9hWFzDNP+L44R10i09wbK/gWJknrFWT8jpJeMykgh7iThuBox2cG6uYF55hmH2AaeEZluVF7OsruA93sK3Ocvr171n9y/+D07vfEdKbKMrfOkn4QzQqZZJ2I57dTWxrG7h21nHsbuA6OiIbFdmZbLi31zEvLRIxmSnGY+Q8FknSkFZFIRoicLyLTfyjWF3CubeFa2dD3pP34IRiLHEZBrnf7/XodrsMpgQqixMUAk6F7VLhGGq1NgcnXj7+Xi2TrXwzZ5F5G8R4aU8dQLR+64ce+XfrxM+BLoTOJiIeMqgNYZ4uWbg/b+aTBzo+uqdn9jAio+zFhMf2sR9HoECu3CIey3CkDXFiTpAtt4mnhPJ1jLVjvwxBsgsnblccX2RCxvl1m8w/8dUzC8uC0KYwa4d+ttRhPJE8akOInWMvO+og64du6egt/kGs7rmY23Vyf83KV4/1fHTfyDcrXqyh0qVohzHNZp1kMk4qm3kNAceMeg3ixkPUX/+O1b/6Cw6++Ayj+GCPt/Cc7OLaWcO2Oodrdwv3/jb2zWV0c4/QPb2P8dkM5oV5/CfHRAxqPAdr+DUqgjotgZN9XDuCPItYVkRruYJjaxP37hauvQ0MT+5y8Id/YOPv/wrto4cEVKcktMe4d3fwaw1U8gVyXifenXU0D+6hm32MZXMVn1ZNLhYl5XET0mqJ21y0qg1Ggx7FgBPf/jqe3Q1SLidhzRGenTWcO5sE9FpCBi0B1ZHsEhdj8ZdmPEWS0XQyQSgQJJcvIdIbXF4UAl5G5Ir9VrOD1hDiu2cmSSCRCmx5z82DJStfzFrZVAU5UAdkC/ntvI11VVhGPewe+3i67mRu24veGpdhS988NTGzE8IaKMno9DVBiJMwem8BIRt/oA6yICIdrClEWNPMmoPfPDCyroli8+cIRsWETQWbO8Hiho1ff3rIrz5X8fWCA401zuqeR4YObWpF7ogouyc+7i2J4NswWmucE02Q+4tmnm672DNEZIam7+atfLXgxBIoUT8fbjQeUSzksFpN2N1usoVXRyqMBx0ydi2mmW/Y/ejX6OeeYl6dQ33n92ju3cG+tkLwZA/9nc9Qff05pqVl4i4bgcMNjA++RvvwAZ79bfy7q5z+8Z8x3H+Id/+QqFGNRbR8c4/xqlT4jraxzM+ge/A9Qb0W7/46+vufc/Dp77CsLhE42sfx8Bs0n/0B49PHxOxWOYY0Pr6PZXmNqM0sx3HmuRnc+/uETWbSXh/5cIxeu0O/USJytIL2i49Qf/kJvv0dLI/vcvrlx2gePCAVCFCIhwif7iLqDJ6qaNfqL7ygxGxtu1FDtbfF3MxjTvU2yrWXew8KAa8g3OVioaMSTxRlMpQ9bRSnb9JSCXI92QnISAMxxhOxdAv7Acy+PPl8TZLuQBfF5M1TqrRkUk8RQ3hiyxDLNhAaLyKJp4izs4fL0nHa5ctxaopjdGcxulKSODM7fvSeHLFsXdZTrbeleWL30MO/fHHMX/3xiE+eWjF6czKnhNokMvVmCCdKMrpiVx3BFSmRytWJRgsc6MLoHCmi6apMRCqiNvZ0cSIi8r53zo43Fimry/j9XoLhyMtjwMtAjUfU0zESJg3e/R2iNiN+9T76h19gW14kqteRdVmwzNzF8HiGgM5Mq1GnEvMTVe3K1i/lspO26HE+e4R/a5eU3UU5ESGsPiCsPSUfTVAIuolojvDuiVnXBMVIgITpFN/xAUmXQ7Z24Z1V3Iuz+Pd3yfg9kvj+o32SLh+tapVSNEDoeJeQTkc2GKJeFOPYCsN+j16jTNp8gnvpKa6lOWLaY2xzj9A/vItja4daqUK3WaPod+Df3yRhNV8goDDgV/JJlp8+5MvPPmP/1ESp1riMltIFfQmRVxUIf8/ncoWdZltGPwglsUy5I6f6U5kKFneKbKnJQE4/TyLqhaTh2XS0sDmJSAQZaT+aeJoITxexL3MsPPcxFfkfZJnILyFSVfeGUmvlfKRBvdrCZo9z95mJTx4ZeLrrk+prImJBGJJFHWIySayiLvFX9JPkPTzPZyFMdWJf2P/kfYo8D5dmzqWRfDh87hFy6eAUvER9wo4mDdPtBqV0lKjTTF0Y1utVGpkoKbeTfDwp7WuyRoHtYMBwMPE8EduDbpdhr8dYOI8+Py7KZf3PvVSG/ef7TK45+b3wYBlKw/5ZHYIQg35PGvAlDuK+RR2D/vOySaDwi6cTuQnFMZHfotWkU8yQ9jhI+300a3UZSTKpQjgF9BgO+hLzMziGgy65VJCt9UXm5hdwh+JSyuPs+NlfpQU8Q+It/44GQ6lqVm106EqyDKXBWMyaig/5p1jEPVQqTWyeDEZnBn+siojMePER/RQ38ZprCK+YbqdJs1ZGjInGggjtBu1ala7wcrlJN3vVswjy9zq0qxVpLxTkft0yGvapVwvEYhFi8TjNVmeqUV4h4OuQvOr4WTTEC0PrxP/vrKW76mfXXS5i+kRMoMy+1H39h3Hd13+T+kSLNRIhEc8XMT4Sraoo/8Us4hmkf+oPz/GqexfP2BddWdE6voKwCgFfhaJyTEHgPSOgEPA9A/xTVz8ZH4nxkBw2XevlxdhJCOj+khquawXgPVSmEPAKUMWHLOw29UZXKkiL5Jfv0mESiT1Hw8lEyBWXOlcs8iT8MGEjDoh7EHkYhBLZm3RvRden0ei8cOgWAcLnF0EikcxTjF3rLeFL+vrnGgxAyEqE4iMSuRHtnkLC85j+mG2FgFegJ8wOxWIduzuDTShM55t0xEzi86iDMzLK8c3z2UxRldw/i48bjWjU2wgfUJFVV8xEnl9EuIrwORUO2iISQihf54p16fomJnLEcSFD6A4VcARLlOrdFxH3gkhnLdHZNWULNeiTTJXxBPJE03WZNVdcUxwTiwgziibLGN1CxClPttKmL8Y2z+/9/P2dbQsNT79/yK56gME9pNYWY7qzo8rfH4OAQsAr0BPREF53gvtPjdxbsKFxZchX21IJulhuy6gCMXUvdDWFsJKIjJBCS81JVIFsXbp9KeZ7og2itqVlyucJSSY5GkRUg8ObQdgV7YGCdKw22mNSUDeRrUmNGY05yoNlB98sODF5c88VzzoyJ71olQVzGo2uNIOITLqNegt3IItR5JzPNGQLJ+6zLPLGN/vE0hWO9AE+f6rh4bYLU6hMrTWRg2h32gzPWH0Ol2JhjM4wYOdkgCMw5Pllz52hbL4rAgoBr0BOKGEnYgX2jgPsa8JSNDeeKsucCceGGP5oCX84h8Eak4rRRlcaXyiPVh9iWxWShEtmaxjNIXYO3expwzL2TsT+5fJ1mcNBGO6frTv49R09T/eCnNqTbB64pNaoUKG2eNKsH3j4bMbAP39v4NiSwBfJy3wUJ6a4bBkTmao09uvsadzhEplcFZUpJqUThZy9MPSHw3l2VEFJYG+shDOQZv3Yw5GoL1UllU5JQ7s/GKQlAofPYSJia9PpEae6PnrrgET29UGm536ubL4GAYWAVwAkun+tlojZa5Avt6jU2oQCGVZEspUZgww32lH5Wdx2yOiFeeGAfezjybyJb2WkgxeDM8G+ysfKjoPVQw9GVxJ3MItHpALzZ6SE4XezZv7mczUPt/2SYKvbdr56bODrWQtrJwEWtl189dTEbx8YORLeMfY4m/tuvnpqYenAj8YSY3bdzvyOF5UlRVIkeDFG2dRECCRrJGJ51Logdxet7JsSRDI1GemQLdQp1jpUmx2S8TBmswGzzU69079AwE57TDA0ZO+kj8M3pFxT+p5XfDLvVKwQ8BWwid7YmeeJkDXwuRN8/9TAX/7hUIYTrR4LAkQ50YfZOvJKR+eNA4/MFXGkC8rW7O6ciU8f6flmzsS6yo/WFsPmSiKEb/UizMggckGEcIeLsnt4og0giL15EkDknljcc3Nvxc7X8zYO9VGONAEeLZj4289O+Xrewb4uwvqOg5U9D2pbSo4f/ZECBmcKZzCPzRVDa4mgsqdJFBpSWkM8shg3CioJ21arWadQyFMolaS3zXmKVQojDPoBjxZ6aGxD8tXzR18BnnLojRBQCPhGMIFwxlad+vjDd6f8h98f8PkzMyuHPg51IdYOvKzue2ReiJUd12R/z83sioUvHxv5wwMDnz42yli9+U0Hi5sOFna9nBjjmB0pto78GJxp3JGiDDcyOxMykmJbtLB7Hh6uO/l+2cHmkY8FET703Sl/8+kJd5acHBmi7B27EfF9K4cBYumqdLheE11nYwyNKcShCJk6DeOJCUfrixHtwlOlXMoTiYSJxBKSoOcp1mmOCQSG7Bz1sXuGlBQCvuEX82anKQR8I5zGcjbzWO3nqxk9v7mrY3bHzdqhl4Udl8wTIVqrPVWAmUULM6sOFnY8bB14WTsMyDAh0V1c2nXzdMXK/TkTj9bd6OwpAqG8jBUUacI0zozMHRGOF/CH82itIvrez9MtDzObbg61IdZ3XXz9UMfHj4wsHQYwOVMcqf3Mbblkl9QbzrN+6OfespOlk7Dssqr0QZ5tuWVuCRHidH4RvpOZVByHw47T7aXZHVwwtwh7Yi4/wmAe4HALpe/z9Dxfk7L9LggoBHxD1IRCmogiONZFWD0KYnYm2VX5ebBs496GF60jhckW585jA483PHI8JrIbVWsdKbhUqTYJhPMy89HuaYgTMV7L1qlVm4iI9z1dDLUjQyJfo1RtSbn4eLqCzpZg/STEmjpKJF2Vmi+nujBb6ggWXw6Rt0Glj3BsFAk588STJbaPgzxa87JtSBNJVgmEcuyoAmgcGZLF1oUnHg77FHJp/D4fgWCY1iUCipNzuTEa3YBDzQB/dMSbKLNduIiycyUCCgGvhObiATFmEhIVQrhIiC5Vyg38oRwGRwpvvEam2CCWLKI2RQnEyjKDUE8Y759P6wvfR2kAr7UpllvSJCEiHISfYK3eQeR2KNW6UuJe5N4Tq5AHFHIYInV1rtyWNj1hK6yKOoSwU6sn6xQpssvViWFd3GO+KESaGuSrXSkpIdJNi9nXcr17MdTo+VhQqFKL3A7N1iQH4cUnB5FcxWYbsHHUx+Aa0ugohvjLGL3rvkLAK5CTkxRTbGIvTh8OadQ7EwP7SKRYFhKDbfKlhszl/uK8W7AhZORT6REm5xBPeCQJqBjir+fFKgScgqMgn2iZhI6HmCWcusiYN+EbOfEKEVyd/O4X5uU/9eFeLhTP1+2N5Sr9QV8+RSl5BwQUAk4BTZBPCOm0Wi36IobtVS3hlN/f5iL5j+Y2P+BP/GwKAacALggoMvXUhViriMj+EQQUdkTZSl5Tn03ci3BnO1tfOycpW2oRIT6JwXv5cUXkxOhFHoUf86wv162UvA4BhYBTEDojYENo/P+IFlDUI7Rb8uUmpVpH+o8KwrzrRy5+1+n0KFdEos62DMIVStdXL2OGvQ6daoW6UIyuVGXOAhExIROOSNmInszDIFSqhcz6JBfDq+q8+mrKkbdHQCHgFMyug4CiVWk02qhMYeb3PWzro6REDohOl0a7LT1Oplz6lUVCZyUWLXB47Gf9KIDBk6PQOJcb4dKvhfyD0F+Jao+xLC4RONWR8/upJMIkrDZK0RjtYoGMxYB9dRnL2iq5SJBe56Kt8FK1yu41IqAQcAqY10XAWq3JjtrHw3Ubi0d+6VytMkVZPPCismcIp+s0mj1pemh3elSqLVKZKv5wkXCiKk0ZIh4xX2xIe56IuvD5MmztuJjb8nAq7IaFOoVcjlKxRK3RuhAmJAhYTwYIHG6hefAQ994JcauFuFmN8ekcYbWBeipNUn8qFac1Tx+T8rtlzoQpsChF7wEBhYBTQL0WAo7HtFodrN4kJ5YIWqGQbQhJR+s//2ifT+Yc7BsShGIlROiREOCVCVOEQ/eynaVdP1Z/Eac3I3VCn2x6pNShiLiw2eJorCm8sQrpXAm31YLT4SKWzD9XY3v+UKMhnUKatN2M9+CAhMNNxuchqjtB9dX3uLeOqKVzlIJeAupj3CdHFFMJ+r3uFFSUoveBgELAKaheBwFFtdLRudOj2e7JNGTRaE6qZ381b2XHEMfiTuNwiSQtUbTmCKe6AEubDmbXhSvbxNVtfsPO5w/1/OO3WtZOowSTNRlUK6LkRTxgs9EkGvQTDoXJFsovxfPJnHhCVq9Wk4KzvVaTWjqJd+uQiMZKI19h0GnTbTak4peQUn/XMeoUKJWi1yCgEHAKQNdFwAtVC4Hbkojdi8guqMlXIBQv4fYmWN52sqfyozFF2Dv1s3Pql7kb5jZsfPlQy999esx//FTN0kmMeP6iK1m/1yGfSZHNZqnWGhe6oBeu/3xHSK7XUwlcy1v49zVUkvmXCCf8Q7udjkzJJYJ5leX9IaAQcAq274WAQt+l3cbtS7Jx7EPryhNJVgiFM8yvWdnXhDB70pwaw2yf+lk/9rF+4Ob7WSO//lrN335tYNuYJls93z0UCTnbZJIJUqk05aoQjH21YaLfrJJ3mNB99Q2Wx4tkPGGZafY8DPVKkVg4hMcToFypv5bU53+rbL8dAgoBp+D1vgg4Hgxkbr6lLRezeyGMrhzBcE5GOOjsSZn3YWnDzsf39dxdcmL15THa4ixsufn8mR2Nu0CpcS6cSMjAV8pY9VqMRjOhWJr+awjYyicJ7y6z/3d/herjzwjrrDJl8w8wjIn57GwuzfHtnUe4faGL48ofTlS2rgEBhYBTQHxfBBQqSkIiIhguYPcVZCjRqWGSzcgZLhBJVWR22+U9Hxp7mmqjN5GUiJcwe3LECy1al/I2yBYwlSSdzlB+gy5ov16l5HcR3t8hptFSiqcQkR5ny7Dfxqw9YObet3z7/RN8wZjSAp6B8x7+KgScAup7I+Dza4lJjm6nTyCc41gflolZkoUmlXoblzdDKF6m2vihqykmczq9gZTAnyZNKI37U55jWtFY5kzoMWi3GXQ7MhfDi0mX8Yhuu47FoGJ9dYmDEz25wiTf+7S6lLIfj4BCwCkYvm8CikuKj75aa5HMVGWokchINByMZL6JTvfNNECn3PqPKhL3NOh3KeQypFJJqvWmlEH8UZUqP34lAgoBp8DzUxBQXFaI5gpd0P5w9KKbJ4R8f85FePCInAbCBe9MD+fnvJ/bfm2FgFPe8E9FwCmXVoo+MAQUAk554QoBp4CiFL0XBBQCToH1uggo6hGSEsKHs3wuGmLKJacXjZHRD6VqW8pSNF+TH0JEOQx6HVrlAo1CjnbjZbvgcNCj06gioh+alQq9juL5Mh38n6ZUIeAUnK+DgGJCo9XqYvWmODBE0DrTFBu9C6K3Uy59oUjMWCbSJamOtquJEkqKBJw/mAwunCxc3wZ9Gvk0UcMxPtUOSZ+HSiZNLZ2iGInQbrZpVcvkAw4CJ3tETGZKmSKDnyih6OX7VfZRUlRP+wiuhYCjEdVqg5UjN5/PGni46SKQqdMVkmLPkz2KXBJCqEkk2BS+nSJTkUgrPQngHdFpd7C4YjxascgU1HpXhnK9zUC0Yh2R7OWihOCw16UYcmOa/ZaT7z/GcbJP2KjGs7uB4ekTMpEUpVSSsHqb0zufYlxcJOGLSpPINByUsvePgNICTsH4WggoWsB2B6svxb4+yLEpjCOQle5nqVyNVLZCKJpHb42xsO1m8ySIwZWW0RGpTI1kqiLlBF3+NGprjH1thHi6Ri6Xw+93oTVaiCbSF/w4ZQuYSxHRH+E73SUR8JDy2PDsb6CZuU/UE6SUzVMIuvAf7xI2GSllCkoLOOUb+KmKFAJOQfo6CCjSFg2GIpdCi2yhRjIjHK+TqA1h9k4DnBpD6KwT5+svHur4atbMwoEPrSWGxZ7AYk9icaURyVdypSaZQmMia1gpEwkFsNjdJDO5CwSUJoROi0Y+Qy2XplmvUs+nidv02LZWiQei1CoNuo0qtWyKelFEwHdepDmbAoVS9J4RUAg4BeDrIeDFikf9AcFAktVNK189OOXxskVGPuyr/Xx2X8sfZ4w82HJxrA+xf+LlUBPEGijIlGLnaxKxevVqlWKpTLP1evIMOk0KIQ8+1R7xQFhKKZ6vT2wL4opnFusLr5jLJyn77wUBhYBTYH0fBBwOhvj9KRbXTHxy55C7z/TMrVq5P2vkz/9pm7/7VsuTfT9Wd5KNAxfrh16CqdqLBJtnt9lq1kgmYviCYfLF8mtarzGtXILQ/iqqL36HfXuPfCJzVpX8K3JDVEoFwuEQvSeUZAAAIABJREFUoUiUhsiO9PP6Aly4v9u+oxBwyht+LwQcjojHC6i0fhY3bGweejlQ+VnZdvGbOxruLDs5FPn6giInoFvmhEgVW/Qv6cDXayWCAS8mm5NEWnRBpzzAWZGIlogH8K0+4eg3v8I8P08mGL6Q+0F4vQS9DtbXV1na2CZRbNBTNJnOEHzvfxUCToH4fRBQOFQLzZd4sowvVCAYLRGJl/EG8xybYpg8WXzhPE53nJ0TPyIBZ6XReykvfLNRJR4L4/L6yeSLryVgMxMjrtrF/uQegYN9SvHEBQJ22k2M6gPufPs1X9+fIZSt0lVicKd8Fe+nSCHgFFzfBwHFZWR66uFI+oAOh2LcNdkW+eBFRt5UosjeoZcjfRR/ovoS+UQdwtgu7u+Vqt3nnknMjA7aLXpC41TkfhhctCM2qiW0h7sszC+wc3BKrdm9QNBzVSmb7wEBhYBTQH1fBJxyqXNFYxq1Fr5gjli6Rq11LvD23FnXuzmWCmjxcAi/L0AilVWiH64X4NfWphBwCkQ/CwHHyBZRGOOHl8Z9U27x2orEDOig338+A3pt1SoVvSECCgGnAPWzEHDKfShFtx8BhYBT3vH7JKDwu2wLtzMRdPsTtnRTHlMpugEIKASc8hKui4CinmKlSSpfJ1duSV/PeqNDOlulUGohIt/PL2JSRihhi4ScxWqHbv/H2wN6vT6lSkuK/+bLbZmw8/w1L28L+ft2rSQ9Zaq5HJ1Gi36nS6/VoN/tMhDBup3G5Hg2Tatal13ny/Uo+2+GgELAKThdBwHF2KpRb3FsDDG752JTFyFdbpPK13B4UwRjZWov8jpMVF1qtRZGa5zZTS8rxxGiuaZM6CJu8VUeKuKYMJ5ftgmKe8jny2jMYR5vODnQx4hn6s+feIoBcTym322RsGtwbMzh3Nom5QuRj0ZJ2o3kIxGqhRyVdAjn+iz2tWWidjet5ttFeUyB/IMtUgg45dVfFwHrMjeEnwdrVpaO/XhjJez+HMfGGIFEVcYK1uttvKEC4VSZULzIsSbAw2UbD1adHJjihBMlmQfe6s0Sz9aoNCZpp0UXVoQ7lSoNYomyzB2RLjZptbtS5t4TyOGPlPCFMhzq/NxdNLOtDsu6Oq06qXiCXK5Ap3suHlAQsNMgajjCsvAQ68oKYbOVgEaF4cldPOpTsrEo5VQI8/x9jHNPCJlstBqK6WLKZ/RGRQoBp8B0LQQcj2l3ujj9GRnNYPamCSfL6O0pNk5C0s6XL9YJh7Ms7Xo4Mcex+9Lsq7w8XLJyZ97C3K6HU2OEQ02IuW0Ph/oIVm8Gf6xEOF7CH8piskVZ3/eyfODn0BjHG8mxf+pnftPJ9mkYuy8j6z0xR3EGC+TyFaqFLHZBLF+IeqN1rnUdMxSiTCEvUYOamNlMLhQmatJiePY9zuNDMrEozUqBiOGUsF5LPhKj1+0rtsMp39GbFCkEnILSdRBQVCu6hiIiYmJwH9JoiPi+NGuHfjzhIvFEAbMlwpczBtZPApjdSbaP3DxYsvL9ko2lPTcbBx4Wt13cX7bxcMnM7Iad1X0vm0de1vecPF4y8y9fn/LrrzV8+czCxomf+4tmvnlqZOUggC9Spt7qyXsQ3dR+t00pm8JqNOPzBqnXzxNQ3rRM1imcx0ci3nA4pJFLETUdE7IYyKfSMqhYGPTFKjx8lOXdEVAIOAW76yLg5aqFQ3YkVkJliOAJFUhnKwSDGZ6t2lgTvqG6EItbTh6vu1g9CmJ2JlHpQxxpgxwbwyxs2bg/q+fOjIa7szruz+n5ekbL335yzN9/o+PrBQdbp0H2tGEMzhT5cotW5+Js62g4oN2skUllKBbLdHsiBfflO72438gniej28GlVZGPxt4rqv1iTsncZAYWAlxFBGMQnKap/bIbcC1WPod3sYrYneLLmZFMTxRXK4wtmeLxiZXbLydZpgF11kFNLEk+4RC5XQ2eKsH7gYfXQx8aRl/l1K/eeark/b+DJqoWZZQu/u6vldw/M3Fv3ojLHMLkzxDK1C5c/2xn2e9RKBfzeAPF4iqaMB7yagaN+h4LPgvXJV+ge3iWoN9A7p6R9Vq/y990QUAg4Bbf3QUCh91nMV9k88PKbOzq+W/Nxakth9yR5uGJjbseNyhLHFylQqLSkXuig28dii/F01c638zbpoK2zxNg/8bGr8svxodoUZXnHzcy6h8VjEXWfwxMukMzVz43tfnjIfqdFLhHh9OgUm9U1Sejyiiaw36yQ1O+j/vhXHPzm17g2t2g1mlPr/uEqytabIqAQcApS74WAQqKi2SEcK6G3Z3CEyiRyDXKFuuyORlJVitU2jVaXbk+MrSZ2hUq5KX/jDpfIV9qUa21yxTq5QoNytS3XWLKMK1TEE6tQrHWkQ3W7O92XVHZBG2/eBR322jTSUdImDQm9jmI4Qv/8zOkU/JSiN0dAIeAUrM4TsHeNCStFvUKESdj/Gu2BDLbt9Ya02n16/Yk6tpi4kevz+xo9V89uP5erF7wcygh2cd5kokeoazdEEtB2f6KyPZrUMeXRpLFQBOH2e/1JRMUrWj/xe2GYH3Y79Oo1urUa/XZbmXiZCuy7FSoEnILbGQGbzaaUaBeEUBYFgfeBgELAKagKwoncCEL6T5BRWRQE3hcCCgGvQFYEvo7HgnxK63cFRErxNSCgEPAKEEWvUwSPd7ogZt0VGl4BlFL8oxAQBPx3hhb/ernGv92o82m4R7z9snPDn7zuKrrKkH9v6/Cvlmr82UaF37lr0O8IIYbX/fTFcdH1E12+VqslV9ENfNvxlzhfdB1FHeLvu3pqdDpjUqkRDt+QaHpEX2Hgi/ekbFwfAucJ+N9t1Pki0iPZeZkzHx4B22MioSF7JwM01iGFuph9vD7glZoUBAQCZ13QP12u8d+s1fhrT5fj0oBYe4S/McL3fP3gCNjvjskkh+wf9znQDIhkxrIrqnw2CgLXiYAg4P9qaPFvlqv8Z0tV/idNk79wdvgnf4dfeTv83fP1gyOgGPR1W2PcrgF60wBveES3d53QK3UpCExawP/N2OK/XKnyJ7MV/tPlKn+6UuXfXFo/PAKKFNJ9sNsHbB/2OdQPqbeVT0ZB4HoREC2gIOB/JQj4rMKfzFenr6+77G2bhBHPKwhosw3Y3B+wpxlSqg/oDSYTPGKySLHPv+6rUI6/DgGFgK9AqN8Ft3OIRj/C4hlRKNaIx0K43C4qtbp0CXvFz5VDCgKvReAlAi5U+U+mrB9eF1SMAZsjXK4BZseYYGJEJhXnaG+VBw/u4Y3GafUuiiq9Fm3lBAWBSwicEfC/EF3QuQr/9XqN/36nzv+4W+d/2KnzZ8/XD46AYhY0mxpyoh6gs0Ii3yfks7Hw7AGffv4l7lCMthIXd+lzUnbfFgFBQDEL+q9Xqvzny1X+Z12T/+ju8NtAl1/7f1g/OAK2GmN8niFrOwNOzWNylQ4eh4H1tWXmljbJ5EpTcze87QtQzv+wERAE/F8MLYQd8L/dqPOHUI9gcxIZ0xmOaT9fPzgC9vtQKo1JpMYUysgo8HKpQDqTIVMoKVHhHzZvru3pBQHPu6J9Hu6RUFzRJhqbwhdU9DInukNCYGmgTLxc26enVCQQOGsBFV/Qn/B7uKnmC3FfL9afEI8P+VKXCfhxqEdUaQHf3ychJApFPsDBYKJm/a5XEkQRshWja2LzYIj09Ol0x4i11z9r+d/1DpXfvQkCCgGvQGkwGFKtNgmEC/giJbKVNn2hB/GWi1CvLpaaZEtNqfVSqbUQGi7ZQpPOi1S0k3qFcFOl0iaaqhJJ1ynXRYbcSxd8ri3jDeTxhMtky91zJ0x0Z2KJEr5wgXi2QaMzfGUo1XgEYsIpEB5hdA7xx0d4AkNcvqE0vTREQIuyvDcEFAJeAW2n0yUSybK27WJ5z4c1WKTW6TMYidZhKGdAhTZLfzCk0xvQH4xkWb8/lMdFea/bIxDKoTHH0NhSZIsNookSRnsCf7RMsdKWYr2JTI1as0ej1cMXyLJ6GGD5KIwrVpU6L6LV7PYm12y3OoQjOeY2XayrIvgSdZlwRbSGnU6fbKbK8WmA5W03KluaVKlDdzBiMOjL8evlBlME/BeyI47UAxZ3+1j8Q7TGIXvHA/aNQ3KVt/+ncwWkSvEUBBQCTgFFFLXbXQL+NLPLVmY3XBi9OZnlKJqq4A0XpYJZsdyUhLJ4slKHs1huEY0V8QSL+CJFSZTlLQd35y3M7/txBPI4/XkMjjTJXINovIRKF+KLpxa2DQm88SpCdvCzhwb++MiM2pkjmipLGXqrP0+m0CQYybNz7OWrWRs7+jjxXINApCgJHUpUicfL7O57eLZi58CcJJarUSyXSCZiFKs1Ov2LEhuCgOnkCKNlgMk+pNGGXH6M3T3k2DQkU1QIeMUnci3FCgGvgHHQH1As1nF6M7iDeUm+WCzP/mmABysOjsxxNJYYO8c+HqzY2VGH0JqjbOw4ebbuZG7bzdaxh4UdF3M7HtZOQugdaY4McTZVIXzRMm5fhtUdF//Pxyfc2/Bji1SIJMvsnYbYOg7ijxTQmsLMbTq4s2jnxBhj69jP5zMG/vGukdn9ACZXSmqNzm972dZECSUq+AI53P4c0WyDYkW4z4Uxm3SEE2nq7YshHc3GGLt9yLFmgNUzlDO+oszlHbJ2OMAdGdE438u9Ai+l+N0QUAh4BW6iqzbp+g1kfoeu6E56kzxaMPF3X5xwd9nO8p6HlV0n9xbNPNtwsLTt5MmiiQeLFu7Om7k7Z2D12M+eIcq+PorGnpEpwrZVIVyhAt5gjkN1kN99b2DpOEIk16TZ7hGKFvEHsuRzZQ5PfdyZNfLpjJGNI79M5PLlExN/fOZgds/PoTbIwqaDB0s2Fvf9eOIVqk0xdhzL8WO30yadjGG3mYmlszQ65wg4gkpxjEo1YPOgj8k9cTDvtMY43UOerffRu0cUG1eApBT/aAQUAr4hhO1WVyZS+e6ZgV99ecKXz0S6rxB2bxqHJ8mB2sf6gZsTYwSzM8Gh2s/dZzoWRSKV0xDbqiBaZw67P483mCWSKJPJ1YgnSpwaY4hx4GA4olptYXOlMNrixBIFbO4kajGGtMSxelJY3Un09iSn9hxaWxqjJYbeGkNnjqC3xrGFSlRaP4jyCkmOXq9Ds9mg2+1PBH/PnnkMtfIYlXrAxkEfo2so8wy2mmPsriGzG33MviGlxhAhaX+WS/7s58rfH4+AQsA3xLBRb3Nw7OY3Xx/zFx8d8M2ClcU9D0u77ueZjDxsHHp5tGiRXVTR7dw68vJ0zcadOTPfLdrY0UTkhM7dWQvP9oKSjNFYnsVNpzxm8uYw2RJ8N2fl8ycW2Vqa3Sls3jQWdxpXIIs3lMUTyuGOVgjGSjiccZ4sixbXwupxkHCmTudcZt1up0UyHsViNhFNZqWA7/lH7nTA6x2hNQ7kzKc41mqN8QZH7GuHxLIjsrkcVrMOnclCJJl5C5Wf81dStqchoBBwGipTykQLaLJEmFm2yTRgovUTGY3uL1n5Ys7GriaMShfmm0d6vhVZirQxQjGRcDPI/JaLuV0vWmuCjQM/Xz+xMLMTxB4sks5U2Dr0sq4KcWROojPH+H7BzldzDg5MSXyxIrF0hVC8TDxdIZWtksrVSBdblKstEokCi5sOHq062TMmqIhstefmTTqtJtFwEK1WTSCaotY61wWViWggmRhhNItJmAHNzph8YYTDM+LEPCZfHhANe5h7cp+ZuSWMLr9CwCnfx7sWKQR8Q+SE2lq73ZP51rOFBoV8DYszwa42jClQIJGtEgzlWN/zYvbkKNYFEcY0Gx2Zx0Hkia/UOmTzDYLRMpFUnWqjhzBblMstaRfMFJsUSk3CySrBRJVcuU2r06fbH0hTg5CgF6vIHdEVxnxp1B+QLzbIiFwRjS4X5zhhJOTw2y0qlYrMnjsYnmOnIOAA0okhR6o+G0cDwpmRnIBR6YbsGcakcm18LhMPvvuKmfllrN7gGyKmnPYmCCgEfBOUnp8jSChIJSZnRIKSbK5GOFGhVBd5GXoUyw384QKlaudFKyR+I88fjOT4azCY2PTObImCDmKcJsqFLXFCquELgonriQmhyfo8b8Tz/BFnty7qF7+TCV3OCs/9FbniRQS/rOtcudgUhvhGbYzDM+TEOJn1tLmGmB0j3FHhkF4nHvJwuLeLxe4mV6peqkHZ/TEIKAR8V/TGIzmp0W4LA7eQLBzLlqnZ6l5JhHe91Pv+nbAFFstjYukRqfyYZGZEJjem0oROu02tXCCZSEgVAOFgoCzXh4BCwOvDUqlJQeCtEVAI+NaQKT9QELg+BBQCvgJLOeYTEQfXGHUg6hTrmy6T898mN4XI7DSk2x28yDn4ptc6O08+txjvyjyDZ6Wv/iu6sSKKotke0+qMaXcmeTVeciZ/dTUf3FGFgFe8cjEx0mn35KxkvtSiLsZ6b0Gcs2pFVIUYJ9abPenlIjLXigmY1y/P82R0erS6IvHmZAKo0+1TrXdlgs/e4HKoxCShZqXaIpNvUKx25cTO66/1wxmCfCJLb77cIF9u0ugMmHKZH34gtsZQqYyJJoaEEyPi6ZFUEogkxtRbb/PP42K1H8KeQsAr3nKn0yMSybG642Z534ctVKR1zsB9xc8uFo+GRCJ5tKYoR4YoNn+aSKpEqdq6eN7UvTGdZotQLE8oWaYqMup2engCOZYP/Ozo4gRTdS5ZFRgP+8QSRey+DKFUVWbhnVr9FYXCbGHzJFncd7Fw6MUeKVPvvqLFHoMQsHK4hmzu9zmxDLG6huhNQ1b3+zK8qaOIx12B9ssR8UpA7nOoOu0uwWCWuVU7c1tuTL48mWKDdL5OOFmhXOtQrrRIpiu4ggWS+YYkViJZJhAtSfNEOlPmSB1gacfN+nEQlSnEoS7AgTZMOPU8BKnZIZaskC40ZUiSaHUT6Sq+UIFAOIfZGcfsSeGLl4jEChxqQ3wzb+PeqpMjY1wa6EV8oTDUC0fsTL6G0Zni1JogkKxSqral/VKkxhaxifVGR9oyY6mqjK4Q6bJL5QbheFnGPSZzdTSWCLPbdp7suLCGS2TLdQr5LIVikWbrojy46BR02mOsjgHbRwNcwRGJ5AiPd8jmYR9XSCiKv4LAV36aH8YBpQW84j0Lg3c2W0VniqG3p6RxPBTJcaQNMbvtwejOYnWlOFQHpBfKoSGKxZVk79DD/JablQMfJ7ogy7tuNk+CGF0Z9OYws2sWPnuoZ1MdxRXI4/almd90yUgGR7BALF7gSB1mbd8v/T9VxuCEtLowekuEPU2QJ9teeQ8re142D31sHnpZ2vWyqQpj9+U4MMQ5MCUIJmuI4FzRIkaTZaKJIv5QFoMtzvy2mx1NVLrDWexxVvY8PBPP5cli9WUwOBNoHAni+TrpbA6Xw4rb6yVXLF5AbDSEcnkkvWhOjUMqtTHDPhTyI1T6SYRFtqQQ8AJo53YUAp4D4/ymGAsJ47hoOXo9ManRIxZJM79h45+/VfNgzcnqoZeNQw9P1h0s7rhkZMTsioWn63ZmVqw8WjTJKIh4rinrCoezrG87+fqRQRJo/cDLs2Urf/PxMR/dN/Jsy8u+OsCuOiTJ5wtn2Tl2MbNs5smmG6MjgSdcwBkpSYP/kSrAo1kj9+bNPFl3squJ4A4VUFsTMlzKGSri86ex2mOcGCLoLGEZXTGzZOH//fSY335v4OmWh7VdNzOrNh5vujF5smTLbdq9SaCxCDquVSuEgn7C0Sjlau08THQ74HINWd0bsHEs5Psnxv1sZsT6bp/14wHOyOiVUfkXKvzAdhQCvuEL77a7WCxhvpnR8defHPH5MzOrR35OzVEONEHW990s7zjYOPCwpwmwuufk3jMdq0cBPLEKrU6PUDiLWh9i68jHvjrI0qadLx9o+MuPVfxxxsLsjpf1Aw9qSxx/rEg2X2Zr3863T3XcX3FicafwRgqYvZPWd3PPw6N5E6sHPvTONNF0jWKlicOXQWNN4AhOgoLNlgiL205U+hB7J16+f2bkrz9R8dEDE/N7PjaPfMgW3J8nW2zSvTTW7XRa5HOTLmirfbEL2utCIDCU3c8tlSDgGNEqZrMjtg9ETo0R3phwm+vT7XboCbEZZXmBgELAF1C8eqNeb3Os8vHJ92r+5rNj7iza2DgJyPCjndMgOyc+Gf2wtu9hRx1k99TP2q5Ddke31RGsvpyc3HB4Uzj9GeyeJPvHHr5/ZuAfvtVxZ9XDlibKgTqAyii6hjkS6RKHpx6erFlk91CEOYkg4MV9HysH/kn39sCL0ZkmV+5IuYx2qy3DkwTxVY4s0eQkYmJ+3S6lMAyWGAtrdv7pjp4v551sa2OoTTEC8QqV9nDi83YJChHKlEolyGRzNJoXJ5CEL2kuN0JjHHCgG1CqjRn0x+SyI47VQ8xuiGW6FAtpPB4P0VjynbR1Lt3SrdlVCPiGr1JosegNYe48M/Hbe3pWjnyy2/ntUxO/vW9k7TjIoSbIp9+d8seHJhaPQgSieXaPvTxYsHJvxcmpJY43nCMYKxCIFXD7Uhyd+vnkgZF7mz4O7Wmc3iTzm04erjhQWRLYfSksrjgqQxiNiI7fcvKHhwburDjZ10dkbKE3mJcmByHylEwU+X7Owt9/rePBbghPtEQwnONEEySSrJBIldEbw3w6Y+LrZRe7piQOb4Z4pka1NXgp49N4PCKbTaHVnGCwWElmcxcQE5qp9foIi3PIiX5AvjxGBPRmUyNUWiHsBMlsBYv+hG+++Y7lzX1qvaESUfEcRYWAFz6nq3eEM3OxKCIZSjiDeaLxogyCXTv0sWdK4okUcXnFGNEhJ0HC6bocP2ZzValQ5goVEdEO1UaHRrM7WRsd8sW6nIzxxiukSi2q9TbhWAlvqCBlMMR+rd6W9shsvoY/WsTizeKNlmV3Ufie1uqdiVDUcEy91sbpy8voe3esSqkuZj67MmKi2ekj7IjlclPO3LojZeL5BpVam1ZbCEtNmywZ02o1yGRSZPN5mq2LLaCYBW23xlhEGreDPlbfkHB0hMM5ZP1gSDAJiUSKw81lvvjyG9Z2jmgNlDHh2ZemEPAMibf8O+z2SKZKeMN5CsIw3uqRy9ewezMUKhc/0jep+szj5Ydzp5FB9BAn0RE/nHdxSxBCtEoTL5bxKyc/RF0iQuJHLWMY9MDvn+jK6BxDnN4hVueQA92IRG5ENp1Ce7jH+sY2FqeXqTz/UTfxy/2xQsB3fHej0ZB2ZyIlKDxSRJSAmDGtPm+N3rHaX+zPGo0xqcyYaGokoynSuRHJvHBJG9JuVEnFYmSyeeotRWj0/EtWCHgejbfcFq3Hmb+kbE2kENLb+Xq+5SVv7Omi1RUTnMIftNubKGtP1LXFrOiAXle4xU1iEm/sQ/wMN6YQ8GcA/X1cUvQkJ3GJk7/nZSnex/WUOq8HAYWAr8BR/FcXhmgRbCs+6HcZLQlivG7cdv4WJi3pJLpdXP911xT1i2l/0QUUXiiN5phqbUy9OZZO1K/7/flrK9s/PQIKAa/AXEQxlCtNfMG8nJHMlFrvZL8S/qJCclAoYQt5+Vctw8GQQqFG8Hk+ilSpTfc1MxaD/kRUyWQborUMCUWGGCxDDLYh2cqYNwq8eNVNKcfeKwIKAa+AdxINkWdtx82qiIYIFqXoUaM9CQeS+i0y1KgnxZbaXTGNL0KPejL0SEz9i7Agkz3BgTaC3pWVIkzCra3R7ElXL9GyyiQw9Y4UX6rV2vi9KXYOvKwdBTEFS5Trbfq9Lp1OR+q+XJ60bLfAKWYcNQNU5iGx5Ai1fsD+6YBAYsR5Hd4rHlUp/hkRUAh4BfhChtDvS/Nk0cLjVSd6d1bKAgr7nMmZlbKA+UKdUCSPzp4imBAZj+pSGc3uyeLwZvH40syu23iwbGPfECdXapLOClNFVkYqCHNFsdTA5EjhDhcJJ8o4rFEW1+083XCjcedJZwsUc2lpS6u3unKc9+KWx1CtjNEZRBrtAd648F0d4/ENUekG2LxDGi2lE/oCrxu4oRDwipcyHAgn5DbhaIlIoiIN2bFYjoPTgPRSOTTEONaHWN118s2smZVD30QmfsXK/UUbs9tuDjV+nq3bpc+oM1wklS6jNYR5sGBmYc/LiTGK2hDm/qJV+oFq7GmS6RrRRBkRLpSvtMkk4ngdVoxGM7li7UKXst8bk0qP2D3uo7cPyJYnNsJYbIRGP+DUOPFMueIRleIbgIBCwCtegpxVHI5lJIToJnY7PXwiN8Simb//UsXdJTtrRz52VX4Wd9ws7bpY3nGysGZjbtMpj50Yw6iMEdSmKBpTlBNtiO9nTfztx4f85p6eR2t2mcBlTXQ5D32ozAlSRaEFOpBShkJqsFYukoiGCQbC0kvmvMSD8EAJBIfMrfdQmQYUqpPWLh4bcawasH44IJYdK4bvK97xTShWCPiGb6HX6WE0hfn0noY//+0+f5wxsXYckCFCOnNUOmOv7rnYPp60hGpLDKMrJX01daYIc6tWHi5Y+Jdv1fyfHx3wq291fLdkZfvEi94Wl0TV2pIkih165yZeuu0m1XKJYqEk3cjOmxeEhLwvMOTZSo8jw4Bc+TkBo0OOTgasHQyIZhQCvuEr/llOUwj4RrCPqdVaHBx7+ONdNX/7uYr7Kw6ZHWlh28WdeStLex42j7wye9LdBRsLuz60liiH6hCL224eLdtY2RN/rXz2yMijLT9bqhA7Rx7p4D2z7uLUnqbSHLwQ9RWqucVMArfogpos5Ep1zkcKST3P4lgm1LR5R+RrEwJm0iNs9iE295BaQxkDvtEr/plOUgj4hsALqQi3J8XGoU+GBp2aorK1m1mzc2/dzYk5htYU4funBh5velBZU9JhW2OMsX0S4tAYJxgtYHUm2TwKsGdMYfPlcHnSLO962dPF8CdqF1o/QcBKIUPI78Xp8lCqNl8SSKrVwGAccmoa4oqMqDfB5R5yqhvg8o9oKXIQb/iGf54wfmntAAAgAElEQVTTBAH/naHFny7X+LcbdT4J9Yi1Xxbb+pPX3Z6uMuTf2zr8q6Uaf7ZR4XfuGvSF39/LlV1VlzBCi6iDVqsl136//1YSfqJeUYeYshd1iL9C3exaltEk0kDotQRiZTKZCmZHgi1VkBNHlnCqIsN+VnbcaB0Z0qUWotsajZfxhEok8y1p1BdxhSKjrTdaISuiH2qT/US2Qb19Sb1IPEurSaVUpFAo0u71X0JTJNO0WAbsnQ5QWYYk0mNphtg9GeCJjFBcL6/l7b+3ShQCvgW00kvlea6HQa8vxYxE0pV6ZyAdsyvVpjRViDwRcpGRCSJR5g9RBxNPlx/KzvbPfEov3444/mK9fBAYDCCVErkchuhtQyKxEWb7ELNrSK6qGOKnQHajim4lAbvd7vW3gC+9tokR/SxXgiCJnC3tDV7vP/ZSXe9eIGZrO50x5eqYQmlMvT6mVJm4pclbUYaA7w7uT/DLW0lA0XXt9XoMBoPX+lL+BBgrl1AQuBKBW0dA8aRnXbYrn1o5oCBwQxC4lQQUwib9bodmtUyr2aDfvzS5cUPAV25DQeB2EpAxrWqRpM9O1O+hmM//YFtT3rmCwA1C4JYSEGr5JF7NDrrddfwuh9SjvBxJcIPeg3IrHygCt5aAvVaNbNiFVb2P32mVs6JibKgsCgI3CYFbS8DRoEe9mMSh3sNpOKWQz0kj/00CX7kXBYHbS8Bhn3opjeVwBcPBOtFQiF5fkUVXPvmbhcDtJmAxjfVoFdPRFvFoBGEfVBYFgZuEwO0mYDmLS3eA26RWuqA36atT7uUFAreWgINem3I2itt4Sshjp9VsvrVj9wuUlA0FgfeEwK0lYL2QwqvbQ721jNtqpt3tKgR8Tx+RUu27I3AjCdhsNhHru4QjTaAY0yhlidh1eEx6KYsu5B2URUHgpiFwowgowBHxgO22yGvenjhTv5PtbkxPSDnk09RKRTptJR/BTfvwlPuZIHDjCCiM5YKEYv0xhnPpkD0aMRbrO5FY+UQUBN4/AjeOgOKRJXne/7MrV1AQ+NkRuJEEHI0GtHsNqs0y7V6boUg6riwKArcQgRtJwF6/SSLvx+A7xpvyU27VbiH0yiMpCMCNJOBw2CNdCKP3HGAOGclUssq7UhC4lQjcSAIKUZVKLYcrrMfoUxPLR28l+MpDKQjcUAKKTKsN4hkvRq+KQMpLd6jouyif6+1D4MYSsNutE087ObKsYvBrKbbqtw995Yk+eARuLAE7koAuTh072CJmSo0q5WKBUrFMrS5EbpXg2g/+670FANxYArY6daIZL86YlXQpQbtew6w+RnWswuGN0BGil8qiIPALR+DGErBSz2IPazFFDCQKUcrpJHP3vuXud/fZVVkQmWqVRUHgl47AjSTgxAwRQufdxxa3kyomyMaCzD68y9Nn8xgdATqvybf+S38xyv1/GAjcSAJ2e02S+SCWoJpoMUG5ViKfinKqOsbqcFKuNRT/zg/j+7z1T3kjCTgaDen02tTbIl1Xj+FgQL/bplav0WoL1zQltOjWf5kfyAPeSAJ+INgrj6kgcDNd0c6/FxkZIVJ0nS9UthUEbgkCN7gFFDn0+rS7TRkR0Vc8YW7JJ6c8xnkEbiwBe/0W2VIER8RIMBOk0esxUgJrz787ZfsWIHBjCdhslfHHDBxYN7BGbDREemalH3oLPjnlEc4jcHMJ2CwQjFmwBkzE8kmFfOffmrJ9axC4kQQcDtpkC0HMviOcUTf5WvnWAK48iILAeQRuJAG7nQrhpJUT2xrOuJdSs3H+npVtBYFbg8CNJGCnUyGUMHNkXcERdVNsKKFIt+aLUx7kAgI3koDjUY9yJYEnbMAb91FQuqAXXpqyc3sQuJEEFPC2WkVCCauchInnE4oh/vZ8c8qTnEPgxhKw0SzgiWo5su/girvpDkcKCc+9OGXzdiBwYwnY6zXJFEJYQzopTVjrdhVD/O345pSnOIfAjSOg8P0cjcYMBn3anRq5SppCvUi731dCkM69OGXzdiBw4wg4Go3odnv0egrhbscnpjzFqxC4UQQUrZ9IytJqtWi1JtmRXnXzyjEFgV86AjeSgD8+P6BIczai0+nTaPZodQf0hyNa7R7laotStU1/+INjqejy9vtD2p0BjVaPersnJS9e7fs9Zjjo0Ws16NRr9DsdhoMhIxG18SMyO42GQ0aDwWQdDSd1ifpEEPIYhr0u3UaNbqMurzlS8h7+ojl4Iwk4aQFbPyJBJ7SaXeKxIk5vlmCiQrHRJZ2rEYgU8MdKtPuTWdXBYEi11iZXaBBNVnAFczhDBeK5BoPBJLXZJCbx0nsej2hV8uRDbpJ2C8VYnHq+QDURpRKLyu1+f4DoUo/H51KkidhGSaznZWJ/PInwH/Z7NAtpyiE/pVCQei5LLR2nEo9SSSTp1BrUsymybgtJl5VSMkG33VHGxpdezS9p99YSMJutcnDk5f6sheXDIK54lVC8hC9ckITsDccM+gPy2QpmewKNOc6OOsDMmoVHay5OLSla7S6dTptOpytbyPMt4pgR+ZATx/pT1Pe/wXWwT/D0FMu9L9F89Rm21VVyiSSNckm2kN1WS+RdY9ht0y7maObydOsNBt0u3VpV/m0VMkQOljj9w99z/Id/wrm5gnX2Lto7n6D67jvCZith/QnmuW85ffwtbs0plWKVsRIm8kvi3IV7vbUELJUamMwxtg59qMxxvLEyGkuMY1McS6BAp9cnGs2zte/m7oKNtZMQKmuMXbWXXU0EmycrhYD9fh++QIhcqc7FNNcjyskQQfUejs0VAlo1IbUK84NvOP3yE/RPZ/Dr9USNOiJ6DRGTiWouQ97nwL+9hHN5kYhOR9rnJniyT9xmIxcMkLapMc18g/beV/hUezi35zHN38fwbAbX4QHek31ce8vYd1eJOu3UK4pA1YUv+he2c2sJKMZ/+XydRLpCtlCX64kuxNZpCK07S7lSR28Kceexno8fmdjQ/P/svYd3W0eW7vsfvzVvrfduz515c7t7errbdrct2+2oYInKEinmnAAiZ+Ag55xzjiR/b1VBlEhZjpJtmQTWggAQ59Qp7FNbVbX3/r4vRSjTIFuskyt3KFfb1MsFHA47NpeHdLHGeHJep/BU7sWahQzVdIJqMkbGYcE1/wDLgzs4VhYJaNS4Vxew3P8G0/27xKwm/Lsr6D57j4Nr/8Ty5AHKxiLqT/+B5dEj4nYnrUqBlGIhaj6iEPGS8jtJuC0k7EZ8h/tETEaKsSjVTIp2rcZoOONH/Z353IXuXloHFMvFs5yi+MVir5dMVXAHciihPNFUGYuSYlcbRm1OYAuUSZf7MgcpjhfR2OGgR7lcplSp0em/phBA7t/EHu6UUbtJzmpA/8n76K5/hWdvj1zAh2flEdrPPuDw2gc4lhexPrmP5quP0T98gOXpfQw3P2b9D/+G6to1/IdH1ColcmEvacVCKR4kF/WTjwUoRgOEtFrSbj+9zgARrJFRmQu3c/bh92aBS+uAr96IwWCE4smwfRRiXRPG7suwpw/zeM3F000vGmeedGXw4rTTkwnddoNYLEY0kaLa7H4vHeJQOKDLiuPhHBGtllIsQjnkwnjjIzb/+P+w895fsD59iP7WF+x/8Bcsi4som8tY7n3B+r//G7qvviSi1VEIefDtLKOsPCFh1RPW7+HdXUFZX8arUlOIJTk/EY+HA4q5NJlMlnKtyWTG2PjiHv4e3lwJBxQzVLPVQ22IMrfs5s6aD7Mny54uxP1FB3PLClpXnkJj+OKeHU/GNGsl3G4XLq+fXLn5yh7wxaHyjXDAcjRE3GigVa4wHvZoJLyYb3/C7gd/QnPjS1yr8+i//pitP/0B44OHeA928G4vcfTJ+7ieLZCyWchYj7DOfYXx5ueEVDt4N59ieXgTw91vCFusNCq1czWxJ7TqZczafQ4PVTi8YXqjmQdevDPv9qer4YAnpzSaPbTWJI+3g8wfxAgk63gCBbTmOGpriliuRf/c4D05HtNp1giFggQiMYr1V4MwF2/sZDigV6/SyOcZD4ecnh7Tb5RImjQED3eIGHVEtLtY7nzG1p/+X/avfYSys0vSoxA62CJh1JNzu8g59PgWH+FeeEzCrCem2SG4t05AraZeKjM5T0p8OqGcS7Dy6BZ35+6yc2SmNZjpKF68M+/2p6vhgGKPNppQrnVJFdpkSl06vTHtzpB6QyTmB/SHkwu8M2LWFPWonU6HdrfLcDz53nybSJSLBPpkNHpx3ImoZ23U6dVrdGsVil4r9gdfsf3nP6D6/EvCBiutWoNOpUSvVpXH9usVWtk0zWyabq1Kt1KkUyrSqdWYjC8GXCajPul4kKcP77K0so7LH2M0W4O+2x73Su+uhAO+8pt/s4/dcoak8RBl8TFB1RGVZJbjcxU5P7Vjk/GAcjGLyWTC4wtTqXfOLU9/amuz438LC8wc8Ne0ukB6TMaI5aqYXcUs+yYPcb6otBH5yVku/k0s+dudO3PA3872syvPLPBuaUOI/9FfoiHerBb0atxbmey8Gj/1kv7KSzsDTp35RNZwiqLq88HDt3Uvp0vAKYD456wmz/o4Gh8zln384SWpCPaIQM+g22HQ6zLs9+h3WoyGoojgfKXO2/qVs3Z+SQtcWgeUaIh0FU+wSChZp9YZvfUARaczIJ1rEs+1aHxn+9/tVAJ0nC81sfnzEoFRqvd+sI+jfptSKoTHqCasWElHvHiNe8T8CvVaXRZ8/5IDZtb227XApXXAarWNyRJjedvLvilJrNiVuvLd/phWZ8hwJPB/01SEwACKNIT43GwPZIpCzEoCa9ftjeTxrc6AQrFJOFEjEK/LWlFvMM+mKsST7SBWf4lKQ5w7evFsd/qEYyX80TKZcpfuYExPXL89TXs0Wl284Rz3NhRWtVH8qTqjyYTBYCAByWI5/urM2m9XSQfsWA42CbmsFJIhXOo1vFYD+WxhFox5u/7xi7d2aR2wXG6h1Yd5sqqwpY3hTzeJp+sEohU8kQr5cptIvIzdncURKBDPNkjnGjI5749VyRTbNBpd/OEiLn8eT6iISh/hwZqHb1Z8GJ1p9rQhbs/b+GjOwtJhBFewRCRRxRet4I9WCEZLPF5TuLWosG3JkCl1yOQauAN5Qqk6qVwNxZ/m5pKdBVUId7xCp9chk82QTGfo9QcvalOnI+GUdi1P3GNGMRkopNMMOg3iTh1+q5FkNMloPKuE+cW95i1e4NI6oKj9FJjAeLpGOt+Qg33/KMizbR9rR1EcSpr5dSfvfX3Eh3fNbGrCmJ1JNvZ9LOz42dZFsTiT3Fuy882CnWc7Ae4uOflwzsL7c3bWNVFMShqnP4vdl0VlTbBjiKA2RJjf8jG/7WdPF+XTu2bev2Pl/n6MULqGy5vh2Yabx9sBrL6CRGmEkwIA3Jb1pvVqCavdhtnuoNZoSWT/mfMdj3oU4148ul38LrHkbHA8GlCMKHgMKjw2C+125xWnfYujZdbUW7fApXXAM5oJsdQUkJ1GrY3WEOLZpkc6k0aAb5ft/OOmlg/njMxve9g48HPriZVrd818s+Ti0BBhYcfH5lEEq5LlQBfh2V6QhcMYTl8ef6RAMFYkkamitcd5tuvh6bqTj26b+PyRg119nMUdP+tHUazBCulcnSNDmE++0fPBHSv7lgyN9pDBcCxzeePJhF6nRTKVJJ5K0+2/RGeIteio1yDpMWHeWcCnuGk0O5wejynHPTjUW1jU+9RrtZkDvnU3+eUavLQOeNFkpwy6PVxKgtU9H483POweBVnb8/FoXeH+msLClpsHy07+cVPPn77U8fkTOypzDIOSI55tPae4KGP3ZNG7ciRSFbyBHAZbArMyRdPPb7m4+cjEH/+l4do9B1pnFpuSJhAuks4Lx6qwuuPhT58c8qevDGwaUjS658rLhJMN+1RrVaoC63eeivH0lHG/RdpvwbK3iNflkpjGk8mIUkzBebSDXXdEo1aj3WrRbLZod3syrXPRFrNP75IFroYDnp7QbrUxWiLMLTr47JGN1X0/u5oQW0dBVg4DLGy6ufnIwl++1PLXGwZur7jlPs8VqlKsT3lXysU6+7owt5652DPE2FQFub/k4ItHNhZ3/awf+Pnyro4/fXbEF09ccolptMTYVgd5dhjm0Bzj7qKdP35ywAd3LBzYsjS7oiJmOiQEAqNWyWOymjFa7VTrAoFxLrVwOqFVThP3WAi6PdQqNY5HfQoRhajbQToWY9Br41EcHOwfYrZ7abW779J4m/XlFQtcGQfs9/r4gzkOTXF2TUl8kRKR+DRQ4gsXcfvFbJZkTRViSxfD7MmRyjXIlUX0dCLNJtrwhQrsamMYlRwGR5oDfZT1oxjuUJlYsoLWFGX1MMSRPUO+0iWVrmB3Z9gzJXEFixgcSdYPAuwak4TTDYbj4xepB8Go1m7WCAQD+IMhWp1vYxC79QIJjwWHTkNaEDfVikSsKoIOC9lkik6zwt7WOt98c4etAwPVeuuVWz77+C5Z4Go4IALZMKFa65AttshXuzLlINIOne6QTmdItzuU7Gi5UotitUOjPZB7s8Fw8gIHKJLgrVafTK5FpijaapMptEgXO/T6E0lLWK935TXKdUF9OCUZrlQ7xLNNqs0+tUaPQrlNsdaTaYnzg0Ek5sejIY1Gg0azyeg19aK9ZpmUz4r1cIew20kxHcWj2SToMJNPZ6gVc2ytrnB37j4as0JzNgOeN/E79/6KOODU7mKpJwb52ZLv7G6cpcrPf//qMS+OPdfG+eNf9/3r/va6c86OO3ud9vGsV2d/nb6OB12q2RhBm4GY10k2HiRo15KNh2iIvWM+h8NkxmKySQyj+E9g9nh3LXClHPDdvQ0/vmeCU3Q86NFp1um2GvS7LTrNKoN+V+IFR4MBrUaDVrMlZ+DXu/GPv97syF/WAjMH/GXtO2t9ZoHvtcDMAb/XPL+fLyX7tmDclkzcpy8CO7+fX3A1e3ppHVBoQ0yDLCNE/aegavill2PTa07oDY8vaE/82KElGK6Ho4msPxU1pYPR8Q9qIoolab9dp5ZPUcrEaJTzlDNJqoU8Q6kw9WOvPjvut7DApXXAdntAOFrC4srgDpcpNoe8AfvDD9+bk1OajR6eQBGrr0go06Q3eplieLUBEWh59SEqdrLpGk53Fps3T6zQ/kGWs8mwTyHuI+QwEHSZKaYj0/d2M9VKVUZ/X73O7PO7Y4FL64DFQpMDlZ87T20sHobxZ9t0B8cMh1MFJIERFERN/b6YIUfPcYPHcvYRM6aYPYfDsfyuJ96PjyW5r/h7uzNiMpmChwWkSBwvoEnRaIn5VYWvn7pYVMdIFFoSGSFSGb2BEGqZkkMJxEVVIifGsnhaqDIJ9IVIYTitcZ4sOri/4kbrLVJtCRLeCePxSJ7/qt+K2S9kUWE72sHjMFMtpPAa97EerBMPhxn0X3KdvjvDbtaTMwtcWgdsNrt4fBmOjDFsvgLJYluWhKlNcbb0ceLZOoovy54mzLYhjs2dweZIsrzpZXk/yI4uisoYY37Ly9JBEK0jg+LLIc5fU0XwRCuIBL7eEmd+N4jKlpIlaaKY+/6qwpNtH0fWBBZXGpMzLUvasoUmvmCB9YMgD7dDaBxZArESGnMcq7dAMFEjFithsiXROTKEsk1ymQyxkB9F8UrSpfOkZ2Lf1xXUiXYDYa+LUqnAeDwkF/fht+uIh/wM+r2zez17fQctcGkdUMxuYkYpiqR3pUO20EBvjrKuCrJliOMJ5tGYYjzb9vJs18ezLTf3Fqx8fF3Dp7f1fPnQzPXHFv55U8e1OSN3ll2s7vlZ2vUzv+OXpWg7mjDPtjzcWHCwdBhgRxfi8YqDWwsOnu740duT7BwGeLDs4saSgtaelDWoouTt00cOnmz5WNv3y+Ltm4tu1PYcxWqPUrVDudaj1RtRKeWlA3o8fqqN7gXm64mgzk9FsB1sElScNNttOcTKmTA+0wEug5patfIODrtZl84scGkd8OwHitfxaEwmU2FfF0RtS+CJV/D5s+gEhEgb4VAb5O6ChWu3NPzrtpbPbmv59LaWa9/o+HTOwKd3jXz2wMjckpMNVQi1Oc7anpelXR/LBwHW1cL5gizvuvnqnokbCwpb+gShaJH1bQ8f3zbw55sGHm97eLLu4sYDE3eWFZ6sKXzzyMK/vXfAn6+bWNMlafTP1X4C/W6barlEoViSlTPn97HDdo2Mz4rq2QMUk556vSl/dinuw3m4gm5rkVwmxUiwpgnhz5NvFyGct9Ps/a9vgSvhgKPBiHS6zK4myIE5jhIp4fFnODLFWDsMsav282DVzo0FM4/W7DxasnLniYnrD8083XTzZFPhzqKNO88cLO352TfGWNv3sauLYnRlUPwZ9JYIG4c++b0zWCJXbJGIFbg7b+UvXx7x9zkjj7bc3H5q5doNPQv7Yfa0YZY2FP77KwNfL/swByv0zgNqT09lsr2Qz5JOZ+h0BxcCSZPRgFouhaI5IOxRaDSmdZ/ldISgTYvfYaZeKcvEfDqVoFSpI/azs8e7Y4Er4YDif/96vY3eEmVNFWTbGMcber4E3fKyvBdgUxdizxSW+oB7Gj+b+z5Wdn2ojFGOrHF2dWG5XFzY8rGwG+TQnMAZKBBOVomnyii+DAZ7Aos7S7U5YDyaUMhWeLLi4uM5E9eXnCwfeLnxyMyfP1bz1YKbbW0ElS7MZw/t3N0OYYnUGJ4n+Dw9oV7KEwn4cbt9VBudC0tQkYLo1CsEhYiLR5FKTsfHYwoJPyGngUQ4SLNaJBxQWFmaR2tVyFSms+S7MwSvdk+uhAOKWyyIcKOxIgfGGJv6OAlBDeHPc6CNSs4Yb7xCslDHHy3gCxfwBgsofgG4LRFNVYlIues8h8Y4a0cx/Ik6hWpH7suK1RbpfJ1Epo4o5hYRTSEd1m52MdhSbGkiEjGvtUSZm7fxXx+p+PstsxQFdQcLbB1F2DGncaeajM9nJ77lgBf3gOIaIgoaderx2Y0kYhF67RpxnxWvVUsmmaJWzGDU7PLxtQ9Y3Dkikqte7RH/jv36K+OAwu7HE4FOmEgCJpE0F4KbIkUwGE0kLeDxc5ZpkaIQNIHiKVinxbHiKf4uEuWCwEmyUZ9MKQnF3kqcK48T+6znN1nk+kYCkT+eEkDF4kVWtj189I2BG88UjJ48jc4QkYYQSffX6TqI2Xs8HsunuM6rj1GvTcprxKXdwWU6Ih8P4NbvoxhUlAolSpkkZq2KB/ceYHcHaXRmaYlXbfhbfr5SDvhbGlpcu93qyTSEmEXNnjzZcveNWcwEIr5dzpCL+UhFfFTzaTKRALlEjF5vQLteIxWL4VZ8VGqNF9Cq39oWs+tPLTBzwF9xJIhSs053JFMMze5IohXexuWFmOho0JUEvYKsd9DtMh6OZNNCUUnQHAqSqtdV37yN68/a+PkWmDngz7fdzzrzx+ABf1bDYuE7bfy15LyvVtD8vGvMznrbFpg54Nu26Ju2JxWUBLpelK4JSv2JLEU7mXybpPdNLzU7/7e3wKV1QDF4RcBE5L2mtBLfDmC8av5p0GRCuyvYsEeyflPUcAqy258zg4glpwjwCEZsGbh5TRDlfB9EWmHUa1HNJihnU/S6PbqtKvVCmmIyQa/TnVEOnjfYJXh/aR1QakNk6nhDJSLphtSGOP4BB5BohFwNizsnazf98SqeSJVEviMLuV89XVDXHz+nsP/W/ur0VBZzxzI1XOEigWSNZm9yIZH+6vg5Hg+o50I4D5exq7Yp5osUEwH8+l30qwtkE0nZ5qvnzT7/fi1waR2wVGqh0YV4tOxiQxMllG/TG44lAkISKJ1M0xIjkYYYTnlTOu0eNkeC7aMwa+owG5oIokbz6W4IJVKh2REkuhOp7zCZHEvmbY8/j8NfIlvp0R8fMxCznUgrDMe02z129SFurzhYOAyRqvQYTo4Zj0aSPkLM0ucfk2GHYtyJ9WAFu05FrdagWUoRth6iWXpAzO+j25nRDJ632e/9/aV1wEqlg8kcY3XXx4EpgT9ZIxwr4vBkMSl50oU2yXRNIiQEskFQEApqwrkFO7cWnDza8rGiCnJ72c3DdR8qc4JgrEwgWkYJFklmG5jsSZ6subm+6EXnKZGrTmkIxff+WIVCuYXaEmVhz8uGIUa22qFSq5JKxikWS/RfgQoJ4t1izIXbrCbgUej2Box6TXIhJ9a9ZeJ+D+3mrJLl9+505/t/aR1QoCFqtZ5EQhQrbclKvbmr8NVDE188dqAyxdnY93P3mZ25VbfkA3287uY/P1bx3i0zD7cD6JW0dDabkkWti3CgCTG/6eH20nRWfbbl5fN7Fv7PVyZWdEl80TI6Q4hbC3bub/oJJusUKm1K9Q6FepfeoE8iHkavO8LjD1BvXuTsHA/alFN+ogGFdColMYicTKgXEgSsatKRAJ2ZA54fv7/795fWAcWe7Kwypd8bkk2X2Vf72daE0DnTGC1Rrj+08O+iLOy2hYWDIHvGKE83vayrI2jtaVzBvMQNCmp5jT7Cxq6Xrx9a+PtNA3PrPna1UQyWBPuWNLFck0y+xtaum79+qeXDu3Ys/jLt3vN8nEAkiNrNdpNiIU+93mA4mn53NorGQvsv6SPidZBMxBmOJ5xMhtSyEQkvSoX9dFoXnfbs3Nnr79MCl9YBz9+O8WBELl1Ga4jgChTIVzuEQ1m+eWLlf32o4p8PnOxZ03ijJUzOpGS/9ocLWJQUamuSA0OcXXWQ+TUXH97S81+fabi95sdgTxEM5tE5s4RSNVngfX/ezH9eU/H+bRtGT0lGUl/05fSYVrNONpuhUq0xeJ4sP/t+6oB+In4nqWRCOuDp8YhaLkrAckgmNuX+bLfb5ApFmq32z4rOnl1v9vrbW+BKOOBwMKKQq2FzpYim63SHxzSqDXZUfv51z8KD7QieeF0yYgciBfKFOsl0GbUxwo0Fp9wHbgvw7aZbYgP/fpkNzkMAACAASURBVMvIsqCjD+Tx+7Ms7QfZtyQ5MMW49cjI377W8fUzN65wld5wSmsvbvXJ8ZhsJoHdYSEci9Nqdy6MgPGgRTnlI+JzkkoIBxQiocPnDqgin4qSz6Twez3s7Kvxh6L8UGT3wgVmH945C1wJBzyeHNNp9cjm61TqIhI51VmPxIrs62PsGNOEMy2a3SGlWlvi7irVNi5fTgpvHljTJPMNIrESR+YEq+oInlhNUkQUi3XU5gRGdw5nsIjJnmBTE+HInqVQm9LTn911kVQvFnP4/V5SmQzd7kW6COGAhZgTl24Pr8NGu9NjIBRx/VbM24tkIn5CHiebK4t8+sUtNAbbzAHPjPs7fb0SDij2gyJt0B+MpDT1dNY4pdsdkC+1SeXbUuN9NDmWyXuBdBBphEq9SyzTJFfpyoS6IHAqV7ukC8JZR1M0xWA01ZuoCGhSn1q9S67UplTrTYVXzuX/BYdLr9elVqtKIc3x+OXsKMbPZNillFCw7j7DqtqlUq5SEzT0pn00S49IBf0EXA62V5Z5tLCK4gu/QF78Tsffle/2lXDA38tdPp4MaZbieHVbuHUHlItlyqkwEasG+/42hUSSdDSGYrMRCMepNS8uYX8vv3PWz5cWmDngS1v85u9k5HY8lExnnUaN0WjEsN+j12rQqdcZDYcMBwN63S4jESH9OfVxv/mvnHXgvAVmDnjeGu/U++naVTileM7Wmu/UzXlrnbnUDigGrkCRT9nAfj4jmHCFX8sHZJ9PkUDdHzfBid83YTIeSW1BobI7eV7qJh33rQ2VWUO/hAUurQOKoEuvJ0Q3B7Q6Q4mKEOgIQR3xUx4C0SCoKSQz9i9M6yeKuwf9EYI5u9Ee0h2K/p6L4rym4wKMK0Q7S+kouXiIWjFLIRmllM3QH47fGHH/mkvO/vQWLXBpHbDR6OLxCurBOHpnRqIRsqWWLMj+KfY7mUwJflP5Fo3ehO9231NJAqyxJlHZMvgSDfqjV44+FdHVIe3uABFxfdW1RMFAPFpEZ45zZEnhTzZkzvL7+jsedGStqM9yJImZhDZEwKrBa9ZRLJZ5NdL6fW3Nvvv1LXBpHbBUbKHRhplf97ByGEKvZDA6U3ijFfL1gUxHiLRCs9Wn3p6iHIQWRLXepd4ayAS60H1IJctYnGm09izJQodKY0C9OZD4PpGqEJoQ5VpX8oDaPFluP3NyfUFhQ5cgVWhTa/TljCbarFZbeIROvSWBN1GXug8CPSFyk832kGqlg8cl6PHdzG/7MfnLlGtt+r0OovpFBF5eXZYKVrSw7Qin/pCA20mjnCNoPcKu3iYeicy0IX59n/pJV7y0Dtho9HB7smgtSYzODBZ3hierDm4uOFk4jJHMNvH5cxxow2wbk0RSNRKpChv7AbYNCVzhMtlslfkVpyy4frAVQjiYxpJg9TCCL14jmihjs8d5vOZmcT/IpjbK6kGQlT0/20chtNY4Kn2UPW2UXX0cnTnK1w/N/N8fHPDlsh+Lr0AsVmRlx8eeISFVnBLxEiZrAq0tTTDdIp1MEfIq2OxOSrUWF3h7n/OChmwGoj4v1Wqd09NjiqkQQYeeSMBDrztLVfwkj/iVD760DjgeH8vZrdboyaWhKDGb33BxY97Ogw0vgqNzedvD14+s3FhUOLKlcHoyrG5P0Q7zu35MjoSEMwky3lVVSBL13l5w8vkjB+tHEQ4NEbYO/dxfcfF028euIYbNk8cfyONSUhxoQxJxIVAWt1cUtrVhnm55+Grewa4tSyxdIxbJS67Qb5YV9u0ZKs0+os9i5mz3xtQqJVLxKMFQhHrrIi+oQM/nYz6MW0v47FaaZ8zYyQBu7TYW1TblYvFbS91feYzNLvc9Fri0Dnj+Nw+HIxKpMrvaMCv7ATZUAdb3FD6/Z+CPn2v58L6NZVWIXW2Ib55Y+Nt1HZ8+tLClDbKjEX8Ps6kOcvOxlb99red/bph4uOmbsmxrQuwZY+jsScxKBqs7K2dWhyPJ5p6Xe8/sUtzl/TkzW4YoKsGybYiiRKskMzUcjjjvf3XEX28ZeaaL03gODj7rf6/dpFTIk83m6fQuahwOuw2yYRfatad4rSaajefaEIkAytEmpv0Nivmc3G8KZrSx5Jl5ded5dqXZ629hgSvhgL3+iFS2ht2Tw+7J4vCk2VEJ0RQ9//GJlmuPFZ7tB3m6ofDHTw74X9cOufbAwrY2xNqBX6oiLe/4+PqBmf/+Qsefr5t5dhjh0JrA7M0Qzbco1TqyVnR5zycVlNb2AyxtKnx0U8u/Xzvkv64bOHCksHgzqExRTN4idiXD+rbC//XXLf7wmYYnmjj1wbngzHNtiOKZNkRvcCGqeTzuUyskcKp3CSlOCXEStMClVEgGYgJOC/VqmXq9RjQSJleq0h1chED9FoNuds2XFrgSDiikmouVFsF4WaLao4kKvmCWbXVQCmE+2Y1wZE2jMkT5+rFYkrpYUYdkYfWTVYXH6172jcnncmY+vlnycGjL4AgWCKUq5GsiiDIgFC0xt+hgbsXDli6G3Z1hfkPhy8dWbq978Saq+CNFue9cVcdQm5JSG+LjOSM3lxW0ngLt0Tkp7dMTqoUsAY8bh8NFud56vTaE3AP6qNYanHJCKR0mrJilNkSrViLoc/L0yQP29HYShcbLuz9795tb4Eo4oCiuFss3UVwtIpZij9Vo9khlangCBeyBsiy6TqTrUtLaESgSSdfI5uqYHWlMrhyRTFPuJUPRCmYlRyjdIFtpU2325F5NRETzxZZERkjhzYRAXnSliKdYmjpDJRn1LFfb+EMFTEoBX6RCNFnB4Egjrpkudxid1x87PaFVq5JOxIlG4jTb/W+ROg06TakN4bHoiAb9tOolIooJr/mIbDolmbJNR/t89unHrB8aSRZnDvibe925DlwJB5xWslysihE2EBUygmSp2RlJbQaBoBfaEUIzYlpnOUVRCE2Is/C/0HoQEtWCalAk6GWFjOTEPWV8fCzlqodCG/75VutMf0JSG8qKmlMph30mSz1FXkypD19XI3AquEGPjzk+ftnmufuHAPEmPUbs6g3s2j3SEQ/Oo22c2gNKpRLFdByj+oC7c/ewe0IScnX+/Nn739YCV8IBv8/EwlGmpWrPj/qhGMWL41+KsJy1P3X0s08vX1/XpHTcH3nJly19+53Qj+81K1RzSUqZBK1qkXI2SbWYRwSfeu0WxVyeeCxFq939wcqab19h9pdf0gJX3gF/SeP+Wm0LQt/j8ZDxcMBkNHxREyquL2bPyXgiZ91fqz+z6/x4C8wc8MfbanbkzAJv3QIzB3zrJp01OLPAj7fApXVAwQMj6OkbAg3RHTE8X8P1HfYRtaDlaodas09/KFRuxWNKbygCK5Nz4pviGxGoEUGUH0IsTNv59r+CGVvQZIjrSdZtEbz59mEX/iLgRr1W/fk+L0OjWqCUidOolhgOhxeOnX149y1waR2w2xkQj5dxeHJ4o1VKzSGT5yH+swiluD0yGCKimCcnMjXhCxWIpOvUOy/19RrNLvlyh3Z/Ip1QnndyQr3RI56uS+0JoQsvnPGsbfEqo6xCHGYwVdR9ca3nXiZoCTOFOobnaQrBrH2Gcv8uLN+w15J6EYr+kJBiIR314tHvEPE6qVVrMw3Ad9/nLvTw0jpgsdjk8CjA3WcOllURAtn2dCYcTtWSprOXkKgeT7GCwwm1eg9vqEgi16TVGyOwgJVyA08gh1HJkan06QynxE39Th+rPcGtx1b+OWdlx5QiV+1JlISYLfuDsaxF9fgLuPwFqYYrZlXxXbc/JXRqNDrYPUn+9djM/W0frmhFpjLG45GELQns4qszosD+Jb1WSdoU9bmp5JJ4tFt4zHoyqeyL/2Qu3OXZh3fWApfWAev1Lk4lzZ42glHJEsu3CIQK6G0pjmxpyWQmyHd11gRWf5F0vkkkXmFNFcYZrlCq96iWm2zu+7jzzMnCQQSnv4jNk0NlSkiNCa3Qntjz8WjdK5EQ4jpObxadPS0xiAI9ceOxjWv3bDxVJYhmG4RiJTTmOEYlTzhZJSJ049UB1PY0sWydZrOKP+DD4wvQbHdeARCf0KpkiLqMuM0mCpkM/XaDpGLAZzUQC0VkXvNVp31nR9+sY1xaBxQJdbGfyxSalKodRAWKwRTh9rydzx87MLuz7GlCPF51sa6NEYpXZCnZs90A1kCRVL4h2bPn5m18dt/K460AW4dB7i25+OSuhSdbPjS2BJ5QHk8wj9oSZ1Ul6kY93Jh3SDLfLU2Yj24b+dstM/d2olKwRW+JceuxhRvP3NIJK7UuiawgBRblbD3qtSI2uw2L3UGt0ZL0+tNxesrxuEcxLpace/gVD416C8GcXY578BrVeKxWmev7ARD9bNi/Qxa4tA4obPxiP3ZyQrvVmepBPLbyjztmdowxVMYw+5qA1IHIljrUGl28gSyRRIlwooTTk0JvS6C1xDnURvjmiY1/3DLx/h0LN585OTTHiaQrZAt19M4Ei/teVnY8fP7AJkG5h5aUJPJ1BYoUqj3q9TZma4zr9818dNfGviUj+UjFXlH29+SE0XBAvVGn1mg+B+A+n8+E3mC7SsSuRrN8D7dTQexNT0/G0gEte8vod9apVCrnnPYdGmmzrrzWApfaAc9+saCVyGUrPFq08R8fHfCHTzVsGWKoDGFWtxUerHkwe/J4IiXWD/zs6KJydtNbojzb8vB0w83StpfrDyz89Ws9f75hYm7dw7o6yJ4uxKY6JGe/x+tOPrut5X9fU/OPOTsaewadJY7BnsTqK6D4szxedvC/P9jlv77Qs2FISQc866dIqHfbTWLxBNFEkk6vL2Wqp9+fcjzqUYh5cOt28Ctu6vUmJ+MhpZgHr1kjMYHtZoNSsUAqlaZQqiJQ/bPHu2uBK+GAk9GEbKbKkxU7f/1aywd3bTLyaLDFWd31cn/di9aZkXvFO4tOHmwG2DUksDqTcol6f0Vh4yjCxkGAO0sKnz1xsaGLSbjS4pabuWW3BNvu60LcemTib9cN3Fzy4g6VcSgpVMaoXOYKzKBY8v7t8yM+eeRAq+Rp98cvZurj4wmNegWXx43T46PRbr9mD5gl7rbgczgoF0uM+x1yQTsRt510PM6g20KxW9nZ2cVk99BszwQ931334/LuAc8bXeTbOu0+vkAOQZqkc2VJFRoEIkVMzgy2QIl4toEvUmbxIMS6LonVX5KAWb01IYMqwVSDXLEpo6QCuuSOVHD48pLyYt+YJpKqUyy3cHmzHFlT2AMlmd8rFOoo/jwqawZfvIo7MA38mDw50qU24+OXxE2irrPdqhEMhwhEorQ7onbz5ffiN3XrJZIeGy6DjmwiTrdRIWo/IuSykU2l6bWq7G6scf3rW6xsH1GpzQQ9z4+Fd+39lZgBhdEF0kHSFLYHMukttPe6vSkFoEg59IcTOr0R+UqXYk0kxoWOxIRWe0pr2B8dS5SEOKfa7MuURrMjCJr61JpTUidBhdjtDWm0B7ItkRcUrGSd7lDqRnT7Y3lN0Wa7O5xqR5wbESL3JxPtgg27338tAqLfrpEOODDvb+CzGUhH3DgOlwk6zTIqWkon2V5Z5fHjBRz+KJ3+LDl/zsTv3Nsr44DvnOV/ZofGwx6NYoqox04y7KWQjhJ1mymkYrTqderFIl6nC5fLQ0VyyFycQX/mZWen/UIWmDngL2TYX65ZwfB9gtgvHk9ePsUyW7JqC+yg4H45t7T95foya/lNLTBzwDe14Oz8mQXewAIzB3wD4/1eTxUzqMAOCuWls+doMJC4wW/Vvv1ef+TvpN+X1gFF0EUwX7faQzq9sVTF/TVKtMQy8OwpEuy9/lhyxoggzlmh9Y8fG6eMRhNZOyoCOCKoc+EhgzbHku9GoCk6/YksAL9wzLc+nCL2kZVsgmIqTjmXpZyJU8okqVcqP+L8bzU4+8MbWODSOmCt1sFuT7J5EJS1n8lK7wKj2BvY7DulwiYTUYDdlQxpMsLa6HJkSbKqjqJ3F2l0v4MSUHLKvNrsKZPxWLKoCVbtTX2KVLEjeWjO+i6Q7sVSgz1DmOXDoEyvCDLf73ucHI9oVbO4jjZR9Grifh8Rhw6Xdh+/046IDs8ev54FLq0DlkstdPowglZwSx8nnBcS0j2p4RBNC12GvpxZBGqhNxhPUwX1LulsnXi2KdMRrc6AdK5OItuQtZoijVFvdKWsdbc3pt0eUCy1iKbq5EstEukKB/oIm7o4eldOFl6vq4LcXXGzsB/CE61M5axLLcoNcf3pdSOJqqS6jxfaiGtWa13KlQ6lagutJcbcssJXC26ZryzKutYO/liVYLyCJ5xn6cDDg3WFPUOcRqtHs1mnUq3QaHWYHJ/hGqeDSnCJNooJnEc7+GwW8qkU2aADj/EQj91MZzD6HgGaX29gXpUrXVoHFNoQXl9WIg9svgKJQptAuIDGEmfHECOYqJDJN6VDFsotYqmq5PHcOwqypY2hd2UJRIvsakJsHUVkqVooUsTsSLGri+GPVvGHiugtcZ7tBdDZkmjMMT67a+S9O1bubASwuNKsHwa5vyrK3dyorSkM9pTkF9W5coSTU32JZ9s+Hm4H2TImZXG3zppEbUpg9WbZUgcknf5H922obSncwTwGa4J7q14JszJ5shhcCVk65/LnpYhLMhHF4/MRz+TpDy/OuqNug3LCh9esJxWN0ev26FQyxDxmfA4TlWrjwix7VRzht/qdl9YBRVheJNIF7WC3O0BUpBzqQiwfBNg2JnCH8nhDedyBvJypdNY4sqxs3sbjDQ9r6hA7R0FuL9ilAwldh4UNF5/cMfKXrww8WPexvOfn6bqLzx9ZWNz3ydK0u4t2bq14WdHEpdbE040pOuLxth+zKy31IgT9/WePHKwcBGWfPr5t4JMHFu6sKDxZc/HhLQPv3TQwt+bm4YbCV0/t/POejX1THLUhzINnVt67rufOqg9HqCpn0vFYUCqOGQ26xGJhXB4PsfSrDnhKIx/Hb9jBfLhLMhaX+8pBu0LYrsG8u0rYF6DbmZWv/VoOeWkd8LwBxwJ5ni6zqwmgsibwJWvEk0WsrqQUWNHbE2ypAgj6+X1dFCVUlDPRkSnyAufnjxR4sGjjf77U8KevTTzc8LOtibCvD7NxFEBtiaKzx9nXB9m3TIuvI+E8Tze93Fv3obJn8AZzbO57+cfXWt4TEKUVheUdDx/dNnB/zY1Yrgotib9+peevN03c2/KydBjg6Y6PuVUPO5owS1sKX9018K8HVraNKfK1wfmfyslkSKVcJJPNyTI0oQfx8nFKPRfHrz9zwIR0wGHnpQNGfH5azabMJQ4Gwxmy4qXxfpF3V8IBR8MR2WyFQ0MIjT1JIFUnlSlLuTBBHb+870NoOaiNcYKJmkTJt9s93IEsSqRCsdaj1+2zsefl2h0T/7hnR1DLm5Us3rBguM7hi+bxhnM4vUl0QgPCnSUcKUhkhcqeJVZoE08UWd1289fPNHx418aDVTfz6y4+uKlnfseP1pqQ2oCf3LPyyWMnK5oo27oIq4dBnm775XL46YqDj29p+eKJA60rT6t/XjPwdOqAldJ3OCB0qnmSbiNOnZpULC65Q/uNAjHFiGJQkc9kqZYK5NJJAoEIjUbrRbH4LzICr3ijV8IBxQjqtLsYzRGEVNjD7QCecJFDbYi5J1bmllzsaqIo/gKxTF2q6Iplayxewh+vUqr3ZY7MH0jzZF3h04d2NoWGYKhELFUhECsQTVeJpqoo3oxEyIs9msGZJZSqUe8IPpoT+Z/A+q6HD2/pub3slTqCT1Yc/OGf+3x4z8bqUQSdKYJAX3yz7GHHnGZNFeLeiofrzzzobAnWd9y8/5mK//hUw4OdELGCQM2fYQZPGPVbeD0utAYjnlCCbu/iDDkZdGjkYgRsBlLRCJ1Wm1YpScJvIxJQ5J4xHQ1wuLnC3NwjgqHYbBb8Bf+TuBoOKIqxJ8cUig284RKuUFlSTqSydakNIf6WyjWlJp/QkxdU9KKIutXuS7VcweUicnvtZpdwvILVW5BaEeV6j7YoyG71aHUH8n2l2sEbKuEKlKRCbrM7fEHk1OsOSIhgjzeHN1LGYk8wv2LnP68d8t43ZpZUUULJqkRleCIVYrmWDNS4w2UcQr8iWWJf7ef9L4/4z0+PuL3qxROrvcwPirygwAcWCyTTaUrVhgT1nh8/J+M+zUIc++EaHpOOTDxG0mvBbTjA57TQH/RQbFoe37vFzTuPCUZSFxSZzrc1e//mFrgyDihMJRLjQttBBGbErDFFKwiUw4n87iVr2ctkukyqn9n5lBe6DoJc6WzmEcfIChLJrjZNnotrvGhXkhtOGxF9EH8XDp7JVFBpg3z1yMbcqlcuKQUb23B8zGh8LF/Fe/EU7YlZ3KmkuLfo5Ot5Jxu6OPFs60U/5BWEEx6La0/kzCX7dtZ/0Y/jEZ1qDo9+F69ZSyLoJ+oy4bXoiPjc9HptFKeRzfUl9o+MFMr1c2fP3r5tC1wpB3zbxnvT9oaDEblCA6si9pBVKs3B9+63BHVipdLBGyxKvGG61L2AJ/xx/REJ/iH1YpZyNkUln6OSS1MtFGjVG5ISo1TMkcmkaHW6L2fXH9f47KifaIGZA/5Eg73Nw8XsJKS0O90RQi3pjLf0+64hMIeivE0k8UeTV0rTvu/Ec9+J6x6PR1JDYvxcS0JU3UgFphMxO48YjUczjtFzNvul3s4c8Jey7KzdmQV+hAUuvQOK+ODPLsJ+zm4t9m1ngcYfYdM3PuQn91kUgJ8cIygtxCwmFJFmeMA3vg2/SgOX1gEFGkIGLnpTMc3Rq0iCHzKvWB6OxlSqbUT9ZbM7/kE0g1jaieCMEOMUTvtTH9Pzp1QZYok5GP8wgkI4Xr9ZpZyJkk8EqRUyFBJRytmMFBs9o2b8qX2ZHf/rWODSOmCr1ScULmK0p6U8dEFoNwinELPaeRlokaIQoiuv+IuYQXqdnuQIFXWjxcbgRbRROIp4iNIvkaoQ/C6iqFsQAIvkvMkj0hQtGb0UjigOF1AkkQrpdAdS1rrTH8sAityPPXdW0V4mXcWuZDC7c0RzLclVMx0Kr3Tw+fgQ0KJC1EPQpiPgNFFMRQja9PhtRirlqoy2Pj909vIOWuDSOmCh0OTgMMDtpzbJdObPtKi3hzRbgkhJCKlMUxIij1dp9GRQQ+hENFt9Gs+Pq1Sa2DwZ7IEi+VpfEiqJ4wWqQhA4CY15hzuDzVuQ+TqrJ8v1xza+eOxgXRsnU+rIPKLA6tXbAuXQwhPKcWhJ4E0IRMZAVqIILfmWIG6qdnDZ4zxZcsrku9ZTpNLoMhr26XZ7khTq1f8o+q06IYsKp3afgOKgXsrhN6uwqjaIh8MM+hcT8e/gGLzSXbq0Dths9vD4cmjMCWzePLFsQxZHH5kTEipUbfSJJcoIfYc9UxJftEQwWmD7MMCGOoLGnkYJ5tk2JDB6pg7oD+XY04Yk+sHiybGtDvP1Iyt/u23j0V6YQ2uS9cMAy7t+to7C6EVJmiuN2ZVB70hjcSS4u+jg/3yu5d5OGCVSJputojZEMbiyEmIUj5cw25MYHBnCmSbZbIZoyIeieKg02pxXWRNpiW69SshqIOJ1US6XmIxH5ON+AnYdsYCPfm9WWP0ue/ildUCBJBfyYaVKh2q9S7HUlEnv+U0P60cxEukqNmdSku0KsRaXL4vJGuPBokPWZR7ZUvgiBVTWJGZfkXi+jdEeZ3HHI6FF+4YYawdB5hZdfDHvZk0Xx+rPY3VnpCiM2RZnTxNkedvLvWUXNxddbGlDPFhT+OiuhWV9SmpFBAMZbjw0c+OZwr49S6XRl/2tiCqb3ohKqUA8EsTr81Ntdi+AiieDLuVkGOveBgGXg2arJcdaOR3Ca9zHqVNRq1Te5fF35ft2aR3w4p0VZWRt1NoAT9YUFveDKP4MR6aoRDQEE1X8wRx6Y4SlHT86Z4ZIqkY2V8PiTmP05FBiVbS2OFuaIGvqIAeGGGoBDzInUNsEUW+JUKqKM1AgGCrgVlLsHHi589TKezf1/OWWgXV9lEOBR9RHccZqJDI1bLYof/n0kD9+pWdeE6c9vrjX67WblPI5WVwtOEfPx3aGnTrZgAP14iMUk0FS1YvfXUr4cKrW0G+vks9mZL5w8h2VMRftNPv0a1vgyjigAJ66vSlW97xyFlKbo+xoQuxoo/jjFbyBnJwRhfxYrTWQwYtKqY7aFJOIep2ngN6RZE8fZv0ohNqaxKpkZMBEAG2doSLOYIFNdZC1gwBre34WNxW+vG/kf65r+ftdM4fOFGZPGrUpitVXlFJmwkn/v48P+O8bBpZ0CeqDcyq5ooi8USOXTpGIp2h3+pyPHx2P+tSyCVxHe4QURSIXRJSplA4TsAqtCBO1UpFatUo0GiFXqtEdfD9lxa89AK/69a6GA56eyoimzZlgYcvLoy0/SqiA0Z5gUxWUe0Ch5ReMFBF0FaLCRPCtRCIF7i27ubnsZc2QkGDeuRUXc2te7MESopg7FC6wdhhi15iQzwcrCg83fGzrYlhdKR6tOPn0gYXrqx6UeAVftIhK0FZoE2gsSfY1If55S8+XCy7UQitidE6U8/SUeilPOOBDcXupNjoXlqCnxxM6tRJBi46w20W5VGZyPCaXCBBwGIiH/DQqBYI+F4vPnqIyu0iXZ1T175LTXxkH7PcGuH05DowJjpw5yQmTzFQx2pPsm0UQpkyp0kbsvUSRtmBUC0dKzG8HebwTYt+aYmHXK1Hr8/th0uUuvf6IYrGByhhHZU1Jkc3NozD75hTeWBUhEmp1pdnWRTlyZSk2e5I7xq5k2TelZfRUKPJuqsNyGRvJtRidry47PZXa7/FICF8gSO2VPaCY7QbtBjGnQdLUi+M6zRpRrxWvVUs2naRWzGLWHvCvT6+xtKcjmq+9S+Pvyvflajig1Aqc1l0KmgqRKJf5t+MTiToYjM4hF57H+cX3ApYkNCOEpLQY3FJlagAAIABJREFU/CIq6o+VZaDk+PlaUOT5RJtnT5H8F8l44cSijfHkGNG+QDSIXKA4XtR/Tq95jKjtFGKiAv0weUWIRYxOQa0hmK7FHk6cf3GHiMT/pTxGHJotHPpDslEfLu0uTv0hpVKZYiaJSaPi/t372H0hGr2ZVsS75PVXxgHf1OiCXazW7EnWsjMY0pu2+TbOPzkeS5R7IREiEwvKGS8XD1NMJxGUEp1mg0wyid8fkoq7r3Pyt9GPWRs/zwIzB/wJdhOzl3i+c4/TEyajIcP+NGk/Gg7lrCn6KWZPUVInZvPZ492zwMwB3717MuvRFbLAlXJAMQuIvdZocvybkM+K7aXsg9QaPPnB4u7fbBzKutUJo0FfakicYQYlXvDVWrjfrJOX48KX1gFHwzGCnj6Tb0nBzc5gQqs1oFztUKx1Gb12KTmlonirt/aVAdvpDCgUW1KwUwRrvvch8oDPxT1rreF3A3DlNV6/NB4OR5RrHRK5BoVql97gPE3h668+6nepFzKkgj6Jlq/k02SjAarFAoN+//Unzf76syxwaR1wqg2RkNoQGkeORLlHKtvAHy7ijVboPc+3ibErnyfHDAeCer4nB+kZeunF98/NO/08RTiIIf/i89n35/4mEBXtVp92e8h4IjB7J5IYyuHJyuJtocL76uPMjUQEdTQY4g0WZOrk0JYlVxUF2dO9nLiuuPjxeEKz2ZWOKuSuz/ok2hXHlCsNTM4E87s+qZGRKXZeXlI28vLj2btWOUPIpkG7ukDYZSfismDefobXZqZSKp8dNnt9Cxa4tA5YLgttiAjz62529HF8yalWu92Xx5eo0x+OKVba+CNlQsm6pKY3O1PcWXZLIRRRCN0bDMnkGpIxTSAXWi3hxDXJrCYGcqXWpVBsyppOQV04GB7LWTcstB6iZULxMqt7AZ5uB1G7CqSKTYKxMnp7mnC6IVEYvf4UyiRVlLpDavUO6XyTRKYu61VFPek3Cw6+WlDQurKE0zWSuQaxTJN0fqpz/2jdw7ODMNZAWUpmp3MNWUqXK3dJZStorBFuLzvY1U9rYAfdNtlMhlKpwmD4KvXECa1ikrhiRjEaKEvOmCQB8yEhj5PKrLb0LbjdyyYurQMKPKCoyRRO5Q4VSeSamIQug8AHRis0mh1sSoqFTQ8b2hhqS5ylXR///ZWeb1b9GJQ88WSZbVWIdXUYizeP25uWVPLPdv0Y3XkC0RIuTwbx2aDkCKfqkhf00JRAZUlKJMQXDyz8c87KU1UCf6KKw5+XIiqCb1Q4UCZXI56pkczUiMbL2JU0W+qQpK3fM0TZ1YbYEKzdh0F2jTGpASH0LTY1UdSWJOKY928a+fSxi21zhlypidmZZF0V4tCakRoY/miBI1tcUiGWSnWa5QJuh4twOCbL28RsKx9CeXfUJR92ErBoCPuDdLt9Bp06KZ8Fj0VPMhaVuc2XQ2j27k0scGkdUCTKBcB1MBhLjT2hZGSxJzkwxjB4RXFzlR2Vj8/vGbi/LhASYZYOAnz+2Cn5OcUspdGF+PCmng9uGXm07WN1W+HRskOqFR0K+nklzYEmyEff6Lm96mZDG2Hr0C/L0IS4i9uf5+6Si+vPFLatWeK5Jk5/HlEtowSLhOMlvIEMR5YYRkcCvTnK/JpLtvf3G3qJoDC40qSyVTJiJrNEWd338mTNyb/uW7m37mVFHeb6vJMHWyG0rgLZfI3NAw//umvk60UvSrRGqzeiNxzJ5asIrDSKOVw2J6FQTAKKzxzw9GRCv1kiYNzFsrdKNByTLOHjfptswIppdxW3xUS71ZEFAm8y8GbnTi1waR1Q/DwxsM7+cxe1nYlkWcKOXIEc8VQFiysp8X0Sq+fOYnRlpIJRMC6Uj/Ksbyv88TMNf75h4uGOKLD2SRWkQLJGudJCcad4uGjn//xLzT/vm3m47WVPEyKcqlFrD+VyVG9JoLOlSJU6sqpGLGnFrCykxcTsFwrnWNlxoxK0+eYocwt2/vK1nj/fMHJrxY3alsAfyeMPZaW2xYMlG5/fNfDfX+u5s+ZH68ihFapJ4bIMtMTjRe7OW/njp2o+eqhgDdboDl/mAE+Pjxn1e9SrdVqtjqzKebHvPDlm0KoQNO1j2V8jHIrSH4wY9VqkAxbMBxv4HDY67d60Mufk51FvzJzvpQUutQO+/JkgWKnNjgQL2z6e7gSw+fIogZx0SF+4SCBWlsvDQ0MUrS2NwZZiT+Xn79cNvH/HxrPDKAe6CL5wSVLNn4xHuN1Jrt838odrh3z8xMYzVUDOgGJp6IvXEEh3hyuFyigEOnOk8k2srgxP1j1sGpJy75hIlOTMqrHEJPp+dcfDP++YpcTZo50AKwd+VvZ9LO752NEEebrm5NpNDX/8XMfD7ZBkzDbZk9LJ9c4MNleSL+8a+M+PDvn0iRtHuE5vdOZiSDrCVrVMOBAmlcrR7Qsu0pdLUEFdn/Hb8JnURAJhxB510G2SDtrwCDr7mKCzbxEN+PB5fCRS+dmS9PxA+4nvr4QDiuhjrdZm/SDAtXtWPn7kkmqywXhZajvE0zXShaZExW+rhBpRkG19AsWb5fGqh/trfg5tQnglJyOpYkknkAjBUF6iHT6cM7N4FMHkzaLWhXi47pGs1dlyG483IxEXYgY1ubOsHwT55I6ZbzZD2IJlCoUGBnNMalWIVIHXm5KKSnfX/ByY01I/4s6Sk5vLbkxKBo0pyr0FO18+crBnShNJ1TFZ4yztBZjfC2FwJHmw5ODzexYW9qNEsm2Gk5cOOB70pDS1RqXB6fRSb4rl5MvvOZlQz0WJuy0EXQrNRpN2vUTcYyQW9kvlpWa1wObiEx4/fIJa7/iWBuFPHINX+vCr4YCnp3IvKKKHSriMO1KVikeCTEkgGkSxtSiiFrLS5UqbRLZJrjQN7QsRz1imQabUo9EaSPIlkQoQs0a3OyRXbBJN1SjVuxLBXq/3SGbF8W3642OpTVgst4mmGxQqHRKZBp5QmUCqSbkxkHsswUMjSJoEC1q/N5TCoQIWlS11ZAQ2nmmQKLTkMYIEKptvyHYEel70u9XsTSOn2abkq8kWmrIPhUqX3nByoYBbLEFFyVq1IgJRLUnVfzYBTj3hRDpg0KzCuLtJOhomE/HhOFwloNgp5FLkM2Eezd3g3r3HGO0BhqMZxvDn/i9yJRxQMqGdnEoEgqD7E8noF7oNAqEgRqCYBCRjmhD2nOpFiD9JtMJI6DOc14+YzhjCCY9PTuQxZ8s48XpWbSOPOhX1mFOKxDONh15/Qm/4/Bpnechzd3B6zSlCQrYlkBJniUlR33ksrvmykkZcUyAsRL9FobjokzhGzGzTnp5rHLEvFt8fy0DKReebHtdrlMgEXSh6FelIkHTYL5ekmViUWrlIIRdlf28Trd5EulC/0LfzV5q9/2ELXA0H/GE7zI44ZwGhsNSplykkI1QLOfksphJ0mk36vQ6NRplEMk6pWruA0D/XxOztj7TAzAF/pKGu1mHTWfLk5FhW74g9tHwvo8rPZ1DBxP266fNqGeqNf+3MAd/YhLMGZhb4+Ra4tA4o/nMWeyCxH5J7oXfgf+uzPon+TPv0I26c2KMKvb/hQMqKCdyfQCcInN/p+ejlj2hqdsi7Z4FL64AikCGQB7VGj2Z7ICOMb+KDItAhzhdBDfl8sRz7dpjju26zCJSIyKko+Bbs2/2RWMb9/+2dWW9cSZbf+8Fuv3jcA8MPBjzdMODxDGx/Br/5M9ieefCDYcBj+MGGYQ8wDTcGnqmacaP3qq7umqqpkqpaErVQEhdxE0lxSW7JTCZz3/d9vbnfmyt/RgRFKbVSrhalJBkJXORdYv1H/G/EjXPinFeFPr4/7HdpanlyMR/lbIJSOi7FCJViSe54f31s9XTcEbiwBBQGkeyOJA+FherDNKnKb7eNptvpUii1KWm6dEUttjUJc/IjIrZT27qutaRccHUzwKY1RTTbfNYI0wspHKHXSyR8Vg7W54gG3ES9drx7j/DYLJQKhRdiqBvnC4ELS8BCoY5pK8itaQdzm2G8yRr5UlMeUj5m9I59umstaWRJOFcRalfZYoN4tkG2fOz/Qavp0lpaKqPh8OXxh4sk0xq+YI5IskKm1EKkV5dONntUheWzYpN8uSX9R4j4wgy+IG4uo7G3F+LO9CGz6xE8kQq1RotqpUKz2ZLii2e6z9GQWjFJ0LaF+dEcyXhU2n3x7q1yYHpEJhl/Jri6OH8IXFgCCt8QHm+GbUscqyuLJ1JidSvA7XkX91aCcrvOoTvF4oZfaq0E4mW5G2FyzsWnk05ur4Zw+HMsb4aYXw+wvh9jfTeC2ZbA6c6wb4vLw2SOMSm1XLIEoiV2hEK1UNxeD+EKFqTvicXNEKuWlLQjGgrm2DZHsXpLxFJlMok41u0dvL4wpZr+RHdVdCXheqycjhJx2Qh43FKh2jBa5ON+aXYwm4gopejzx7lnSnxhCSi+t4QnI/H9J3aEh6IF5te83JxzMrUa4EA6bglzZ97B55N25jdDrO2FpWrZZ3cO+HrGwYNVD59cM/PxdQs3l7xScVuogm1ZonInhNOdYnsvzKcTFm4sepnfDvNg2c3kkoe5zSB7h3GmFp1MLrrYtKWo1HU5ylZrOrV2n2ZLRysVCHq9JJJZOaV90jpHQ3rtOgHLBpaVOdw2m/SkJKxh5yNudhfu4DSbqJQrioRPQDt/JxeWgKNNIcwyxBNFVraDzDzysWgKsWGOcG/Bya+v7fGjK/tcm3EyueDib26YuTJl5/aii8kHh/zFJyY+/MLMrZUAG3shHm4I5WgvFldGOmGZX3bzl7/e4GcTViaEV6Q1v9xV4YkUCUpvSx5uzzlY2o6Qr+rPaKaI1c1Wo0YmlaJY1mh3RlS6joZyF4Jvbw3zw1ncVqvcsT/oCn+ATnbmbuHY3aRcUgQcbevzdn4pCGgYXYQV7DXh58EU4uF2WHou+mLCzAefbPBDQcBpJ9fvH/LBJ5t8MeWSI9jiqosPP93hx9fsLFvT2F0JFlY9co+fzZdnez/K1Vv7/K+frvKjaxburQWlQ9C8sK59dITe1rEeRrkzZ+fGvJtgpoEx4txh0O8d2+1MJCkUK7Sf89sw6HVJB9x4zFv47A70Todup0Uu5sFmWibq97xkR/t564KXu7yXgoBiBIzECly9f8BHEwdMPAxi82SYX/Xy+cQ+V6edTC37uDlt54NfbvCzaxYmV/zsWKNcvXvI1w98bLmL0kSE+PabWwsSz9ZxeDPcnXPw06/2uL7owWRP4Q4UqDa7DIRBpXpT7qD/esrOneUgiaIg5tMOJ/bl5RJxzKZt3J6QNFExKioR2iflVISww4rP4ZBK47reJBt14zRvkI6Lb8CRBJ8mrc7OCQKXgoBiBBTmJe4surm9EmDXW6RQaRET7sTcGbkVyGpPMDXv5INfrvNXf7srwwXjZRzeHI5AkWiuJa1i58TOhoQmdyYIUYQw8rRrT8tFnnShIe3EGFK+d4Shd/CHC+w7M7jCZert3jNT0H63S61cIhwIkkrn5arpaL8RStP1QoqwfY+DzVWy6TS5ZISgzYR9d5NsKjkaXJ2fQwQuBwE7PbL5GnZfjli2wcgG8cdNdkQxr7GxFeCjq3t8PGFj0Zyg0uwea6wMj6RJwFeNNaOj1vN9QGirvMynw/PhXn59JE1ExFxmzMtThDwOwk4r7q1lXBYzxVz+5dHU3XODwKUgoNiaI76vqg3jhf1xJy3VMbpyn53FkeHQXyRVFN5on1Lu6dlJjHfzf6wJUyAXD1DKpSllUxRSMen5Vvh+UL/zjcBYEVBAKbwB9Xo96SDzbek6ihHqNP1LoWomPBzVGh2a7d6rjeC+8/YWuqA9hLFcYVCpY+jyX3hLEmVWv/ONwNgRUMAptpEe616+bEPp+QZclV4hMIrAWBJwMOxjdHUaeoOu9Is3WmR1rhC4OAiMJQF7fZ28lsATtxEvpmgY7YuDuKqJQmAEgbEkYL+vkyoE2HY/xBY5IFdV/ghG2kydXiAExpKA4iuw2sjjipo5CO2RLil51wXqc6oqIwiMKQGhrdeIpl3s+zYJZgJ0R6yCjZRfnSoEzjUCY0tAoyO8BHnZdi1jjx5SNQxpcu9co60KrxB4DoExJmCDeMbFhn0eS9BMoV6j1WrJHQHCVqaSgD3XkuryXCIwxgRskSoEcUTMxPNhmvUaPvsBBxYb/nAKYeRW/RQC5x2BsSVgrSnMt9twJQ7JVVLUiznmJye4fXOSzX03rdG9c+e9FVT5Ly0CY0nAwaBDphhix72ENWolWYxLK83XPv+EK1evYbJ6n928emmbT1X8vCMwlgTs9dtky1HskV2ipTiVeolSLsHmxipm6wGZYlXa+zzv4KvyKwTGkoD9QZdGWyNfzdAwmnS6Bu1mnWwuS0WrKn90qt9eGATGkoAXBl1VEYXAKQgoAp4CkHqsEDhLBMaWgMIcg5iKtjoN2p02vYGS/Z1lR1Bpvx8ExpaA/UGHWjNPNB8gWU7R7HaVO6z300dUrmeIwNgSsG1oRFI2Nt3LOBIumr3eqY5MzhAnlbRC4EwQGFsCtlolQgkrZt82oVxE2tk8EwRUogqB94jAWBLwaNhDq6bwRcx4Yh4Ktcp7hEhlrRA4OwTGkoAdo0o0Zcdkn8cd91FpNs4OAZWyQuA9IjCeBOxUiabtbNof4Ep4FQHfYwdRWZ8tAmNJwH6/Ta4UwuZfx5PwUmpUzxYFlbpC4D0hMJYEFCYp2u0ysbQLX9xDXlM2Yd5T/1DZnjECY0pAaLXLBGJmNhwPcSXc6H0liD/jvqCSfw8IjC0BdaMmd8TvetdwJz00pCD+PSCkslQInCECY0vAwUD4bK9TqGYoN8oYPWWK/Qz7gUr6PSEwdgQUJumPfUP0GAwG9Ac9+oO+UkN7Tx1EZXu2CIwdAQXpdF3HEFbQlCnCs239d5S68iHzaqDHioBi9BMEbLfb0gKaGAm/qQcgEU94RBIkHgyFs5dXg/A2n0hPTCLvozF1LCNxGdLt9en1hwyHp9f+uF2GEss38cg7HPTpGW3a9ar05tTrdqV3p3ajSkdvK4t2I5CPLQEFCX8bArZbHZKpinQZHUxolIWzzbMm4RF0jB6FcotCpY3efR8rt0ccCVY9rqx4oQmydfvHTBsOBjRqx559o0lNumJ7ARbxFnn8xhJk0ioNguECnmCJdL5Fd9TP9khnOjltaXlizh125+8QDXgo5ZIk3TuYl+7htppp6Uqx/gSrC0vAcqmJeT/K1KKHFXOCaKGN0RtIcxZ6p89gcES/P5A+AYVL6b4YKQdDul1xb0CvN6DfH8rnwg7pyXPxTMYXnm+HQ5mG0TkOW6+3cXszLG2F2bSlyWu6DCvii3hiJD7JU6bZF/GHMowwsyhH6uERnU4fkaa4Pi5T/0mecmQfCB+KYvQ6duPW7falmUaj06deaxGLlwnHK5SqBoVSg2yhTq7Spivq3O1TKtQ4cGUIxCo02uJbW+y9FHUdyBdINlslEq+QLraoaE0i4SzLj7zMrASwegqStGJUEz4KRbznf9V8HJ95mc3ZCWLhAFopR8qzy9bMDSybjyhrTVm35+NdxusLS8BCoY5pK8TNaQfzpgj+TIN8uUEiUyWYqKLVDfLFBtFEhVCySqbQkG6sA+EigWiZSFIjntbwhYv4Y2WS+Qb5UoNYSsMfq1DUdEqVJqmshjdSJpGp4Q/lmFlw8uXdQ6bXw0QzVRLpqkwrnKySK4n8NTyhAsG4RipXJ52v4Q0XiWZqFLU2Va1FJKHJ5+I6X6wTSVbwRMoUqzrVuk4+XyeaqpEvt9BqbSKJMqGEJn3X+/wZ+dK5Oe9lz1PA6c3i8mVxxzVanQHtVpd4osyuM0MgWaWhd9G0FsmscAVQI1eosbET5va8hwc7SbyREh5PirkFJ7fnvezaM1SrTUqFPKViiVq9LV8Eo+SpZGME7ds4LSbKlTK9bodaLoprZwXn/i65XEW+iEbjXNbzC0tAvd0lm60RTpRJ5mpkCnV29qPcnndzfcGL3Z9jbSfE9alDvp5xMrXsZnLmkJ9+usnPr+zyNzetXJm08sPPTPzk6i7X5twsrPm5Nefii3t2Vs0xHu2EmJy384vfmLk+72ZxO8xDUwh/tEyp0iKTKTO34uXKpI2vZ13MPhLnFj789QYfXd/n1ryL+0tuGf/GvIf1/Ti7+xFuTDu4OuXg4U6E+TUvV+8d8PPrFjYOEuxao9yfd/DZHTtTqwHW9sIyzc8nbYg0Ftd8/PDzLX7wqy1uLIfYssaxe7O4YxrtzoByucmeNcb1BR877iy5coNdc1jW69aSD6cvw7X7h/z5xyY+/OqQdUeWVL5GJq0RSzfkC0Er5LHt7bJvPiAUyz1rJOsItFyCqNdK0Oug0WwirBu0qzlC9l38dhv5vCLgyQvnwhJwODjieGrWp9k0SKXLPNoJsrIXYV+OCmlM+xEerPlZWPdy/b6VX35l4iefbfDzL0x8dGWbj65u8+O/3eInX27zyQ0zEzMOHjwK8HArJIkxveJhcsnNjQcOJuYc3F32srIbo9bswKBPIpplbTvI7KqX2VUPX9+z8osr2/zfTzf5xVe7fHXfxt2HHu4ti+c+5la9TK/6WDSFWNgIcH/RyeSii4l5JzfmnCxt+rn9wM7PvtzmR1/t8+W0g6lVL7fmndxedDO75mdjL8ydBReTy35swRJuMfr5cwTSdXqDI8TUMZ4s8mg/iitUkFNU60GEe0tu7q368YYLrJhC3Jr3MGdOES00Mbp9OSXv9ob0xHS31SAdj5OIpyhV6s+aiHxMwJjXSsjnoNFqcsQQvZon7NjD71AEPCGf+L+wBBytZMfokEwUeLQb4sCfJVNuEAym2XckMB0ksBxEuDVr41c3drg2beHGvX2u3jTz2fV9JmYdXJ855Is7+1ybdrC+F8Ppy7K45mV+M8i6LcGhJ8mj7QBTDz3MbYSIZ+uUKw087jjmwzh7thjb5iDX7tn44pZVjjAT04fcXnDyYCPIriPFljnMwqqHO8s+9pxprPYkU/MO5jaDmA4T2NxJNrZ9XL2zz19+auIn161cmXXxYPM4vtWVkmHcgQw2ZwJPIEe+ohOJFLA505i9Rcr1jlzY0qp1dg/j2H1ZUpkqPl+ah5sB5jaCBBIVfMGcnLYG0jXqRn8USulAfNDv0azXadSb6Eb32ZXqEwJ6LAQ9h9RbTYYMaWvHI6BPjYDP4HkpCDjo9ykWNJbWPEzMObm/FsTqTDAvpoR3Drg2ZefmvIM7D+3cXbQxOXvAjbtWrt4+4P6Sh2k5yjj4zT0bX96xcfW+g+lVP5sHCQ79OUSnt9hjLG345JT2xpxbEmfHEubunFPm8fX9Q+4uuWV6d+ddTD10Mznv5Kv7h3x8w8rNeTdLGwFmVzx8fd/Olbt27j30smVL4AjkcPqzWA4jTD445Eefb/HXVy38ZsGH6TCJPZDD7svg9GcIRnI8Mvm5u+jhwVacbUuC2RU/H03YeWhO4QgU2LXF+PFXZr6ccbPjzGC1xWTdfjVxgMWdw+lOsWoKcnXGw36gTFV/SsKjQY+mVsJlPeDwwEksWZDijNFepeUTRH0HhHxOmu3W0xHQacbvPCSnpqBP4LoUBBRL6nrbwOvPsLYXYXU/QTRVwe5Oy+nW6l6cA28WTySP3Zvi0JXEYk9itiVxiClcMI/Dn8NiT7CyHWHBFMERKBLLVMkW62TyVdK5KqFoEbMtwZIpwoY1QSBWZNcaZ9kU5pE5jiuYxxsq4PDm5OLI+k6Im7MOPp10sLyfJBgv4wtkWd2OsLQVwREsEM+KPBpysSad0/AEsqztRJhej2CyZwinq2SKx4s5YrVTrFp6A1lMljjrtjTuYJEdW4qJBT/rtgzOYBGbJ8NvHniZ3oxiDxXxB3Os7UZY2onJxaZcvorTm2F2I4I9oqG1RwnYl/K9kNeL3xskk6/IVdQnPQp4ugizRUWr0Ot1jxdhdldwWnbJ5TW1CPMYsLEkoHBDJo7fRg442iHEuVi+bzR00rka8WyNZruLVm2TydZJF1rUml3aRo9a/XilUavraDWdakOn0erI8ELMkMnXiWXq1Fs9+W1kdHq0je6xOMPoUa22iaerJHMiTIdCqSlXOzOlFk39cR4Ng1qtTSCYY303zJI5SSjbkGISvWXIMiZEfP0kjz660UOILsSUT9PaJDJ1sqUW9XYPIX4Qz8W/EAvUGzrZQoN4rk65ppMtNvGEy0TSdXkunrnCZbkKKsQT5UqTdL6OKKOQF/Z6fSrVllwdzlZ02t2nnqjEgkqva1Atl6lUNJot49kpKFDNxfBbHrG7PEU6GadR08iFbJiX7mLb3qRUbrxA2ufb67JcXxoCnjToiIxZyppPrk+E0eJfHo9l0Sf3JYklkY9l1KP3T9KWYU7iPQ7wJP2RCMeyvAGa1iSV0Y7lhc908idy8NGkn5y/LM0nDx+fjIY5Pj/WBnp6//nrZ/McjfN82uJa1EEcL/s1tRzhw01M09cJe50UMzHi9k22H9zCubcjBfGviPqy5C70vbEioED6RBVNaMIIQe+rGvkitIoUystRa0zV1r4hyP2uQVMrUkhGqVc19FaDZiVPMR2nWi4pIfwIrmNHQEG4rtAdFPv/3kRRcaQy6lQhcN4QGDsCCgBfN705bwCr8ioEXofAWBJweDSgO+hg9PRnhbyvq4l6phA4hwiMJQGFX4hyPUso4yGj5Wh1jHMIrSqyQuB0BMaSgL1em1jOzZp9BnPQQkZZRTu9JVWIc4nAWBJQCAK0RgFPzII9YiWrZc8luKrQCoHTEBhTAoJuNIhnPVj9JsKZAF3lH/C0tlTPzyECY0tAo9MgmXGz5VjAFraitdvKMNM57GCqyK9HYHwJaIjNq262nIscRg+oGroi4OvbUj09hwiMLQH1TpNEzsdBcItwLqimoOewc6kin47A2BKw0dYIppw4YwdktczDOByXAAAEIklEQVTpNVEhFALnEIGxJODRUY9cOcqed5m9wA7JsiLgOexbqshvgMDZErDfeby34A1KMhKk3zfIlqPYwtv4M0EqrfrIU3WqELg4CJS78MeWNv9gps53Fxr8MtIlob9oae5bp1XZXB3wnx0Gf3e6zj9fqPIzbx16BgwHUqlaKFa/6dHttinX8iQKUekbUO/2pK3LN42vwr051gqr94OVtN3KkJIx4I/2W2+JgPZjAv7BoiBgDYwGA0PH0HVp7VpsMXqTQ9fb6IaBYXQwdEOaqn+TeCrMm+GrcHr/OBl6G7ptco02/26vwe/M1N7CCCgIOFXjD5dq/NzfgH6bo54uzZMLfw9vfhgIQ0rdTlf+n5DwzeP//+Slwipc330f6Bg69HTyLf3tEfBPHAbfnq7x+3M1/o+5SSZhUK505Q7ofr/3xOvRifcj9a8wuax9QFiW46hPUe/x7/db/M7b+Ab8L06DvzdT53tTVf7TZJOZ+13M9iE57bQvSPVcIXA5EXirq6B/4jT49mydfzZb5b/NNVld7GKyDInlj+2sXE6IVa0VAq9G4O0SUExBZ+r84UKNH2w0ce532TscEMke8dSw3asLo54oBC4bAm+VgMdiiBr/YqnGX+23SPi7OLwD4vkjHnvHumz4qvoqBF6LwJkR8IO9FlFvF7tnQEwQ8OUW7F5bOPVQIXDRETgzAn5obhH39bB7B8QKioAXvSOp+n0zBM6YgN1jAqoR8Ju1jop14RF4qwQ8kQP+wUKN76+3sO112bUNiWThRe22C4+tqqBC4FQESt0j/uht6YIeiyFq/P5sjf8x22R7roP9YEi5dGo5VACFwKVEwBgc8R+sbb4z+1sqY+9pA07kgN+dqvEfJxvcu69jsvUIFftU+wMqXXUoDFQfOOkD+mBAvNXn35rfgjK2JOBjOeB3pmr868U6/93U5H9aWvyZo8UP3C3+tzhc6lAYqD4g+sBfeFr8qbPFv1pu8O37Nf7pYoOPI13i32g7kjbgv4rtSFM1vnW3yt+fFtrdNb43X+O7c8fH783VUIfCQPWBYz58b67GP5mr8Xfu1fjW5DEBP4l+w/2AvsaQvw50+JcrDf7xfJ1/OFfnd+fqcm77nZk635lWh8JA9YHn+8DvTtf5R7N1fm+hwb/ZajGZ6VHovLhkeeqGXOFEdV8b8ONQhz/zGvyp2+D73seHx+D76lAYqD7w0j4guPLnvg5XEl3i7SG9F/nHqQQUDhcb/SOi7SHe5hBPY4gYFdWhMFB94PV9wNsYEmwOyRhDXjL4ydXhUwl4KdeQVaUVAu8IAUXAdwS0ykYh8DIEFAFfhoq6pxB4RwgoAr4joFU2CoGXIaAI+DJU1D2FwDtCQBHwHQGtslEIvAwBRcCXoaLuKQTeEQKKgO8IaJWNQuBlCPw/eUsbIFaXGnUAAAAASUVORK5CYII=;" vertex="1" parent="1">
          <mxGeometry x="110" y="30" width="95" height="263.37" as="geometry" />
        </mxCell>
        <mxCell id="OL0GkuOh2Btfa5_G7vJa-183" value="Transform" style="text;html=1;strokeColor=#6c8ebf;fillColor=#dae8fc;align=center;verticalAlign=middle;whiteSpace=wrap;rounded=0;" vertex="1" parent="1">
          <mxGeometry x="460" y="210" width="90" height="20" as="geometry" />
        </mxCell>
        <mxCell id="OL0GkuOh2Btfa5_G7vJa-184" value="Generate" style="text;html=1;strokeColor=#6c8ebf;fillColor=#dae8fc;align=center;verticalAlign=middle;whiteSpace=wrap;rounded=0;" vertex="1" parent="1">
          <mxGeometry x="600" y="110" width="90" height="20" as="geometry" />
        </mxCell>
      </root>
    </mxGraphModel>
  </diagram>
</mxfile>
